<svg width="264px" height="280px" viewBox="0 0 264 280" version="1.1" xmlns="http://www.w3.org/2000/svg" xmlns:xlink="http://www.w3.org/1999/xlink"><desc>Created with getavataaars.com</desc><defs><circle id="react-path-1" cx="120" cy="120" r="120"></circle><path d="M12,160 C12,226.27417 65.72583,280 132,280 C198.27417,280 252,226.27417 252,160 L264,160 L264,-1.42108547e-14 L-3.19744231e-14,-1.42108547e-14 L-3.19744231e-14,160 L12,160 Z" id="react-path-2"></path><path d="M124,144.610951 L124,163 L128,163 L128,163 C167.764502,163 200,195.235498 200,235 L200,244 L0,244 L0,235 C-4.86974701e-15,195.235498 32.235498,163 72,163 L72,163 L76,163 L76,144.610951 C58.7626345,136.422372 46.3722246,119.687011 44.3051388,99.8812385 C38.4803105,99.0577866 34,94.0521096 34,88 L34,74 C34,68.0540074 38.3245733,63.1180731 44,62.1659169 L44,56 L44,56 C44,25.072054 69.072054,5.68137151e-15 100,0 L100,0 L100,0 C130.927946,-5.68137151e-15 156,25.072054 156,56 L156,62.1659169 C161.675427,63.1180731 166,68.0540074 166,74 L166,88 C166,94.0521096 161.51969,99.0577866 155.694861,99.8812385 C153.627775,119.687011 141.237365,136.422372 124,144.610951 Z" id="react-path-3"></path></defs><g id="Avataaar" stroke="none" stroke-width="1" fill="none" fill-rule="evenodd"><g transform="translate(-825.000000, -1100.000000)" id="Avataaar/Circle"><g transform="translate(825.000000, 1100.000000)"><g id="Circle" stroke-width="1" fill-rule="evenodd" transform="translate(12.000000, 40.000000)"><mask id="react-mask-4" fill="white"><use xlink:href="#react-path-1"></use></mask><use id="Circle-Background" fill="#E6E6E6" xlink:href="#react-path-1"></use><g id="Color/Palette/Blue-01" mask="url(#react-mask-4)" fill="#65C9FF"><rect id="🖍Color" x="0" y="0" width="240" height="240"></rect></g></g><mask id="react-mask-5" fill="white"><use xlink:href="#react-path-2"></use></mask><g id="Mask"></g><g id="Avataaar" stroke-width="1" fill-rule="evenodd" mask="url(#react-mask-5)"><g id="Body" transform="translate(32.000000, 36.000000)"><mask id="react-mask-6" fill="white"><use xlink:href="#react-path-3"></use></mask><use fill="#D0C6AC" xlink:href="#react-path-3"></use><g id="Skin/👶🏽-03-Brown" mask="url(#react-mask-6)" fill="#D08B5B"><g transform="translate(0.000000, 0.000000)" id="Color"><rect x="0" y="0" width="264" height="280"></rect></g></g><path d="M156,79 L156,102 C156,132.927946 130.927946,158 100,158 C69.072054,158 44,132.927946 44,102 L44,79 L44,94 C44,124.927946 69.072054,150 100,150 C130.927946,150 156,124.927946 156,94 L156,79 Z" id="Neck-Shadow" fill-opacity="0.100000001" fill="#000000" mask="url(#react-mask-6)"></path></g><g id="Clothing/Collar-+-Sweater" transform="translate(0.000000, 170.000000)"><defs><path d="M105.192402,29.0517235 L104,29.0517235 L104,29.0517235 C64.235498,29.0517235 32,61.2872215 32,101.051724 L32,110 L232,110 L232,101.051724 C232,61.2872215 199.764502,29.0517235 160,29.0517235 L160,29.0517235 L158.807598,29.0517235 C158.934638,30.0353144 159,31.0364513 159,32.0517235 C159,45.8588423 146.911688,57.0517235 132,57.0517235 C117.088312,57.0517235 105,45.8588423 105,32.0517235 C105,31.0364513 105.065362,30.0353144 105.192402,29.0517235 Z" id="react-path-2167"></path></defs><mask id="react-mask-2168" fill="white"><use xlink:href="#react-path-2167"></use></mask><use id="Clothes" fill="#E6E6E6" fill-rule="evenodd" xlink:href="#react-path-2167"></use><g id="Color/Palette/Gray-01" mask="url(#react-mask-2168)" fill-rule="evenodd" fill="#FF5C5C"><rect id="🖍Color" x="0" y="0" width="264" height="110"></rect></g><path d="M156,22.2794906 C162.181647,26.8351858 166,33.1057265 166,40.027915 C166,47.2334941 161.862605,53.7329769 155.228997,58.3271669 L149.57933,53.8764929 L145,54.207887 L146,51.0567821 L145.922229,50.995516 C152.022491,47.8530505 156,42.7003578 156,36.8768102 L156,22.2794906 Z M108,21.5714994 C101.232748,26.1740081 97,32.7397769 97,40.027915 C97,47.4261549 101.361602,54.080035 108.308428,58.6915723 L114.42067,53.8764929 L119,54.207887 L118,51.0567821 L118.077771,50.995516 C111.977509,47.8530505 108,42.7003578 108,36.8768102 L108,21.5714994 Z" id="Collar" fill="#F2F2F2" fill-rule="evenodd"></path></g><g id="Face" transform="translate(76.000000, 82.000000)" fill="#000000"><g id="Mouth/Eating" transform="translate(2.000000, 52.000000)"><g id="Om-Nom-Nom" opacity="0.599999964" stroke-width="1" transform="translate(28.000000, 6.000000)" fill-opacity="0.599999964" fill="#000000"><path d="M16.1906378,10.106319 C16.0179484,4.99553347 11.7923466,0.797193688 6.29352385,0 C9.66004124,1.95870633 11.9804619,5.49520667 11.9804619,9.67694348 C11.9804619,15.344608 6.50694731,20.2451296 0.176591694,20.2451296 C0.11761218,20.2451296 0.0587475828,20.2447983 0,20.244138 L8.8963743e-11,20.244138 C1.35764479,20.7317259 2.83995964,21 4.39225962,21 C9.71395931,21 14.2131224,17.8469699 15.6863572,13.5136402 C18.1609431,15.6698775 21.8629994,17.0394229 26,17.0394229 C30.1370006,17.0394229 33.8390569,15.6698775 36.3136428,13.5136402 C37.7868776,17.8469699 42.2860407,21 47.6077404,21 C49.1600404,21 50.6423552,20.7317259 52,20.244138 L52,20.244138 C51.9412524,20.2447983 51.8823878,20.2451296 51.8234083,20.2451296 C45.4930527,20.2451296 40.0195381,15.344608 40.0195381,9.67694348 C40.0195381,5.49520667 42.3399588,1.95870633 45.7064761,0 C40.2076534,0.797193688 35.9820516,4.99553347 35.8093622,10.106319 C33.2452605,11.8422828 29.7948543,12.9056086 26,12.9056086 C22.2051457,12.9056086 18.7547395,11.8422828 16.1906378,10.106319 Z" id="Delicious"></path></g><circle id="Redish" fill-opacity="0.2" fill="#FF4646" cx="17" cy="15" r="9"></circle><circle id="Redish" fill-opacity="0.2" fill="#FF4646" cx="91" cy="15" r="9"></circle></g><g id="Nose/Default" transform="translate(28.000000, 40.000000)" fill-opacity="0.16"><path d="M16,8 C16,12.418278 21.372583,16 28,16 L28,16 C34.627417,16 40,12.418278 40,8" id="Nose"></path></g><g id="Eyes/Surprised-😳" transform="translate(0.000000, 8.000000)"><circle id="The-White-Stuff" fill="#FFFFFF" cx="30" cy="22" r="14"></circle><circle id="Eye-Ball" fill="#FFFFFF" cx="82" cy="22" r="14"></circle><circle id="Eye" fill-opacity="0.699999988" fill="#000000" cx="30" cy="22" r="6"></circle><circle id="Eye" fill-opacity="0.699999988" fill="#000000" cx="82" cy="22" r="6"></circle></g><g id="Eyebrow/Natural/Default-Natural" fill-opacity="0.599999964"><path d="M26.0390934,6.21012364 C20.2775554,6.98346216 11.2929313,12.0052479 12.04426,17.8178111 C12.0689481,18.0080543 12.3567302,18.0673468 12.4809077,17.9084937 C14.9674041,14.7203351 34.1927973,10.0365481 41.1942673,11.0147151 C41.8350523,11.1044465 42.2580662,10.4430343 41.8210501,10.0302067 C38.0765663,6.49485426 31.2003792,5.51224825 26.0390934,6.21012364" id="Eyebrow" transform="translate(27.000000, 12.000000) rotate(5.000000) translate(-27.000000, -12.000000) "></path><path d="M85.0390934,6.21012364 C79.2775554,6.98346216 70.2929313,12.0052479 71.04426,17.8178111 C71.0689481,18.0080543 71.3567302,18.0673468 71.4809077,17.9084937 C73.9674041,14.7203351 93.1927973,10.0365481 100.194267,11.0147151 C100.835052,11.1044465 101.258066,10.4430343 100.82105,10.0302067 C97.0765663,6.49485426 90.2003792,5.51224825 85.0390934,6.21012364" id="Eyebrow" transform="translate(86.000000, 12.000000) scale(-1, 1) rotate(5.000000) translate(-86.000000, -12.000000) "></path></g></g><g id="Top" stroke-width="1" fill-rule="evenodd"><defs><rect id="react-path-2170" x="0" y="0" width="264" height="280"></rect></defs><mask id="react-mask-2169" fill="white"><use xlink:href="#react-path-2170"></use></mask><g id="Mask"></g><g id="Top/Accesories/Eyepatch" mask="url(#react-mask-2169)"><g transform="translate(-1.000000, 0.000000)"><g id="Facial-Hair/Moustache-Magnum" transform="translate(49.000000, 72.000000)"><defs><path d="M83.9980103,74.839711 C83.4569991,75.6087366 82.761047,76.2496937 81.949688,76.6891498 C73.0477917,81.5102869 63.8767499,77.3322546 58.8763101,77.6298353 C56.459601,77.7739966 53.3405442,79.4153191 52.2155358,77.6791014 C50.9768736,75.7669804 55.0680827,65.2207224 64.7214121,63.4643353 C71.7310704,62.1893309 81.4972391,63.6024033 83.9980103,66.9380109 C86.4987814,63.6024033 96.2649453,62.1893309 103.274279,63.4643353 C112.927938,65.2207224 117.019147,75.7669804 115.780485,77.6791014 C114.655476,79.4153191 111.53642,77.7739966 109.119711,77.6298353 C104.118941,77.3322546 94.948229,81.5102869 86.0463327,76.6891498 C85.2349736,76.2496937 84.5390216,75.6087366 83.9980103,74.839711 Z" id="react-path-2172"></path></defs><mask id="react-mask-2171" fill="white"><use xlink:href="#react-path-2172"></use></mask><use id="Hey..." fill="#28354B" fill-rule="evenodd" xlink:href="#react-path-2172"></use><g id="Color/Hair/Brown" mask="url(#react-mask-2171)" fill="#2C1B18"><g transform="translate(-32.000000, 0.000000)" id="Color"><rect x="0" y="0" width="264" height="244"></rect></g></g></g><path d="M160.395307,39.7810237 C157.318088,36.6927979 154.11865,43.6386608 152.623361,45.4281124 C149.013122,49.7486528 145.540256,54.182935 141.868413,58.4518947 C134.616309,66.8823544 127.439316,75.3743141 120.233991,83.8401528 C119.140279,85.1257012 119.27271,85.2649028 117.837048,85.3885641 C116.88598,85.4708947 115.563312,84.9802173 114.5737,84.9256608 C111.823607,84.774556 109.112057,85.2348141 106.435756,85.8227012 C101.091389,86.9961608 95.4264863,88.9291124 90.7890799,91.898306 C89.5718308,92.677306 88.7874545,93.5971608 87.4670933,93.841177 C86.3183659,94.0534512 84.794416,93.6295641 83.622299,93.5194592 C81.5412806,93.3237173 78.5378542,92.4726366 76.4953793,92.9137173 C73.9027538,93.4738302 72.9174244,96.6109915 75.5604528,98.0003624 C77.570314,99.0564431 81.5706,98.4761608 83.8235816,98.6447899 C86.3971,98.8372253 85.6120649,98.704306 85.2473843,101.164306 C84.7239177,104.69758 85.5985582,108.646475 87.0885766,111.878201 C90.5482655,119.383185 100.122861,127.335201 108.8551,126.603153 C116.142123,125.992451 122.526834,119.413274 125.519389,113.099935 C127.050916,109.868871 127.954546,106.192096 128.250376,102.628403 C128.438811,100.36183 128.333722,97.9580399 127.684083,95.7632173 C127.362888,94.6783705 126.853916,93.5554995 126.308378,92.5695157 C125.866281,91.7710076 123.908799,89.9203866 123.788886,89.1165882 C123.556307,87.5602415 127.973324,83.3874995 128.816339,82.3443141 C132.788953,77.4276205 136.780344,72.5320882 140.721662,67.5889431 C144.603353,62.7201931 148.506456,57.8640076 152.489612,53.0785802 C154.294237,50.9098786 163.318023,42.7148382 160.395307,39.7810237" id="Badass-Eyepatch" fill="#28354B" fill-rule="evenodd"></path></g></g></g></g></g></g></g></svg>