<svg version="1.1" xmlns="http://www.w3.org/2000/svg" style="display: block;" viewBox="0 0 2048 2048" width="1024" height="1024" preserveAspectRatio="none">
<path transform="translate(0,0)" fill="rgb(254,113,65)" d="M 870.871 459.11 C 871.141 446.364 875.171 434.233 884.499 425.069 C 902.17 407.708 919.774 410.099 942.41 410.317 C 957.986 410.486 973.563 410.572 989.141 410.574 L 1149.19 410.411 L 1412.19 410.467 L 1492.72 410.645 C 1539.95 410.631 1578.52 405.349 1612.89 445.56 C 1639.9 477.152 1637.05 503.756 1637 542.558 L 1636.92 616.588 L 1636.86 689.992 C 1636.87 700.882 1637.51 717.345 1636.83 727.503 C 1635.26 750.924 1619.04 779.319 1601.31 794.526 C 1588.69 805.422 1573.55 812.999 1557.26 816.573 C 1544.92 819.228 1532.71 818.298 1520.21 818.449 C 1474.5 819.001 1427.97 817.045 1382.33 818.895 C 1382.6 843.39 1390.9 879.275 1395.1 904.137 C 1410.63 996.076 1424.46 1088.35 1441.97 1179.94 C 1442.86 1184.63 1449.93 1226.61 1449.58 1229.77 C 1452.3 1246.56 1454.85 1264.04 1457.89 1280.72 C 1462.71 1280.7 1469.12 1281 1473.73 1280.66 C 1548.38 1275.26 1533.12 1329.91 1534.96 1382.23 L 1534.81 1531.32 C 1534.85 1554.34 1537.39 1588.64 1531.69 1611.05 C 1529.12 1621.15 1508.86 1637.28 1497.5 1637.73 C 1480.78 1638.38 1462.76 1638.14 1445.46 1638.12 L 1337.06 1638.02 L 955.05 1637.97 C 932.045 1624.05 921.503 1616.35 922.114 1587.71 C 922.505 1569.36 922.204 1549.59 922.27 1531.13 L 922.426 1382.21 C 922.569 1377.92 922.72 1372.79 923.27 1368.58 C 929.015 1325.64 961.584 1291.19 1004.13 1283.05 C 1019.79 1280.19 1054.21 1280.62 1070.54 1280.63 L 1149.05 1280.75 C 1153.42 1280.76 1169.71 1281.55 1172.23 1279.63 C 1174.1 1273.46 1146.35 1121.63 1142.78 1099.63 L 1130.22 1025.87 C 1127.77 1010.67 1124.89 986.774 1120.87 972.467 C 1062.61 969.928 999.184 990.398 1023.94 915.082 C 1033.12 887.158 1012.8 844.618 998.734 819.423 C 956.186 814.396 883.072 836.349 872.792 779.107 C 872.087 775.18 871.348 771.237 870.658 767.307 C 869.633 757.358 870.161 738.555 870.177 727.908 L 870.295 655.155 C 870.319 591.992 868.535 521.404 870.871 459.11 z"/>
<path transform="translate(0,0)" fill="rgb(186,185,184)" d="M 922.426 1382.21 C 1023.48 1383.66 1127.55 1382.52 1228.8 1382.41 L 1534.96 1382.23 L 1534.81 1531.32 C 1534.85 1554.34 1537.39 1588.64 1531.69 1611.05 C 1529.12 1621.15 1508.86 1637.28 1497.5 1637.73 C 1480.78 1638.38 1462.76 1638.14 1445.46 1638.12 L 1337.06 1638.02 L 955.05 1637.97 C 932.045 1624.05 921.503 1616.35 922.114 1587.71 C 922.505 1569.36 922.204 1549.59 922.27 1531.13 L 922.426 1382.21 z"/>
<path transform="translate(0,0)" fill="rgb(73,72,72)" d="M 1272.23 819.004 L 1382.33 818.895 C 1382.6 843.39 1390.9 879.275 1395.1 904.137 C 1410.63 996.076 1424.46 1088.35 1441.97 1179.94 C 1442.86 1184.63 1449.93 1226.61 1449.58 1229.77 C 1444.41 1226.75 1391.17 1230.86 1378.68 1228.02 C 1333.26 1217.67 1332.69 1184.4 1326.18 1144.3 L 1313.66 1067.61 C 1300.07 986.045 1284.22 900.49 1272.23 819.004 z"/>
<path transform="translate(0,0)" fill="rgb(73,72,72)" d="M 1094.51 819.004 C 1100.32 855.219 1106.34 891.402 1112.55 927.552 C 1113.98 935.968 1118.5 966.136 1120.87 972.467 C 1062.61 969.928 999.184 990.398 1023.94 915.082 C 1033.12 887.158 1012.8 844.618 998.734 819.423 C 1030.66 819.062 1062.58 818.922 1094.51 819.004 z"/>
<path transform="translate(0,0)" fill="rgb(99,98,98)" d="M 870.871 459.11 C 868.535 521.404 870.319 591.992 870.295 655.155 L 870.177 727.908 C 870.161 738.555 869.633 757.358 870.658 767.307 C 833.983 766.14 797.185 767.071 760.108 767.029 C 740.522 767.006 722.933 763.653 718.047 739.717 C 716.735 733.287 717.246 723.342 717.068 716.597 C 665.394 715.797 613.977 716.757 562.42 715.926 C 547.832 704.025 528.498 690.844 514.275 679.181 C 510.712 676.259 512.09 646.397 512.186 639.146 C 511.934 623.084 511.612 605.2 512.184 589.258 C 513.5 586.024 513.255 553.93 513.286 548.133 C 515.3 546.128 517.411 544.319 519.703 542.636 C 529.766 535.242 553.805 515.963 564.623 512.853 C 571.84 510.778 704.935 509.983 717.298 511.867 C 718.437 499.625 715.708 485.515 723.311 475.73 C 728.231 469.507 734.963 464.967 742.576 462.738 C 750.142 460.594 765.664 461.05 774.005 461.037 L 835.509 461.214 C 843.328 461.26 863.202 461.719 869.928 460.799 L 870.871 459.11 z"/>
<path transform="translate(0,0)" fill="rgb(73,72,72)" d="M 513.286 548.133 C 515.3 546.128 517.411 544.319 519.703 542.636 C 529.766 535.242 553.805 515.963 564.623 512.853 C 571.84 510.778 704.935 509.983 717.298 511.867 C 716.401 522.604 716.842 536.947 716.87 547.943 L 716.936 606.59 C 716.939 638.634 715.301 685.956 717.068 716.597 C 665.394 715.797 613.977 716.757 562.42 715.926 C 547.832 704.025 528.498 690.844 514.275 679.181 C 510.712 676.259 512.09 646.397 512.186 639.146 C 511.934 623.084 511.612 605.2 512.184 589.258 C 513.5 586.024 513.255 553.93 513.286 548.133 z"/>
<path transform="translate(0,0)" fill="rgb(99,98,98)" d="M 426.377 590.246 C 446.305 587.786 490.283 589.493 512.184 589.258 C 511.612 605.2 511.934 623.084 512.186 639.146 L 462.461 639.132 C 447.316 639.128 425.982 642.044 415.378 629.281 C 410.494 623.404 410.348 616.001 411.186 608.726 C 412.216 599.78 419.817 595.238 426.377 590.246 z"/>
</svg>