<svg version="1.1" xmlns="http://www.w3.org/2000/svg" style="display: block;" viewBox="0 0 2048 2048" width="1024" height="1024" preserveAspectRatio="none">
<path transform="translate(0,0)" fill="rgb(237,101,37)" d="M 760.447 1387.07 L 534.589 1387.01 L 475.636 1387.15 C 456.649 1387.2 437.398 1390.4 422.73 1375.89 C 408.619 1361.94 409.724 1350.06 409.712 1331.97 L 409.707 751.08 L 409.378 575.999 C 409.342 547.865 408.826 518.928 409.961 490.785 C 410.583 475.361 426.053 456.233 442.054 455.105 C 460.609 453.797 480.981 454.45 499.944 454.475 L 609.187 454.44 L 831.749 454.583 C 872.968 454.581 914.268 454.432 955.496 454.591 C 967.212 454.636 974.883 458.823 982.912 467.011 C 990.574 474.825 993.208 483.433 993.717 494.162 C 994.439 509.409 994.104 525.25 994.048 540.586 L 994.058 617.485 L 994.061 880.295 L 994.02 1195.68 L 994.086 1287.68 C 994.189 1306.34 994.403 1325.09 994.174 1343.68 C 993.945 1362.24 983.644 1379.86 965.16 1385.07 C 954.441 1388.09 940.748 1387.24 929.528 1387.15 C 929.544 1391.84 929.898 1397.27 929.591 1401.87 C 928.448 1419.04 935.891 1439.67 915.721 1447.23 C 909.056 1446.51 899.724 1446.78 893.048 1447.01 C 872.672 1440.29 879.902 1406.49 879.006 1387.11 L 811.234 1387.18 C 811.158 1396.79 811.278 1406.45 811.448 1416.06 C 811.723 1431.67 813.076 1440.6 796.944 1446.61 C 791.46 1446.72 780.048 1446.54 774.974 1447 C 754.37 1441.54 761.006 1419.89 760.155 1403.48 C 759.887 1398.31 760.35 1392.32 760.447 1387.07 z"/>
<path transform="translate(0,0)" fill="rgb(224,36,42)" d="M 759.947 1346.84 C 755.44 1341.55 751.558 1337.23 748.848 1330.73 C 736.797 1301.79 759.992 1269.98 791.392 1274.29 C 802.104 1275.82 811.746 1281.61 818.142 1290.34 C 832.879 1310.3 825.511 1330.28 811.417 1347.46 C 811.617 1356.22 812.231 1379.19 811.234 1387.18 C 811.158 1396.79 811.278 1406.45 811.448 1416.06 C 811.723 1431.67 813.076 1440.6 796.944 1446.61 C 791.46 1446.72 780.048 1446.54 774.974 1447 C 754.37 1441.54 761.006 1419.89 760.155 1403.48 C 759.887 1398.31 760.35 1392.32 760.447 1387.07 C 760.122 1373.66 759.955 1360.25 759.947 1346.84 z"/>
<path transform="translate(0,0)" fill="rgb(31,31,30)" d="M 878.99 1347.42 C 869.496 1336.56 863.277 1327.67 863.808 1312.42 C 865.068 1276.21 913.534 1260.03 935.601 1288.82 C 950.828 1308.69 945.452 1330.52 929.543 1347.36 C 929.382 1360.62 929.377 1373.89 929.528 1387.15 C 929.544 1391.84 929.898 1397.27 929.591 1401.87 C 928.448 1419.04 935.891 1439.67 915.721 1447.23 C 909.056 1446.51 899.724 1446.78 893.048 1447.01 C 872.672 1440.29 879.902 1406.49 879.006 1387.11 L 878.99 1347.42 z"/>
<path transform="translate(0,0)" fill="rgb(252,193,27)" d="M 496.018 521.159 C 516.683 520.864 537.624 520.832 558.291 521 C 675.258 521.951 792.621 519.645 909.546 521.176 C 916.523 525.284 917.727 527.021 921.798 534.063 C 923.769 582.349 922.131 641.152 922.176 690.328 L 922.231 760.303 C 922.237 771.247 924.069 794.95 919.165 805.061 C 917.149 809.218 910.943 811.773 906.362 812.679 C 831.387 814.163 752.623 812.944 677.369 812.944 L 566.806 812.971 C 546.539 812.988 526.198 813.1 505.997 812.835 C 497.377 812.721 489.152 812.226 484.313 804.374 C 482.398 801.268 481.335 792.283 481.34 788.473 C 481.436 719.579 481.901 650.686 481.41 581.792 C 481.321 569.311 481.306 556.767 481.596 544.29 C 481.979 531.493 483.256 525.449 496.018 521.159 z"/>
<path transform="translate(0,0)" fill="rgb(237,101,37)" d="M 727.714 547.84 C 727.801 555.162 722.967 574.011 721.308 581.754 C 716.724 603.149 711.057 624.299 707.401 645.944 L 775.28 645.651 C 769.946 654.794 752.978 677.578 746 687.632 C 722.981 720.963 699.766 754.159 676.357 787.217 C 675.636 777.821 694.505 702.79 697.654 689.092 L 629.128 689.062 C 639.243 672.962 653.211 653.791 664.16 638 C 684.943 607.665 706.13 577.61 727.714 547.84 z"/>
<path transform="translate(0,0)" fill="rgb(252,193,27)" d="M 685.223 921.54 C 769.491 912.341 845.258 973.208 854.438 1057.48 C 863.618 1141.75 802.735 1217.5 718.462 1226.66 C 634.216 1235.82 558.491 1174.96 549.314 1090.72 C 540.136 1006.47 600.98 930.736 685.223 921.54 z"/>
<path transform="translate(0,0)" fill="rgb(31,31,30)" d="M 687.203 946.553 C 757.727 938.397 821.492 988.999 829.57 1059.53 C 837.649 1130.06 786.976 1193.77 716.435 1201.77 C 646.004 1209.76 582.415 1159.19 574.349 1088.76 C 566.283 1018.34 616.79 954.696 687.203 946.553 z"/>
<path transform="translate(0,0)" fill="rgb(252,193,27)" d="M 638.745 986.142 C 662.716 984.557 671.586 998.935 687.2 1014.57 L 724.222 1051.7 C 743.864 1071.36 764.063 1090.27 782.633 1110.99 C 800.601 1131.05 784.83 1161.93 759.511 1163.21 C 742.857 1164.05 725.589 1142.62 714.446 1131.32 C 683.196 1098.93 649.404 1067.58 618.851 1034.5 C 614.03 1029.28 611.787 1011.02 616.648 1005.86 C 629.449 1005.49 663.692 1064.44 673.442 1039.11 C 673.146 1025.18 638.468 1002.14 631.662 989.582 C 633.392 987.208 635.285 987.309 638.745 986.142 z"/>
<path transform="translate(0,0)" fill="rgb(252,193,27)" d="M 877.277 852.464 C 886.844 852.594 910.549 849.886 917.587 855.866 C 925.002 862.167 926.285 895.702 913.366 898.616 C 902.592 901.045 888.097 899.758 876.5 899.651 C 869.403 899.515 837.912 902.353 833.857 895.903 C 825.384 882.429 824.844 846.721 850.242 852.285 C 855.015 853.331 871.013 852.582 877.277 852.464 z"/>
<path transform="translate(0,0)" fill="rgb(252,193,27)" d="M 503.248 852.479 C 515.136 852.424 562.808 850.443 570.642 855.554 C 576.459 863.692 576.551 888.485 570.054 896.701 C 567.564 899.848 556.684 899.459 552.447 899.584 C 541.59 899.392 494.364 900.861 487.572 897.855 C 479.65 888.663 477.138 865.219 486.415 856.087 C 490.993 851.58 497.256 852.466 503.248 852.479 z"/>
<path transform="translate(0,0)" fill="rgb(252,193,27)" d="M 476.979 1299.34 C 493.551 1299.06 513.031 1297.69 529.093 1300.69 C 547.655 1304.16 543.545 1325.24 528.185 1330.09 C 510.993 1330.24 451.628 1337.64 463.448 1309.07 C 466.257 1302.28 470.337 1300.64 476.979 1299.34 z"/>
<path transform="translate(0,0)" fill="rgb(252,193,27)" d="M 597.568 1299.41 C 606.235 1299.26 615.083 1299.37 624.264 1299.04 C 639.114 1298.52 671.56 1297.41 660.17 1322.21 C 657.974 1326.99 654.767 1328.4 649.811 1329.95 C 637.543 1330.13 603.023 1332.48 591.613 1327.61 C 579.733 1322.54 580.862 1303.45 597.568 1299.41 z"/>
<path transform="translate(0,0)" fill="rgb(237,101,37)" d="M 1395.03 994.034 C 1423.97 973.773 1444.75 951.776 1459.63 998.911 C 1455.73 1007.96 1452.06 1016.53 1456.26 1026.36 C 1465.08 1046.99 1489.99 1049.17 1502.49 1062.72 C 1506.54 1067.12 1517.83 1086.36 1521.81 1092.87 C 1531.65 1108.93 1541.58 1124.93 1551.6 1140.87 L 1604.5 1225.38 C 1624.68 1257.71 1648.83 1285.1 1634.27 1325.76 C 1627.37 1344.87 1613.16 1360.46 1594.78 1369.11 C 1567.39 1382.04 1529.46 1376.64 1510.1 1352.74 C 1498.77 1338.74 1487.77 1319.55 1478.18 1304.1 L 1429.9 1226.45 L 1395.6 1171.12 C 1392.19 1165.63 1380.5 1147.66 1378.37 1142.54 C 1370.16 1122.84 1384.54 1091.7 1356.7 1078.52 C 1352.7 1076.63 1342.04 1076.02 1337.27 1075.61 C 1300.33 1033.12 1332.84 1037.66 1361.98 1014.26 C 1366.87 1012 1388.74 997.857 1395.03 994.034 z"/>
<path transform="translate(0,0)" fill="rgb(252,193,27)" d="M 1416.86 1128.15 C 1425.1 1127.69 1428.22 1127.84 1433.24 1135.32 C 1439.23 1144.24 1444.73 1153.54 1450.37 1162.68 C 1460.35 1178.85 1470.41 1194.97 1480.55 1211.03 L 1519.05 1273.09 C 1527.77 1287.01 1536.69 1300.79 1544.83 1315.06 C 1550.18 1324.44 1544.67 1329.85 1536.85 1334.61 C 1530.51 1335.4 1525.94 1334.85 1521.98 1329.08 C 1515.88 1320.19 1510.26 1310.82 1504.54 1301.67 L 1469.56 1245.34 L 1434.23 1188.31 C 1425.73 1174.76 1417.07 1161.39 1409.35 1147.38 C 1404.24 1138.1 1409.12 1133.1 1416.86 1128.15 z"/>
<path transform="translate(0,0)" fill="rgb(252,193,27)" d="M 1481.14 1088.88 C 1486.73 1089 1491.58 1089.51 1494.94 1094.56 C 1505.95 1111.04 1516.14 1128.48 1526.63 1145.3 L 1601.47 1265.22 C 1609.49 1277.93 1615.49 1286.68 1599.08 1296.07 C 1592.81 1296.16 1588.78 1295.35 1584.93 1289.89 C 1578.75 1281.1 1573.19 1271.83 1567.49 1262.73 C 1555.81 1244.18 1544.24 1225.55 1532.8 1206.84 C 1513.57 1175.51 1493.66 1144.57 1474.63 1113.12 C 1467.62 1101.54 1469.54 1095.1 1481.14 1088.88 z"/>
<path transform="translate(0,0)" fill="rgb(237,101,37)" d="M 1355.39 768.615 C 1365.32 761.153 1370.19 755.369 1372.35 742.396 C 1374.17 731.488 1371.59 716.559 1376.26 706.462 C 1381.56 694.982 1389.88 682.716 1396.67 671.946 L 1433 614.582 C 1453.61 582.043 1473.23 548.83 1494.44 516.706 C 1498.1 511.169 1504.15 504.749 1509.38 501.036 C 1561.3 464.186 1633.75 507.939 1621.55 571.912 C 1620.1 579.466 1617.64 584.73 1613.97 591.485 C 1596.57 621.499 1577.07 650.591 1558.82 680.142 C 1538.71 712.708 1518.67 745.361 1498.22 777.708 C 1496.46 780.495 1492.83 784.57 1490.03 786.31 C 1473.56 796.501 1455.08 799.425 1449.47 821.338 C 1447.41 829.367 1451.73 838.038 1454.92 845.517 C 1433.99 891.388 1426.41 871.011 1391.18 850.707 L 1360.56 830.739 C 1348.81 823.454 1326.1 811.135 1318.8 800.75 C 1322.94 790.565 1328.35 779.094 1336.21 771.195 C 1342.47 770.37 1349.19 769.605 1355.39 768.615 z"/>
<path transform="translate(0,0)" fill="rgb(252,193,27)" d="M 1577.12 564.89 C 1578.61 564.776 1580.07 564.69 1581.56 564.874 C 1585.38 565.344 1589.35 567.284 1591.65 570.447 C 1593.6 573.143 1594.22 576.765 1593.66 580.017 C 1592.59 586.169 1501.79 731.639 1489.91 748.238 C 1487.72 751.295 1485.17 753.344 1482.04 755.369 C 1481.76 755.382 1481.49 755.407 1481.22 755.407 C 1476.05 755.422 1471.63 753.895 1468.05 750.017 C 1465.98 747.762 1464.58 744.321 1465.08 741.214 C 1466.32 733.54 1558.78 586.552 1569.15 572.371 C 1571.48 569.189 1573.82 567.033 1577.12 564.89 z"/>
<path transform="translate(0,0)" fill="rgb(252,193,27)" d="M 1516.99 526.933 C 1517.4 526.912 1517.82 526.876 1518.23 526.872 C 1523.49 526.812 1528.39 528.412 1532 532.42 C 1534.1 534.754 1535.31 538.11 1534.84 541.268 C 1533.8 548.317 1441.84 694.395 1430.09 711.209 C 1428.12 714.034 1426.4 715.86 1423.51 717.735 C 1414.78 717.449 1400.56 714.871 1406.25 702.129 C 1411.38 690.629 1419.6 678.598 1426.34 667.816 L 1455.78 620.883 C 1465.23 605.814 1506.38 535.888 1516.99 526.933 z"/>
<path transform="translate(0,0)" fill="rgb(31,31,30)" d="M 1100.27 519.045 C 1108.73 526.096 1118.29 536.617 1126.59 544.422 C 1135.72 553.002 1145.61 561.788 1154.24 570.738 C 1157.87 587.96 1167.04 621.7 1173.57 637.721 C 1175.86 643.352 1195.32 672.348 1199.52 679.292 C 1223.52 719.817 1248.23 759.922 1273.63 799.587 C 1297.03 836.953 1320.21 874.454 1343.18 912.088 C 1359.4 938.591 1377.33 968.701 1395.03 994.034 C 1388.74 997.857 1366.87 1012 1361.98 1014.26 C 1319.24 943.016 1273.27 870.711 1229.43 799.95 L 1176.47 714.399 C 1165.95 697.276 1155.05 679.396 1144.41 662.509 C 1133.63 645.413 1095.09 621.148 1089.04 609.281 C 1083.4 598.228 1070.55 554.131 1066.21 539.914 C 1077.68 532.393 1088.43 525.984 1100.27 519.045 z"/>
<path transform="translate(0,0)" fill="rgb(224,36,42)" d="M 997.248 1469.09 C 1001.22 1461.6 1007.71 1452.57 1016.32 1450.85 C 1031.93 1447.74 1054.16 1448.98 1070.42 1448.99 L 1174.24 1449.04 C 1189.99 1449.06 1206.42 1449.27 1222.27 1449.27 C 1234.55 1449.27 1227.01 1439.27 1235.06 1436.9 C 1251.94 1431.94 1251.89 1446.66 1252.62 1456.53 C 1272.35 1455.87 1308.5 1455.41 1327.8 1456.59 L 1328.21 1469.14 C 1343.88 1469.09 1359.8 1468.89 1375.46 1468.98 C 1399.98 1469.12 1409.79 1465.52 1430.88 1480.54 C 1428.36 1482.06 1419.08 1487.74 1416.94 1488.13 C 1392.13 1492.73 1353.74 1490.95 1328.19 1490.89 L 1327.79 1503.27 C 1308.53 1504.27 1271.79 1504.47 1252.57 1503.25 C 1252.53 1509.87 1253.25 1515.51 1247.99 1520.37 C 1238.78 1528.87 1228.12 1523.86 1228.56 1511.16 L 1087.94 1511.27 C 1065.36 1511.31 1042.66 1512.09 1020.16 1510.73 C 1005.7 1509.86 1003.65 1496.18 996.999 1490.82 C 997.373 1489.21 996.865 1474.15 997.248 1469.09 z"/>
<path transform="translate(0,0)" fill="rgb(31,31,30)" d="M 998.284 1565.01 C 1006.25 1547.83 1013.2 1546.09 1030.02 1545.18 C 1052.23 1543.98 1221.61 1547.73 1227.05 1543.99 C 1229.05 1540.11 1231.49 1533.14 1236.04 1532.29 C 1250.88 1529.53 1252.28 1541.06 1252.12 1552.09 C 1276.52 1552.07 1303.49 1551.5 1327.68 1552.21 L 1328.02 1564.99 L 1413.31 1565.05 L 1430.72 1575.63 C 1424.78 1580.19 1419.75 1582.94 1413.23 1586.67 C 1391.04 1586.21 1349.57 1585.13 1328.35 1587.15 L 1327.87 1599.35 L 1251.82 1599.77 C 1252.02 1609.93 1253.2 1620.84 1237.99 1619.94 C 1230.02 1619.47 1230.81 1608.37 1226.25 1607.7 C 1213.26 1605.8 1199.03 1606.6 1185.8 1606.7 L 1082.48 1607.05 C 1071.54 1607.1 1060.35 1607.53 1049.43 1607.23 C 1025.74 1606.58 1010.34 1612 998.464 1587.12 C 996.067 1580.47 996.515 1571.78 998.284 1565.01 z"/>
<path transform="translate(0,0)" fill="rgb(31,31,30)" d="M 1289.32 943.813 C 1294.73 949.986 1305.67 967.731 1312.13 976.245 L 1216.43 1129.49 C 1199.85 1156.05 1182.64 1182.97 1166.45 1209.78 C 1158.48 1222.98 1151.71 1269.85 1144.05 1279.81 C 1133.44 1293.6 1104.84 1319.83 1091.46 1332.75 L 1082.72 1327.93 C 1074.01 1322.62 1065.62 1317.65 1057.35 1311.63 C 1063.76 1289.41 1074.43 1261.13 1082.19 1238.69 C 1097.66 1226.29 1117.89 1209.26 1131.87 1195.2 C 1135.13 1191.91 1147.04 1172.26 1149.96 1167.55 L 1178.46 1121.42 L 1246.88 1011.97 C 1260.55 990.011 1275.1 965.091 1289.32 943.813 z"/>
<path transform="translate(0,0)" fill="rgb(237,101,37)" d="M 774.974 1447 C 780.048 1446.54 791.46 1446.72 796.944 1446.61 C 797.074 1465.01 797.077 1483.41 796.954 1501.8 C 796.905 1518.14 793.852 1544.27 806.673 1556.36 C 810.661 1560.13 815.734 1563.2 821.229 1564.08 C 879.621 1566.59 939.944 1564.28 998.284 1565.01 C 996.515 1571.78 996.067 1580.47 998.464 1587.12 L 882.219 1587.11 C 863.944 1587.16 830.116 1589.37 814.238 1585.41 C 769.981 1574.37 773.778 1527.68 774.858 1492.53 C 775.358 1476.28 774.923 1461.8 774.974 1447 z"/>
<path transform="translate(0,0)" fill="rgb(237,101,37)" d="M 893.048 1447.01 C 899.724 1446.78 909.056 1446.51 915.721 1447.23 C 916.873 1454.05 917.94 1459.44 923.791 1463.83 C 936.051 1473.03 980.078 1468.83 997.248 1469.09 C 996.865 1474.15 997.373 1489.21 996.999 1490.82 C 976.315 1491.48 948.171 1492.33 927.669 1490.04 C 905.356 1487.54 896.497 1467.38 893.048 1447.01 z"/>
<path transform="translate(0,0)" fill="rgb(31,31,30)" d="M 1360.56 830.739 L 1391.18 850.707 C 1381.65 866.211 1372.25 881.793 1362.98 897.45 C 1357.05 890.062 1346.19 871.687 1340.46 862.765 C 1347.53 852.214 1354.7 842.015 1360.56 830.739 z"/>
</svg>