<svg version="1.1" xmlns="http://www.w3.org/2000/svg" style="display: block;" viewBox="0 0 2048 2048" width="1024" height="1024" preserveAspectRatio="none">
<path transform="translate(0,0)" fill="rgb(66,88,104)" d="M 1152.89 969.739 C 1169.11 983.764 1186.95 1002.52 1202.53 1017.8 L 1276.43 1089.51 L 1479.6 1287.12 C 1510.08 1316.78 1540.72 1346.28 1571.53 1375.59 C 1604.23 1407.24 1634.28 1431.3 1637.83 1480.39 C 1640.19 1513 1630.35 1543.32 1608.88 1568 C 1588.62 1591.39 1559.87 1605.73 1529 1607.85 C 1463.79 1612.16 1437.88 1575.97 1398.77 1533.14 L 1323.7 1451.23 L 1119.99 1228.03 C 1086.23 1190.87 1047.38 1145.77 1012.92 1110.17 C 1018.44 1102.65 1043.06 1079.22 1050.3 1072.1 L 1115.06 1007.47 C 1127.5 994.726 1140.11 982.148 1152.89 969.739 z"/>
<path transform="translate(0,0)" fill="rgb(46,73,88)" d="M 1115.06 1007.47 C 1124.14 1017.92 1140.51 1033.07 1150.75 1043.04 L 1229.56 1119.06 L 1491.28 1373.9 C 1444.72 1389.22 1419.36 1413.16 1404.6 1460.32 C 1389.77 1442.08 1369.63 1421.8 1353.6 1404.11 L 1227.88 1266.46 L 1112.7 1139.83 L 1071.96 1095.08 C 1066.02 1088.62 1056.44 1077.7 1050.3 1072.1 L 1115.06 1007.47 z"/>
<path transform="translate(0,0)" fill="rgb(218,218,220)" d="M 1510.27 1427.45 C 1544.67 1422.19 1576.82 1445.77 1582.12 1480.16 C 1587.43 1514.54 1563.88 1546.72 1529.51 1552.07 C 1495.07 1557.43 1462.81 1533.83 1457.5 1499.39 C 1452.18 1464.94 1475.82 1432.72 1510.27 1427.45 z"/>
<path transform="translate(0,0)" fill="rgb(66,88,104)" d="M 606.042 429.216 C 636.343 417.134 662.337 410.054 695.34 409.806 C 802.372 409.001 894.271 476.195 919.556 581.519 C 925.669 606.981 925.413 624.715 928.096 650.011 C 930.872 676.196 939.253 704.906 949.067 729.222 C 978.871 803.071 1022.65 841.716 1078.44 895.878 C 1065.58 908.45 1052.78 921.094 1040.06 933.81 L 978.827 994.807 C 971.365 1002.17 946.791 1025.49 941.203 1032.79 C 895.275 985.172 869.973 945.735 811.129 910.202 C 780.944 892.275 748.577 878.305 714.827 868.638 C 668.629 855.525 622.599 856.174 578.894 828.084 C 567.622 820.84 557.352 814.98 548.098 804.738 C 554.444 795.568 587.446 763.102 596.691 753.827 L 697.603 653.118 C 710.964 639.814 726.191 625.831 737.67 611.23 C 746.123 599.444 747.233 574.658 738.152 563.247 C 726.023 548.007 710.221 533.495 696.515 519.786 L 606.042 429.216 z"/>
<path transform="translate(0,0)" fill="rgb(46,73,88)" d="M 978.827 994.807 C 965.264 980.473 952.03 964.552 938.494 949.966 C 918.795 928.739 890.601 902.967 916.228 873.38 C 923.417 864.961 933.692 859.789 944.737 859.03 C 950.31 858.696 959.991 860.156 964.307 863.313 C 990.53 882.49 1016.3 911.896 1040.06 933.81 L 978.827 994.807 z"/>
<path transform="translate(0,0)" fill="rgb(218,218,220)" d="M 798.032 638.124 C 800.861 638.346 804.075 638.523 806.759 639.467 C 813.458 641.823 871.995 700.625 875.651 708.258 C 877.245 711.585 878.056 718.228 876.583 721.694 C 874.957 725.52 871.633 729.238 868.822 732.307 C 855.687 746.65 840.852 759.964 827.104 773.803 C 810.982 790.032 795.032 807.956 777.627 822.708 C 775.253 824.721 772.829 826.076 769.963 827.254 C 766.998 827.22 763.49 827.221 760.666 826.18 C 754.04 823.738 694.945 764.178 691.486 756.551 C 689.809 752.854 689.014 747.564 690.829 743.82 C 694.374 736.508 778.342 652.254 789.353 643.03 C 792.07 640.754 794.711 639.332 798.032 638.124 z"/>
<path transform="translate(0,0)" fill="rgb(66,88,104)" d="M 786.153 668.993 C 799.281 670.515 838.825 693.563 852.004 700.97 C 864.988 708.268 866.193 722.602 849.712 730.104 C 835.055 729.125 812.518 712.709 798.413 706.936 C 781.379 699.963 758.704 681.336 786.153 668.993 z"/>
<path transform="translate(0,0)" fill="rgb(66,88,104)" d="M 751.017 702.897 C 752.318 702.841 753.686 702.746 754.989 702.875 C 764.907 703.856 819.115 731.866 825.253 740.202 C 827.754 743.599 829.059 747.602 828.131 751.805 C 826.918 757.298 822.085 760.174 817.553 762.678 C 816.028 762.788 814.555 762.905 813.028 762.76 C 803.2 761.83 749.543 733.576 743.852 726.106 C 741.224 722.656 739.778 718.55 740.636 714.206 C 741.745 708.593 746.486 705.605 751.017 702.897 z"/>
<path transform="translate(0,0)" fill="rgb(66,88,104)" d="M 718 735.924 C 730.878 735.974 770.343 759.365 783.733 766.221 C 797.057 773.043 800.045 787.551 783.781 796.311 C 770.634 796.562 746.674 779.474 733.871 774.555 C 717.492 768.262 691.03 749.948 718 735.924 z"/>
<path transform="translate(0,0)" fill="rgb(219,81,72)" d="M 713.961 1221.06 C 720.566 1212.19 730.355 1203.33 738.09 1195.19 C 754.745 1177.64 770.339 1158.63 793.49 1179.37 C 799.581 1186.89 812.852 1199.1 820.428 1206.6 L 867.974 1253.83 C 873.934 1261.2 878.918 1267.87 877.587 1277.97 C 875.485 1293.92 840.765 1321.62 828.415 1334.31 C 854.311 1384.17 862.078 1447.26 845.186 1501.28 C 833.656 1538.15 817.587 1558.46 793.614 1586.89 C 803.7 1597.77 809.795 1610.85 801.384 1625.07 C 797.544 1631.57 791.133 1636.14 783.735 1637.66 C 777.275 1639 766.256 1637.25 761.612 1633.26 C 749.241 1622.64 736.162 1608.64 724.571 1597.05 L 650.388 1523.6 L 493.502 1366.6 C 468.976 1342.02 444.089 1317.49 419.658 1292.81 C 415.647 1288.29 410.013 1281.5 409.446 1275.28 C 407.004 1248.47 436.398 1233.33 456.597 1251.59 C 458.145 1252.99 459.273 1253.99 461.198 1254.6 C 524.503 1186.74 634.625 1177.51 713.961 1221.06 z"/>
<path transform="translate(0,0)" fill="rgb(201,64,55)" d="M 793.614 1586.89 C 803.7 1597.77 809.795 1610.85 801.384 1625.07 C 797.544 1631.57 791.133 1636.14 783.735 1637.66 C 777.275 1639 766.256 1637.25 761.612 1633.26 C 749.241 1622.64 736.162 1608.64 724.571 1597.05 L 650.388 1523.6 L 493.502 1366.6 C 468.976 1342.02 444.089 1317.49 419.658 1292.81 C 415.647 1288.29 410.013 1281.5 409.446 1275.28 C 407.004 1248.47 436.398 1233.33 456.597 1251.59 C 458.145 1252.99 459.273 1253.99 461.198 1254.6 C 474.969 1269.82 491.134 1284.73 505.714 1299.44 L 613.531 1407.13 L 733.258 1526.71 C 751.844 1545.25 774.691 1569.57 793.614 1586.89 z"/>
<path transform="translate(0,0)" fill="rgb(201,64,55)" d="M 713.961 1221.06 C 720.566 1212.19 730.355 1203.33 738.09 1195.19 C 754.745 1177.64 770.339 1158.63 793.49 1179.37 C 799.581 1186.89 812.852 1199.1 820.428 1206.6 L 867.974 1253.83 C 873.934 1261.2 878.918 1267.87 877.587 1277.97 C 875.485 1293.92 840.765 1321.62 828.415 1334.31 C 827.526 1332.99 823.884 1325.2 822.085 1322.25 C 815.667 1311.89 808.721 1301.86 801.273 1292.21 C 781.705 1267.02 756.336 1244.92 728.922 1228.78 C 725.126 1226.55 718.019 1221.57 713.961 1221.06 z"/>
<path transform="translate(0,0)" fill="rgb(218,218,220)" d="M 1078.44 895.878 C 1116.2 855.237 1156.37 816.068 1195.63 776.803 L 1371.05 601.379 L 1471.48 500.728 C 1489.54 482.682 1507.39 463.537 1527.01 447.329 C 1536.02 440.46 1550.61 438.444 1561.44 439.708 C 1591.35 443.198 1605.55 464.764 1606.53 493.014 C 1607.52 521.747 1577.13 545.232 1558.16 564.276 L 1498.24 624.127 L 1308.42 813.835 L 1207.59 914.894 C 1189.46 933.094 1170.62 951.203 1152.89 969.739 C 1140.11 982.148 1127.5 994.726 1115.06 1007.47 L 1050.3 1072.1 C 1043.06 1079.22 1018.44 1102.65 1012.92 1110.17 C 1003.55 1120.99 986.847 1134.59 976.252 1145.77 C 941.483 1182.47 902.867 1217.5 867.974 1253.83 L 820.428 1206.6 C 812.852 1199.1 799.581 1186.89 793.49 1179.37 C 838.076 1134.42 882.146 1089.11 928.543 1046.01 C 932.798 1042.06 937.569 1037.26 941.203 1032.79 C 946.791 1025.49 971.365 1002.17 978.827 994.807 L 1040.06 933.81 C 1052.78 921.094 1065.58 908.45 1078.44 895.878 z"/>
<path transform="translate(0,0)" fill="rgb(66,88,104)" d="M 492.185 543.354 C 498.264 545.965 625.64 672.654 634.842 684.509 L 573.443 745.846 C 562.161 755.5 542.516 776.995 530.627 788.649 C 511.345 764.469 497.266 745.819 486.151 716.148 C 464.918 660.069 467.092 597.814 492.185 543.354 z"/>
</svg>