<svg version="1.1" xmlns="http://www.w3.org/2000/svg" style="display: block;" viewBox="0 0 2048 2048" width="1024" height="1024" preserveAspectRatio="none">
<path transform="translate(0,0)" fill="rgb(135,69,16)" d="M 789.35 998.968 C 813.226 971.983 845.114 940.221 870.411 913.606 L 1027.45 748.549 L 1076.2 697.15 C 1087.71 685.193 1102.14 671.215 1112.69 658.755 C 1157.86 702.622 1202.81 746.722 1247.53 791.052 L 1291.29 833.941 C 1297.34 839.841 1306.3 849.288 1312.48 854.615 C 1251.32 920.485 1190.74 990.755 1130.72 1057.94 L 699.623 1541.15 L 557.378 1700.82 C 536.904 1723.75 508.93 1757.15 487.806 1777.98 C 437.147 1731.49 387.138 1683.01 336.969 1635.84 C 312.516 1612.85 277.341 1582.39 255.552 1558.66 C 268.541 1543.14 286.903 1524.88 301.07 1509.98 L 371.12 1435.99 C 381.867 1423.74 397.13 1408.62 408.547 1396.66 L 494.157 1307.34 L 789.35 998.968 z"/>
<path transform="translate(0,0)" fill="rgb(79,79,78)" d="M 371.12 1435.99 C 381.867 1423.74 397.13 1408.62 408.547 1396.66 L 494.157 1307.34 L 789.35 998.968 C 820.447 1034.43 860.656 1065.65 891.005 1100.12 C 845.28 1150.04 795.671 1200.5 748.819 1249.7 L 602.648 1404.64 L 523.123 1488.85 C 510.604 1502.18 489.74 1525.59 476.465 1536.77 C 451.06 1515.28 424.543 1485.38 399.491 1462.75 C 390.804 1454.9 380.022 1442.77 371.12 1435.99 z"/>
<path transform="translate(0,0)" fill="rgb(123,122,122)" d="M 1112.69 658.755 C 1105.55 651.176 1098.77 645.167 1099.36 633.881 C 1100.15 618.912 1114.47 607.066 1124.65 597.213 C 1135.24 586.93 1145.69 576.503 1155.99 565.934 C 1173.44 548.111 1192.25 531.65 1188.47 503.999 C 1187.23 494.967 1182.16 482.689 1175.43 476.045 C 1108.33 409.786 1020.4 363.384 926.233 352.107 C 911.695 350.366 890.019 350.23 883.615 335.409 C 883.06 334.13 882.658 332.79 882.418 331.416 C 877.365 302.256 904.397 298.271 926.809 291.52 C 997.607 270.642 1072.09 265.341 1145.13 275.982 C 1238.38 290.712 1325.87 330.524 1398.24 391.154 C 1434.24 421.668 1474.97 464.894 1509.53 498.82 L 1569.88 558.119 C 1580.06 568.108 1592.26 577.968 1600.7 589.438 C 1604.67 594.833 1606.3 600.799 1605.19 607.46 C 1603.35 618.532 1594.62 627.297 1588.93 636.546 C 1577.05 655.851 1574.32 681.284 1587.48 700.637 C 1595.34 712.195 1606.61 720.153 1620.55 722.444 C 1639.44 725.548 1655.91 716.509 1674.31 715.662 C 1682.77 715.272 1691.74 716.559 1699.18 720.823 C 1713.21 728.867 1772.46 787.939 1783.39 802.429 C 1791.37 813.014 1793.37 827.099 1791.28 839.993 C 1789.7 849.778 1785.68 857.439 1779.64 865.12 C 1766.77 881.492 1750.5 895.979 1735.79 910.737 L 1669.12 978.514 L 1625.45 1023.48 C 1619.62 1029.5 1607.71 1043.02 1601.1 1047.43 C 1584.48 1057.72 1555.19 1058.91 1540.33 1045.44 C 1514.93 1022.42 1482.84 994.146 1462.44 967.28 C 1441.56 939.799 1479.72 897.539 1457 865.341 C 1436.19 835.849 1405.39 834.13 1376.24 852.34 C 1362.86 861.405 1353.91 875.241 1336.14 871.767 C 1323.46 869.751 1318.78 859.052 1312.48 854.615 C 1306.3 849.288 1297.34 839.841 1291.29 833.941 L 1247.53 791.052 C 1202.81 746.722 1157.86 702.622 1112.69 658.755 z"/>
</svg>