<svg version="1.1" xmlns="http://www.w3.org/2000/svg" style="display: block;" viewBox="0 0 2048 2048" width="1024" height="1024" preserveAspectRatio="none">
<path transform="translate(0,0)" fill="rgb(46,72,97)" d="M 739.895 1160.56 C 747.925 1163.32 844.132 1265.22 863.898 1280.73 C 838.248 1305.33 814.145 1332.39 788.839 1357.43 C 781.335 1364.86 773.003 1373.54 766.212 1381.59 C 783.382 1416.42 787.039 1462.02 778.323 1499.65 C 767.341 1546.1 738.407 1586.32 697.849 1611.5 C 661.782 1633.78 610.026 1643.9 568.777 1634.29 C 530.548 1627.67 493.484 1606.16 467.915 1577.09 C 436.595 1541.44 420.572 1494.88 423.314 1447.5 C 426.419 1399.42 448.625 1354.58 484.983 1322.97 C 524.678 1288.7 571.52 1276.58 623.047 1280.58 C 634.427 1269.74 647.48 1255.43 658.685 1243.94 L 739.895 1160.56 z M 611.499 1554.55 C 664.446 1549.97 703.776 1503.53 699.564 1450.55 C 695.351 1397.57 649.176 1357.92 596.172 1361.77 C 542.648 1365.65 502.526 1412.38 506.78 1465.88 C 511.033 1519.37 558.034 1559.17 611.499 1554.55 z"/>
<path transform="translate(0,0)" fill="rgb(46,72,97)" d="M 1371.34 410.637 C 1399.84 408.351 1428.51 411.435 1455.87 419.73 C 1415.57 462.432 1372.34 503.825 1333.14 547.612 C 1322.69 559.282 1323.27 576.818 1333.47 588.304 C 1356.45 614.126 1383.15 636.718 1407.01 661.768 C 1415.28 670.451 1424.92 679.835 1437.46 681.07 C 1444.36 681.687 1451.26 679.892 1456.99 675.99 C 1465.68 670.127 1480.52 653.744 1488.38 645.601 L 1550.5 581.71 C 1559.94 571.849 1575.63 553.491 1585.95 545.623 C 1591.2 558.381 1594.3 570.947 1596.56 584.565 C 1605.23 638.816 1591.97 694.289 1559.71 738.756 C 1525.09 787.004 1477.62 813.609 1419.75 823.306 C 1388.73 827.837 1349.58 824.283 1320.61 811.89 C 1307.17 827.394 1287.45 845.389 1272.96 860.658 C 1247.18 887.844 1220.81 914.941 1194.16 941.285 C 1153.68 901.224 1114.35 861.067 1072.74 822.125 C 1081.82 810.779 1100.26 793.013 1111.13 781.844 L 1198.53 693.529 C 1192.09 678.172 1187.04 657.58 1185.04 641.194 C 1178.23 586.17 1193.82 530.716 1228.32 487.312 C 1265.12 440.864 1313.14 417.286 1371.34 410.637 z"/>
<path transform="translate(0,0)" fill="rgb(244,140,42)" d="M 1026.16 835.444 C 1034.27 834.466 1049.04 837.777 1055.12 842.999 C 1087.87 871.154 1116.98 904.467 1148.69 934.021 C 1155.41 940.284 1163.25 947.927 1168.74 955.109 C 1197.61 992.893 1164.66 1018.59 1139.92 1043.62 C 1122.13 1061.63 1104.44 1079.74 1086.84 1097.93 L 991.695 1195.33 C 976.869 1210.69 962.127 1226.15 947.186 1241.4 C 934.823 1254.01 928.533 1260.54 910.806 1264.14 C 884.463 1267.91 871.725 1253.18 855.182 1236.19 C 847.911 1228.72 840.347 1221.01 832.936 1213.67 L 790.44 1171.87 C 776.478 1158.08 758.037 1143.16 755.225 1122.74 C 753.586 1111.03 756.632 1099.16 763.7 1089.69 C 773.782 1076.4 808.948 1042.85 822.116 1029.4 L 936.718 911.63 C 950.224 897.767 963.55 883.729 976.691 869.519 C 992.556 852.639 1001.82 838.793 1026.16 835.444 z"/>
</svg>