<svg version="1.1" xmlns="http://www.w3.org/2000/svg" style="display: block;" viewBox="0 0 2048 2048" width="1024" height="1024" preserveAspectRatio="none">
<path transform="translate(0,0)" fill="rgb(58,152,71)" d="M 480.916 478.985 C 583.823 440.957 694.885 468.961 779.639 535.323 C 801.718 552.611 820.905 572.455 840.703 592.236 L 904.188 655.833 L 967.577 719.111 C 978.585 730.097 990.453 740.831 1000.73 752.484 C 1003.89 756.06 1006.88 760.145 1008.66 764.598 C 1010.13 768.267 1009.76 771.009 1008.11 774.573 C 1002.79 786.128 942.738 844.145 929.248 856.288 C 924.535 861.073 917.76 867.577 913.723 872.635 C 943.332 905.039 979.987 935.051 1009.09 968.108 L 988.387 989.056 L 968.114 1009.37 C 937.215 980.509 903.26 944.013 873.273 913.36 C 867.293 919.086 861.387 924.89 855.558 930.77 C 841.276 945.17 826.902 959.479 812.436 973.695 C 803.303 982.796 794.155 992.459 784.892 1001.22 C 780.457 1005.41 774.133 1010.78 768.071 1009.85 C 762.796 1009.04 759.734 1008.44 755.615 1004.63 C 745.698 995.475 735.971 985.255 726.52 975.647 L 674.808 923.352 L 601.749 850.062 C 584.021 832.316 566.714 815.237 549.885 796.616 C 492.423 733.035 456.92 646.463 461.851 560.173 C 462.672 545.819 470.505 488.147 480.916 478.985 z"/>
<path transform="translate(0,0)" fill="rgb(13,123,64)" d="M 855.558 930.77 C 841.276 945.17 826.902 959.479 812.436 973.695 C 803.303 982.796 794.155 992.459 784.892 1001.22 C 780.457 1005.41 774.133 1010.78 768.071 1009.85 C 762.796 1009.04 759.734 1008.44 755.615 1004.63 C 745.698 995.475 735.971 985.255 726.52 975.647 L 674.808 923.352 L 601.749 850.062 C 584.021 832.316 566.714 815.237 549.885 796.616 C 492.423 733.035 456.92 646.463 461.851 560.173 C 462.672 545.819 470.505 488.147 480.916 478.985 C 485.102 487.166 532.025 532.364 542.037 542.32 L 675.977 676.333 C 685.79 686.151 750.468 749.469 751.226 753.596 C 745.452 778.745 753.587 818.9 769.199 839.582 C 790.368 867.627 820.181 892.29 843.886 918.564 C 847.196 922.233 852.057 927.57 855.558 930.77 z"/>
<path transform="translate(0,0)" fill="rgb(157,156,156)" d="M 751.977 752.589 C 757.572 748.091 780.73 749.298 788.098 750.244 C 834.335 756.175 852.476 777.572 882.564 808.143 C 898.236 824.084 913.797 840.133 929.248 856.288 C 924.535 861.073 917.76 867.577 913.723 872.635 C 943.332 905.039 979.987 935.051 1009.09 968.108 L 988.387 989.056 L 968.114 1009.37 C 937.215 980.509 903.26 944.013 873.273 913.36 C 867.293 919.086 861.387 924.89 855.558 930.77 C 852.057 927.57 847.196 922.233 843.886 918.564 C 820.181 892.29 790.368 867.627 769.199 839.582 C 753.587 818.9 745.452 778.745 751.226 753.596 L 751.977 752.589 z"/>
<path transform="translate(0,0)" fill="rgb(126,125,125)" d="M 751.977 752.589 C 762.141 760.965 771.826 771.601 781.21 780.956 C 809.604 809.265 837.665 837.997 866.059 866.305 L 948.374 948.074 C 959.567 959.291 978.583 977.129 988.387 989.056 L 968.114 1009.37 C 937.215 980.509 903.26 944.013 873.273 913.36 C 867.293 919.086 861.387 924.89 855.558 930.77 C 852.057 927.57 847.196 922.233 843.886 918.564 C 820.181 892.29 790.368 867.627 769.199 839.582 C 753.587 818.9 745.452 778.745 751.226 753.596 L 751.977 752.589 z"/>
<path transform="translate(0,0)" fill="rgb(157,156,156)" d="M 1125.99 880.249 C 1098.66 852.237 1068.96 829.314 1062.71 788.146 C 1058.99 763.671 1065.67 731.042 1080.66 711.352 C 1090.3 698.685 1114.01 678.119 1126.74 666.474 L 1204.96 595.315 L 1300.79 508.208 C 1315.36 494.949 1329.73 481.694 1344.46 468.175 C 1353.2 456.132 1377.07 460.828 1366.66 476.58 C 1356.13 492.504 1335.25 514.601 1322.74 528.974 L 1225.29 642.394 L 1188.19 686.131 C 1177.61 698.413 1151 720.308 1168.17 738.003 C 1180.57 750.78 1194.68 739.715 1205.18 730.658 C 1221.37 716.698 1237.34 702.217 1253.29 687.763 C 1291.31 653.436 1329.58 619.382 1368.08 585.604 C 1386.51 569.341 1404.86 552.428 1424.24 537.464 C 1434.92 529.073 1446.57 542.252 1439.83 551.074 C 1426.83 568.107 1410.82 585.118 1396.62 601.179 L 1294.79 717.881 C 1284.56 729.719 1274.23 741.46 1263.78 753.103 C 1249.56 768.742 1223.48 788.019 1239.5 809.342 C 1223.09 823.613 1204.5 843.084 1188.9 858.678 L 1108.5 939.013 L 990.787 1056.77 C 964.587 1083 937.954 1109.01 912.596 1136.02 L 912.164 1136 C 906.983 1131.25 895.497 1121.07 891.943 1115.63 C 915.45 1089.42 946.999 1059.34 972.34 1033.86 L 1125.99 880.249 z"/>
<path transform="translate(0,0)" fill="rgb(126,125,125)" d="M 1239.5 809.342 C 1259.33 826.177 1277.73 802.127 1292.92 788.867 L 1342.51 745.224 L 1483.4 621.069 C 1489.72 615.469 1501.69 602.71 1510.79 610.52 C 1517.68 616.437 1512.64 625.268 1508.02 630.567 C 1488.43 653.038 1468.4 675.265 1448.51 697.475 C 1414.54 735.422 1380.8 773.579 1347.3 811.944 C 1336.1 824.659 1314.75 845.897 1306.84 860.34 C 1298.24 876.021 1324.79 896.81 1338.99 881.47 C 1356.2 866.664 1372.62 851.934 1389.59 837.403 L 1504.42 738.413 C 1523.99 721.655 1543.59 704.757 1563.57 688.583 C 1569.69 683.632 1578.02 677.194 1584.61 684.303 C 1591.28 691.504 1583.22 700.049 1578.82 704.942 C 1560.42 725.36 1541.85 745.528 1523.42 765.86 L 1434.34 864.76 L 1378.13 926.674 C 1360.57 945.976 1346.73 964.279 1322.75 976.24 C 1297.75 988.766 1268.73 990.613 1242.34 981.358 C 1214.76 971.877 1187.05 943.145 1167.38 921.229 C 1108.1 978.71 1049.65 1039.46 990.842 1097.82 C 978.272 1110.22 965.781 1122.69 953.37 1135.25 C 947.726 1141 938.337 1151.3 932.75 1156.27 C 927.003 1149.41 919.155 1142.3 912.596 1136.02 C 937.954 1109.01 964.587 1083 990.787 1056.77 L 1108.5 939.013 L 1188.9 858.678 C 1204.5 843.084 1223.09 823.613 1239.5 809.342 z"/>
<path transform="translate(0,0)" fill="rgb(58,152,71)" d="M 800.2 1161.35 C 814.67 1175.16 828.973 1189.15 843.105 1203.31 L 843.342 1203.91 C 857.372 1217.52 873.33 1233.25 886.775 1247.47 C 875.277 1259.9 861.731 1271.61 850.692 1283.78 C 807.62 1331.25 764.217 1378.65 721.213 1426.17 L 660.062 1494.24 C 647.996 1507.78 634.586 1523.63 621.903 1536.35 C 609.001 1521.62 581.619 1495.94 566.753 1480.92 L 566.332 1480.93 C 550.352 1463.4 528.155 1442.32 511.08 1424.72 C 525.052 1413.02 543.69 1394.81 557.416 1382.24 L 642.395 1305.14 C 695.896 1256.71 748.77 1212.32 800.2 1161.35 z"/>
<path transform="translate(0,0)" fill="rgb(13,123,64)" d="M 843.342 1203.91 C 857.372 1217.52 873.33 1233.25 886.775 1247.47 C 875.277 1259.9 861.731 1271.61 850.692 1283.78 C 807.62 1331.25 764.217 1378.65 721.213 1426.17 L 660.062 1494.24 C 647.996 1507.78 634.586 1523.63 621.903 1536.35 C 609.001 1521.62 581.619 1495.94 566.753 1480.92 C 634.442 1410.97 706.74 1342.68 774.986 1273.03 C 797.799 1249.75 821.275 1228.03 843.342 1203.91 z"/>
<path transform="translate(0,0)" fill="rgb(58,152,71)" d="M 1247.85 1160.79 C 1255.13 1168.75 1264 1176.7 1271.76 1184.35 C 1300.56 1212.74 1331.25 1239.35 1361.51 1266.21 C 1420.84 1318.18 1479.29 1371.14 1536.86 1425.07 C 1520.01 1443.34 1499.97 1462.5 1482.29 1480.27 L 1481.57 1480.47 C 1466.2 1497.72 1439.23 1520.99 1426.24 1536.8 L 1272.54 1366.42 C 1233.63 1323.45 1202.33 1288.03 1160.4 1247.74 C 1174.95 1233.77 1189.62 1218.84 1203.9 1204.56 L 1203.81 1204.24 C 1218.64 1189.9 1233.32 1175.42 1247.85 1160.79 z"/>
<path transform="translate(0,0)" fill="rgb(13,123,64)" d="M 1203.9 1204.56 C 1213.98 1213.08 1225.15 1225.3 1234.71 1234.93 L 1283.63 1283.91 L 1419.35 1419.07 C 1434.7 1434.32 1449.49 1450.13 1465.09 1465.11 C 1468.59 1468.47 1477.97 1477.97 1481.57 1480.47 C 1466.2 1497.72 1439.23 1520.99 1426.24 1536.8 L 1272.54 1366.42 C 1233.63 1323.45 1202.33 1288.03 1160.4 1247.74 C 1174.95 1233.77 1189.62 1218.84 1203.9 1204.56 z"/>
<path transform="translate(0,0)" fill="rgb(166,125,83)" d="M 785.59 1146.91 C 818.39 1115.51 845.613 1066.08 891.943 1115.63 C 895.497 1121.07 906.983 1131.25 912.164 1136 L 912.596 1136.02 C 919.155 1142.3 927.003 1149.41 932.75 1156.27 C 943.7 1166.6 952.558 1177.06 953.227 1193.18 C 953.827 1207.64 946.401 1217.76 936.752 1227.5 C 925.222 1239.15 912.967 1250.4 901.658 1262.26 C 897.064 1257.53 891.69 1251.7 886.775 1247.47 C 873.33 1233.25 857.372 1217.52 843.342 1203.91 L 843.105 1203.31 C 828.973 1189.15 814.67 1175.16 800.2 1161.35 C 795.698 1157.31 789.997 1151.29 785.59 1146.91 z"/>
<path transform="translate(0,0)" fill="rgb(193,153,109)" d="M 785.59 1146.91 C 818.39 1115.51 845.613 1066.08 891.943 1115.63 C 895.497 1121.07 906.983 1131.25 912.164 1136 C 902.781 1144.62 847.893 1201.83 843.105 1203.31 C 828.973 1189.15 814.67 1175.16 800.2 1161.35 C 795.698 1157.31 789.997 1151.29 785.59 1146.91 z"/>
<path transform="translate(0,0)" fill="rgb(166,125,83)" d="M 1157.08 1115 C 1198.54 1067.4 1232.9 1115.71 1262.48 1147.28 C 1256.08 1152.45 1253.37 1154.77 1247.85 1160.79 C 1233.32 1175.42 1218.64 1189.9 1203.81 1204.24 L 1203.9 1204.56 C 1189.62 1218.84 1174.95 1233.77 1160.4 1247.74 C 1155.45 1253.11 1151.55 1256.64 1146.08 1261.51 C 1133.05 1249.76 1119.82 1235.95 1107.59 1223.28 C 1085.04 1199.92 1094.09 1174.94 1115.75 1156.3 C 1115.8 1156.27 1132.5 1139.49 1135.98 1136.47 L 1135.99 1136.28 C 1142.47 1130.41 1150.23 1121.55 1157.08 1115 z"/>
<path transform="translate(0,0)" fill="rgb(193,153,109)" d="M 1157.08 1115 C 1198.54 1067.4 1232.9 1115.71 1262.48 1147.28 C 1256.08 1152.45 1253.37 1154.77 1247.85 1160.79 C 1233.32 1175.42 1218.64 1189.9 1203.81 1204.24 L 1161.91 1161.58 C 1155.1 1154.7 1143.28 1142.18 1135.98 1136.47 L 1135.99 1136.28 C 1142.47 1130.41 1150.23 1121.55 1157.08 1115 z"/>
<path transform="translate(0,0)" fill="rgb(193,153,109)" d="M 1482.29 1480.27 C 1499.97 1462.5 1520.01 1443.34 1536.86 1425.07 C 1546.37 1433.98 1557.48 1444.76 1567.23 1453.09 C 1611.64 1491.03 1582.47 1515.81 1551.55 1546.08 L 1548.95 1548.61 C 1541.14 1556.6 1533.28 1564.55 1525.37 1572.45 C 1482.95 1614.08 1453.42 1566.81 1426.24 1536.8 C 1439.23 1520.99 1466.2 1497.72 1481.57 1480.47 L 1482.29 1480.27 z"/>
<path transform="translate(0,0)" fill="rgb(166,125,83)" d="M 1481.57 1480.47 L 1482.29 1480.27 C 1488.32 1488.34 1500.18 1499.78 1507.56 1507.2 L 1548.95 1548.61 C 1541.14 1556.6 1533.28 1564.55 1525.37 1572.45 C 1482.95 1614.08 1453.42 1566.81 1426.24 1536.8 C 1439.23 1520.99 1466.2 1497.72 1481.57 1480.47 z"/>
<path transform="translate(0,0)" fill="rgb(193,153,109)" d="M 511.08 1424.72 C 528.155 1442.32 550.352 1463.4 566.332 1480.93 L 566.753 1480.92 C 581.619 1495.94 609.001 1521.62 621.903 1536.35 C 592.096 1569.46 565.528 1613.84 520.492 1570.1 C 513.276 1563.01 506.187 1555.8 499.228 1548.46 C 475.46 1523.64 437.186 1495.7 472.273 1460.89 C 484.69 1448.57 498.26 1436.67 511.08 1424.72 z"/>
<path transform="translate(0,0)" fill="rgb(166,125,83)" d="M 566.332 1480.93 L 566.753 1480.92 C 581.619 1495.94 609.001 1521.62 621.903 1536.35 C 592.096 1569.46 565.528 1613.84 520.492 1570.1 C 513.276 1563.01 506.187 1555.8 499.228 1548.46 C 502.904 1543.85 515.43 1532.09 520.341 1527.2 C 535.875 1511.98 551.207 1496.56 566.332 1480.93 z"/>
<path transform="translate(0,0)" fill="rgb(126,125,125)" d="M 1079.13 1038.61 C 1104.97 1063.17 1131.5 1091.78 1157.08 1115 C 1150.23 1121.55 1142.47 1130.41 1135.99 1136.28 L 1135.98 1136.47 C 1132.5 1139.49 1115.8 1156.27 1115.75 1156.3 C 1109.98 1152.35 1093.98 1135.51 1088.09 1129.6 L 1038.56 1080.17 C 1044.04 1073.77 1053.59 1064.8 1059.78 1058.61 C 1066.04 1052.27 1073.3 1045.24 1079.13 1038.61 z"/>
<path transform="translate(0,0)" fill="rgb(157,156,156)" d="M 1079.13 1038.61 C 1104.97 1063.17 1131.5 1091.78 1157.08 1115 C 1150.23 1121.55 1142.47 1130.41 1135.99 1136.28 C 1114.47 1116.5 1093.91 1092.52 1072.54 1072.29 C 1068.17 1068.16 1063.65 1063.22 1059.78 1058.61 C 1066.04 1052.27 1073.3 1045.24 1079.13 1038.61 z"/>
</svg>