<svg version="1.1" xmlns="http://www.w3.org/2000/svg" style="display: block;" viewBox="0 0 2048 2048" width="1024" height="1024" preserveAspectRatio="none">
<path transform="translate(0,0)" fill="rgb(239,124,31)" d="M 820.913 775.29 L 820.922 774.21 C 820.898 760.937 818.846 746.712 815.659 733.831 C 812.398 720.655 803.059 712.535 793.805 703.429 L 727.193 637.399 C 715.482 625.715 689.756 604.735 689.511 587.978 C 689.378 580.228 692.523 572.782 698.173 567.476 C 721.692 545.314 743.642 573.89 759.328 589.669 L 798.666 629.311 C 832.594 663.404 868.66 686.831 873.618 736.292 C 874.287 742.967 876.205 781.299 878.725 783.176 C 901.427 792.07 938.681 812.636 960.277 825.589 C 964.289 827.995 973.261 837.851 976.816 841.712 C 985.222 850.466 996.604 861.91 1004.23 871.278 C 1035.1 905.991 1068.34 939.17 1099.54 973.659 C 1121.63 998.073 1145.46 1021.41 1166.92 1046.36 L 1193.25 1074.61 C 1223.14 1107.62 1220.33 1140.99 1187.47 1169.89 C 1136.67 1214.57 1085.89 1259.36 1034.76 1303.67 C 988.854 1343.22 943.268 1385.95 896.819 1424.55 C 876.718 1442.12 855.045 1462.05 834.644 1478.82 C 781.405 1527.18 723.578 1576.95 669.169 1624.35 L 624.369 1663.33 C 595.956 1688.08 572.898 1711.18 532.27 1708.81 C 503.051 1707.11 479.849 1694.53 460.822 1672.46 C 429.414 1636.33 398.413 1598.54 365.84 1563.45 C 349.586 1544.3 339.053 1526 340.757 1500.18 C 342.107 1479.72 354.152 1462.3 363.976 1444.92 L 392.167 1395.33 L 506.662 1194.96 C 511.495 1186.9 517.014 1178.19 520.982 1169.75 C 512.656 1143.02 502.325 1115.36 492.928 1088.26 C 480.067 1051.18 467.533 1018.27 497.489 984.865 C 505.859 975.532 519.406 968.115 529.973 961.087 L 571.868 933.216 C 596.822 916.723 630.306 892.913 655.48 878.218 C 655.451 876.458 650.666 860.431 649.954 857.967 C 644.596 839.243 639.054 820.571 633.331 801.955 C 630.237 791.855 624.195 774.401 623.155 764.505 C 622.407 757.8 623.344 751.014 625.88 744.763 C 636.766 718.172 679.561 716.479 690.277 740.467 C 703.447 769.946 710.408 805.177 720.744 836.23 C 728.578 830.223 745.969 818.971 754.603 813.553 C 775.905 800.184 797.052 782.522 820.913 775.29 z M 546.228 1388.92 C 538.832 1399.45 525.874 1423.07 518.403 1435.28 L 486.045 1488.66 C 472.929 1510.49 454.71 1534.43 472.496 1560.53 C 481.638 1573.94 494.682 1585 504.865 1598.27 C 520.61 1618.79 548.471 1624.43 569.733 1608.3 C 606.06 1578.33 640.705 1545.85 676.658 1515.35 C 687.139 1505.94 700.733 1495.63 708.251 1483.79 C 737.115 1438.33 726.894 1386.98 687.784 1351.67 C 674.018 1339.24 667.469 1323.93 649.697 1311.83 C 635.536 1330.99 627.992 1353.04 624.563 1376.63 C 623.558 1383.54 623.134 1396.39 620.448 1402.14 C 618.248 1406.93 613.793 1410.29 608.585 1411.1 C 594.791 1413.36 561.644 1394.06 546.228 1388.92 z"/>
<path transform="translate(0,0)" fill="rgb(239,124,31)" d="M 820.913 775.29 L 820.922 774.21 C 820.898 760.937 818.846 746.712 815.659 733.831 C 812.398 720.655 803.059 712.535 793.805 703.429 L 727.193 637.399 C 715.482 625.715 689.756 604.735 689.511 587.978 C 689.378 580.228 692.523 572.782 698.173 567.476 C 721.692 545.314 743.642 573.89 759.328 589.669 L 798.666 629.311 C 832.594 663.404 868.66 686.831 873.618 736.292 C 874.287 742.967 876.205 781.299 878.725 783.176 C 901.427 792.07 938.681 812.636 960.277 825.589 C 964.289 827.995 973.261 837.851 976.816 841.712 C 985.222 850.466 996.604 861.91 1004.23 871.278 C 1035.1 905.991 1068.34 939.17 1099.54 973.659 C 1121.63 998.073 1145.46 1021.41 1166.92 1046.36 L 1193.25 1074.61 C 1223.14 1107.62 1220.33 1140.99 1187.47 1169.89 C 1136.67 1214.57 1085.89 1259.36 1034.76 1303.67 C 988.854 1343.22 943.268 1385.95 896.819 1424.55 C 882.136 1384.5 867.425 1327.51 854.663 1285.24 L 758.758 963.503 L 734.445 882.755 C 730.452 869.119 725.582 848.941 720.744 836.23 C 728.578 830.223 745.969 818.971 754.603 813.553 C 775.905 800.184 797.052 782.522 820.913 775.29 z"/>
<path transform="translate(0,0)" fill="rgb(68,41,25)" d="M 820.913 775.29 L 820.922 774.21 C 820.898 760.937 818.846 746.712 815.659 733.831 C 812.398 720.655 803.059 712.535 793.805 703.429 L 727.193 637.399 C 715.482 625.715 689.756 604.735 689.511 587.978 C 689.378 580.228 692.523 572.782 698.173 567.476 C 721.692 545.314 743.642 573.89 759.328 589.669 L 798.666 629.311 C 832.594 663.404 868.66 686.831 873.618 736.292 C 874.287 742.967 876.205 781.299 878.725 783.176 C 877.247 786.764 878.707 800.15 879.012 804.511 L 883.108 864.195 C 884.77 888.029 892.345 924.24 856.018 924.45 C 843.135 925.445 830.708 913.901 829.743 900.986 C 826.658 859.71 823.169 816.552 820.913 775.29 z"/>
<path transform="translate(0,0)" fill="rgb(68,41,25)" d="M 655.48 878.218 C 655.451 876.458 650.666 860.431 649.954 857.967 C 644.596 839.243 639.054 820.571 633.331 801.955 C 630.237 791.855 624.195 774.401 623.155 764.505 C 622.407 757.8 623.344 751.014 625.88 744.763 C 636.766 718.172 679.561 716.479 690.277 740.467 C 703.447 769.946 710.408 805.177 720.744 836.23 C 725.582 848.941 730.452 869.119 734.445 882.755 L 758.758 963.503 L 854.663 1285.24 C 867.425 1327.51 882.136 1384.5 896.819 1424.55 C 876.718 1442.12 855.045 1462.05 834.644 1478.82 C 828.171 1461.27 820.829 1434.63 815.452 1416.27 L 790.553 1332.54 L 695.84 1013.72 C 683.209 971.681 669.664 918.908 655.48 878.218 z"/>
<path transform="translate(0,0)" fill="rgb(68,41,25)" d="M 506.662 1194.96 C 526.66 1216 551.573 1236.73 534.614 1269.17 C 521.929 1293.44 507.662 1317.07 493.91 1340.76 L 435.01 1443.67 C 420.791 1468.26 406.724 1492.94 392.812 1517.71 C 386.56 1528.76 373.075 1553.33 365.84 1563.45 C 349.586 1544.3 339.053 1526 340.757 1500.18 C 342.107 1479.72 354.152 1462.3 363.976 1444.92 L 392.167 1395.33 L 506.662 1194.96 z"/>
<path transform="translate(0,0)" fill="rgb(68,41,25)" d="M 546.228 1388.92 C 558.022 1370.64 575.365 1335.27 588.88 1320.53 C 592.989 1315.98 597.992 1312.32 603.578 1309.78 C 619.544 1302.58 634.356 1305.77 649.697 1311.83 C 635.536 1330.99 627.992 1353.04 624.563 1376.63 C 623.558 1383.54 623.134 1396.39 620.448 1402.14 C 618.248 1406.93 613.793 1410.29 608.585 1411.1 C 594.791 1413.36 561.644 1394.06 546.228 1388.92 z"/>
<path transform="translate(0,0)" fill="rgb(171,170,170)" d="M 1497.82 382.039 C 1500.41 377.697 1503.86 372.356 1506.06 367.907 C 1534.33 310.769 1538.15 351.783 1560.14 382.418 L 1569.5 385.95 C 1579.09 379.825 1604.56 361.277 1613.63 362.937 C 1633.86 369.85 1610.78 416.678 1631.49 422.96 C 1641.95 425.673 1673.72 417.458 1680.82 426.736 C 1691.95 441.28 1655.71 469.347 1664.33 484.056 C 1672.54 495.755 1709.62 500.09 1708.29 516.69 C 1707.05 532.296 1669.05 538.867 1665.53 553.491 C 1662.23 567.177 1708.75 604.772 1680.48 611.452 C 1671.22 613.641 1646.87 614.898 1638.03 615.23 L 1622.85 637.154 C 1626.03 647.048 1638.08 678.163 1634 687.249 C 1626.87 703.124 1583.42 680.267 1577.07 692.925 C 1569.52 707.954 1605.42 756.864 1563.83 749.891 C 1552.85 748.05 1540.93 744.412 1529.41 743.296 L 1523.37 750.724 C 1525.28 761.794 1530.01 783.27 1530.3 793.336 C 1530.89 814.055 1491.14 798.141 1477.13 796.46 L 1470.54 803.718 L 1470.67 805.176 C 1472 818.889 1480.18 844.34 1475.52 855.599 C 1466.4 863.138 1436.19 851.513 1423.22 850.485 L 1415.68 857.908 C 1431.13 923.932 1425.29 915.67 1370.47 903.176 C 1367.58 902.517 1363.94 908.16 1362.39 910.585 C 1363.95 920.862 1371.95 956.027 1366.42 961.047 C 1352.3 973.855 1323.9 945.982 1308.66 963.315 C 1310.61 974.921 1318.09 1004.63 1313 1013.63 C 1304.94 1027.87 1265.44 1001.33 1256.73 1012.78 C 1247.55 1024.85 1273.1 1062.8 1253.51 1070.67 C 1242.52 1073.62 1219.73 1063.46 1206.47 1061.71 C 1200.93 1066 1197.97 1069.45 1193.25 1074.61 L 1166.92 1046.36 C 1145.46 1021.41 1121.63 998.073 1099.54 973.659 C 1068.34 939.17 1035.1 905.991 1004.23 871.278 C 996.604 861.91 985.222 850.466 976.816 841.712 C 980.758 838.247 984.463 835.101 988.093 831.288 C 986.683 825.549 985.284 818.41 983.618 812.915 C 967.678 760.33 1000.61 779.627 1033.63 784.271 L 1041.59 777.498 C 1039.28 765.647 1025.64 722.839 1044.99 723.373 C 1057.57 723.72 1074.36 728.595 1087.11 731.018 C 1089.68 729.077 1092.73 726.894 1095.18 724.889 C 1092.68 713.12 1084.93 684.9 1089.49 673.906 C 1095.8 658.674 1138.61 684.906 1145.71 673.82 C 1154.12 660.691 1127.98 624.72 1149.43 616.48 C 1163.14 611.588 1190.74 631.857 1200 619.812 C 1208.06 609.323 1183.32 569.538 1202.59 564.039 C 1212.96 561.08 1237.36 570.241 1249.42 572.977 C 1251.68 570.554 1254.51 567.681 1256.45 565.101 C 1254.18 552.957 1242.46 512.307 1261.01 510.01 C 1273.83 508.421 1297.77 526.583 1308.9 515.639 C 1317.5 503.402 1293.13 464.083 1314.67 458.565 C 1330.4 454.534 1355.16 476.564 1365.41 462.026 C 1368.09 448.53 1348.37 401.374 1377.58 407.784 C 1390.57 410.637 1405.1 417.362 1418.33 421.105 C 1422.47 418.397 1426.84 415.719 1430.65 412.589 C 1435.67 339.736 1434.32 352.701 1487.26 384.588 L 1497.82 382.039 z"/>
<path transform="translate(0,0)" fill="rgb(107,108,107)" d="M 1497.82 382.039 C 1500.41 377.697 1503.86 372.356 1506.06 367.907 C 1534.33 310.769 1538.15 351.783 1560.14 382.418 L 1569.5 385.95 C 1579.09 379.825 1604.56 361.277 1613.63 362.937 C 1633.86 369.85 1610.78 416.678 1631.49 422.96 C 1641.95 425.673 1673.72 417.458 1680.82 426.736 C 1691.95 441.28 1655.71 469.347 1664.33 484.056 C 1672.54 495.755 1709.62 500.09 1708.29 516.69 C 1707.05 532.296 1669.05 538.867 1665.53 553.491 C 1662.23 567.177 1708.75 604.772 1680.48 611.452 C 1671.22 613.641 1646.87 614.898 1638.03 615.23 L 1622.85 637.154 C 1626.03 647.048 1638.08 678.163 1634 687.249 C 1626.87 703.124 1583.42 680.267 1577.07 692.925 C 1569.52 707.954 1605.42 756.864 1563.83 749.891 C 1552.85 748.05 1540.93 744.412 1529.41 743.296 L 1523.37 750.724 C 1525.28 761.794 1530.01 783.27 1530.3 793.336 C 1530.89 814.055 1491.14 798.141 1477.13 796.46 L 1470.54 803.718 L 1470.67 805.176 C 1472 818.889 1480.18 844.34 1475.52 855.599 C 1466.4 863.138 1436.19 851.513 1423.22 850.485 L 1415.68 857.908 C 1431.13 923.932 1425.29 915.67 1370.47 903.176 C 1367.58 902.517 1363.94 908.16 1362.39 910.585 C 1363.95 920.862 1371.95 956.027 1366.42 961.047 C 1352.3 973.855 1323.9 945.982 1308.66 963.315 C 1310.61 974.921 1318.09 1004.63 1313 1013.63 C 1304.94 1027.87 1265.44 1001.33 1256.73 1012.78 C 1247.55 1024.85 1273.1 1062.8 1253.51 1070.67 C 1242.52 1073.62 1219.73 1063.46 1206.47 1061.71 C 1200.93 1066 1197.97 1069.45 1193.25 1074.61 L 1166.92 1046.36 C 1173 1039.07 1195.82 1018.11 1204.01 1010.31 L 1274.11 943.111 C 1326.24 893.116 1377.86 842.589 1428.95 791.538 C 1473.36 747.322 1518.34 701.649 1559.66 654.489 C 1591.94 617.636 1632.6 565.819 1628.73 514.108 C 1626.95 487.101 1614.38 461.946 1593.85 444.308 C 1547.26 404.466 1491.95 415.333 1445.37 448.819 C 1408.81 475.101 1376.07 505.95 1343.19 536.625 C 1292.69 584.126 1242.78 632.256 1193.49 681.004 C 1151.82 721.705 1110.47 762.738 1069.45 804.1 C 1050.71 822.955 1020.9 851.689 1004.23 871.278 C 996.604 861.91 985.222 850.466 976.816 841.712 C 980.758 838.247 984.463 835.101 988.093 831.288 C 986.683 825.549 985.284 818.41 983.618 812.915 C 967.678 760.33 1000.61 779.627 1033.63 784.271 L 1041.59 777.498 C 1039.28 765.647 1025.64 722.839 1044.99 723.373 C 1057.57 723.72 1074.36 728.595 1087.11 731.018 C 1089.68 729.077 1092.73 726.894 1095.18 724.889 C 1092.68 713.12 1084.93 684.9 1089.49 673.906 C 1095.8 658.674 1138.61 684.906 1145.71 673.82 C 1154.12 660.691 1127.98 624.72 1149.43 616.48 C 1163.14 611.588 1190.74 631.857 1200 619.812 C 1208.06 609.323 1183.32 569.538 1202.59 564.039 C 1212.96 561.08 1237.36 570.241 1249.42 572.977 C 1251.68 570.554 1254.51 567.681 1256.45 565.101 C 1254.18 552.957 1242.46 512.307 1261.01 510.01 C 1273.83 508.421 1297.77 526.583 1308.9 515.639 C 1317.5 503.402 1293.13 464.083 1314.67 458.565 C 1330.4 454.534 1355.16 476.564 1365.41 462.026 C 1368.09 448.53 1348.37 401.374 1377.58 407.784 C 1390.57 410.637 1405.1 417.362 1418.33 421.105 C 1422.47 418.397 1426.84 415.719 1430.65 412.589 C 1435.67 339.736 1434.32 352.701 1487.26 384.588 L 1497.82 382.039 z"/>
</svg>