<svg version="1.1" xmlns="http://www.w3.org/2000/svg" style="display: block;" viewBox="0 0 2048 2048" width="1024" height="1024" preserveAspectRatio="none">
<path transform="translate(0,0)" fill="rgb(146,145,145)" d="M 1055.38 724.776 L 1171.71 840.585 C 1192.56 861.455 1230.05 903.316 1256.39 919.101 C 1263.25 923.211 1295.32 921.271 1304.22 921.909 C 1315.28 922.042 1326.64 921.913 1337.81 921.913 L 1447.85 921.869 C 1449.61 921.864 1451.08 921.793 1452.83 921.685 C 1467.68 937.998 1496.45 964.132 1508.76 979.116 C 1489.38 992.331 1469.87 1005.36 1450.23 1018.19 C 1436.32 1015.36 1422.46 1012.32 1408.64 1009.07 C 1405.26 1023.42 1401.72 1040.2 1397.85 1054.21 C 1384.07 1051.11 1370.33 1047.81 1356.63 1044.33 C 1353.37 1059.82 1349.81 1075.25 1345.93 1090.6 L 1303.82 1080.29 C 1302.06 1090.19 1296.58 1116.47 1293.63 1126.08 C 1279.58 1122.94 1265.56 1119.66 1251.57 1116.24 L 1241.85 1161.52 C 1228.24 1159.68 1214.74 1154.51 1200.31 1152.28 C 1196.68 1166.48 1193.16 1184.56 1189.39 1197.79 C 1175.93 1194.38 1162.2 1190.73 1148.73 1187.51 C 1144.67 1203.21 1140.83 1217.93 1137.92 1233.88 C 1124.13 1230.14 1110.27 1226.63 1096.36 1223.37 C 1093.26 1238.64 1089.79 1253.83 1085.96 1268.93 C 1074.81 1265.9 1055.35 1261.37 1043.81 1259.3 C 1040.78 1273.49 1036.32 1290.31 1032.49 1304.47 C 1030.92 1303.97 1024.48 1302.04 1023.35 1301.51 C 1013.93 1299.01 1001.07 1296.58 991.333 1295.08 C 985.997 1312.68 984.642 1322.28 980.705 1339.54 C 973.759 1338.44 966.848 1337.14 959.978 1335.65 L 939 1330.36 C 935.437 1345.67 931.345 1361.46 928.247 1376.79 C 924.037 1375.71 919.376 1374.39 915.16 1373.54 C 906.161 1370.8 896.068 1368.62 886.85 1366.43 C 882.578 1381.65 879.526 1396.9 875.423 1411.87 C 861.365 1409.11 847.376 1405.28 833.544 1402.68 C 831.369 1416.53 827.638 1434.09 824.358 1447.79 C 814.548 1446.03 791.692 1441.02 782.715 1437.51 C 779.414 1451.82 775.554 1469.34 771.683 1483.47 C 757.549 1481.41 744.227 1476.37 730.504 1474.02 C 727.037 1486.5 724.543 1498.5 721.839 1511.16 C 716.619 1506.71 718.86 1491.69 718.893 1484.25 L 718.976 1427.98 L 719.024 1217.04 L 719.115 1152.55 C 719.117 1141.82 719.536 1123.24 718.226 1113.22 C 721.43 1108.21 735.958 1092.3 740.549 1087.09 L 783.704 1037.66 L 859.969 950.138 C 877.099 930.227 895.924 907.169 913.817 888.249 C 924.792 873.748 947.04 849.57 959.634 835.641 C 963.744 829.715 974.418 818.236 979.607 812.231 L 1022.27 762.738 C 1029.79 752.855 1046.62 734.85 1055.38 724.776 z"/>
<path transform="translate(0,0)" fill="rgb(178,177,176)" d="M 913.817 888.249 C 917.586 897.156 915.009 1322.16 915.16 1373.54 C 906.161 1370.8 896.068 1368.62 886.85 1366.43 C 882.578 1381.65 879.526 1396.9 875.423 1411.87 C 861.365 1409.11 847.376 1405.28 833.544 1402.68 C 831.369 1416.53 827.638 1434.09 824.358 1447.79 C 814.548 1446.03 791.692 1441.02 782.715 1437.51 C 779.414 1451.82 775.554 1469.34 771.683 1483.47 C 757.549 1481.41 744.227 1476.37 730.504 1474.02 C 727.037 1486.5 724.543 1498.5 721.839 1511.16 C 716.619 1506.71 718.86 1491.69 718.893 1484.25 L 718.976 1427.98 L 719.024 1217.04 L 719.115 1152.55 C 719.117 1141.82 719.536 1123.24 718.226 1113.22 C 721.43 1108.21 735.958 1092.3 740.549 1087.09 L 783.704 1037.66 L 859.969 950.138 C 877.099 930.227 895.924 907.169 913.817 888.249 z"/>
<path transform="translate(0,0)" fill="rgb(178,177,176)" d="M 959.634 835.641 C 963.744 829.715 974.418 818.236 979.607 812.231 L 1022.27 762.738 C 1023.46 766.264 1023.75 768.83 1023.72 772.442 C 1023.41 814.545 1025.26 1297.02 1023.35 1301.51 C 1013.93 1299.01 1001.07 1296.58 991.333 1295.08 C 985.997 1312.68 984.642 1322.28 980.705 1339.54 C 973.759 1338.44 966.848 1337.14 959.978 1335.65 L 939 1330.36 C 935.437 1345.67 931.345 1361.46 928.247 1376.79 C 924.037 1375.71 919.376 1374.39 915.16 1373.54 C 915.009 1322.16 917.586 897.156 913.817 888.249 C 924.792 873.748 947.04 849.57 959.634 835.641 z"/>
<path transform="translate(0,0)" fill="rgb(146,145,145)" d="M 959.634 835.641 C 961.817 890.504 959.935 956.159 959.947 1011.73 L 959.978 1335.65 L 939 1330.36 C 935.437 1345.67 931.345 1361.46 928.247 1376.79 C 924.037 1375.71 919.376 1374.39 915.16 1373.54 C 915.009 1322.16 917.586 897.156 913.817 888.249 C 924.792 873.748 947.04 849.57 959.634 835.641 z"/>
<path transform="translate(0,0)" fill="rgb(163,105,55)" d="M 1049.22 668.298 L 1260.44 457.145 L 1328.79 388.884 C 1340.65 377.013 1353.25 363.334 1365.79 352.725 C 1398 325.486 1449.44 350.403 1452.53 391.509 C 1453.97 410.729 1448.61 422.037 1436.72 436.001 C 1524.1 495.171 1588.92 548.248 1650.66 634.73 C 1681.25 599.621 1729.47 610.474 1747.24 652.587 C 1757.27 691.29 1737.37 706.238 1712.95 730.57 L 1657.85 785.439 L 1572.02 870.914 C 1560.07 882.737 1530.5 915.783 1515.68 920.227 C 1500.64 924.737 1469.7 919.894 1452.83 921.685 C 1451.08 921.793 1449.61 921.864 1447.85 921.869 L 1337.81 921.913 C 1326.64 921.913 1315.28 922.042 1304.22 921.909 C 1295.32 921.271 1263.25 923.211 1256.39 919.101 C 1230.05 903.316 1192.56 861.455 1171.71 840.585 L 1055.38 724.776 C 1036.36 706.59 1029.44 689.942 1049.22 668.298 z M 1532.16 728.494 C 1529.57 721.91 1524.92 712.147 1520.19 706.978 C 1499.43 684.295 1476.65 662.693 1454.82 641.031 C 1428.38 614.913 1402.53 588.245 1375.73 562.499 C 1342.24 530.317 1289.59 540.658 1270 582.563 C 1260.62 607.674 1263.52 632.912 1282.64 652.6 C 1329.23 700.583 1376.95 747.798 1424.66 794.674 C 1430.34 800.252 1439.3 805.473 1446.76 808.08 C 1463.48 814.092 1481.91 813.163 1497.94 805.503 C 1529.97 789.931 1537.42 761.684 1532.16 728.494 z"/>
<path transform="translate(0,0)" fill="rgb(135,81,36)" d="M 1747.24 652.587 C 1757.27 691.29 1737.37 706.238 1712.95 730.57 L 1657.85 785.439 L 1572.02 870.914 C 1560.07 882.737 1530.5 915.783 1515.68 920.227 C 1500.64 924.737 1469.7 919.894 1452.83 921.685 C 1451.08 921.793 1449.61 921.864 1447.85 921.869 L 1337.81 921.913 C 1326.64 921.913 1315.28 922.042 1304.22 921.909 C 1295.32 921.271 1263.25 923.211 1256.39 919.101 C 1230.05 903.316 1192.56 861.455 1171.71 840.585 L 1055.38 724.776 C 1036.36 706.59 1029.44 689.942 1049.22 668.298 C 1049.37 670.066 1049.64 673.172 1050.88 674.597 C 1068.27 694.488 1088.13 712.531 1106.69 731.249 L 1193.56 818.179 C 1203.6 828.226 1251.92 879.687 1263.08 880.794 C 1296.32 884.091 1336.02 882.82 1369.94 882.87 L 1454.58 882.881 C 1467.57 882.82 1509.43 884.276 1520.2 877.797 C 1526.38 874.083 1544.23 855.265 1550.53 849.04 L 1606.43 793.234 L 1685.35 715.137 C 1704.85 696.044 1729.76 672.998 1747.24 652.587 z"/>
<path transform="translate(0,0)" fill="rgb(135,81,36)" d="M 1270 582.563 C 1256.07 520.039 1325.41 481.804 1372.75 517.342 C 1393.19 532.688 1418.16 560.552 1436.87 579.31 L 1482.9 625.299 C 1504.35 646.705 1529.61 667.67 1534.21 699.124 C 1535.49 707.885 1536.06 720.471 1532.16 728.494 C 1529.57 721.91 1524.92 712.147 1520.19 706.978 C 1499.43 684.295 1476.65 662.693 1454.82 641.031 C 1428.38 614.913 1402.53 588.245 1375.73 562.499 C 1342.24 530.317 1289.59 540.658 1270 582.563 z"/>
<path transform="translate(0,0)" fill="rgb(146,145,145)" d="M 390.028 1707.04 C 381.966 1700.42 372.583 1689.65 365.442 1681.62 C 347.446 1661.38 327.735 1642.58 310.518 1621.7 C 306.863 1617.27 302.817 1610.39 301.518 1604.88 C 300.535 1600.72 304.171 1593.02 306.67 1589.73 C 321.428 1572.02 336.998 1554.24 352.092 1536.83 L 435.328 1440.29 L 718.226 1113.22 C 719.536 1123.24 719.117 1141.82 719.115 1152.55 L 719.024 1217.04 L 718.976 1427.98 L 718.893 1484.25 C 718.86 1491.69 716.619 1506.71 721.839 1511.16 C 721.391 1514.54 721.437 1514.8 720.173 1518.13 C 716.147 1519.69 684.419 1511.24 677.59 1509.7 C 675.096 1523.66 671.05 1540.41 668.007 1554.52 C 654.013 1551.75 640.084 1548.67 626.228 1545.28 C 622.773 1560.59 619.418 1576.36 615.323 1591.47 C 605.339 1587.98 585.511 1583.75 574.607 1581.12 C 570.79 1596.45 566.835 1611.75 562.743 1627.01 C 549.109 1623.39 535.395 1620.08 521.611 1617.07 C 517.665 1631.98 515.264 1648.52 510.417 1663.03 C 496.955 1659.83 483.51 1656.57 470.082 1653.24 C 466.496 1664.84 461.185 1687.22 459.612 1699.4 C 446.319 1696.39 432.658 1693.46 419.521 1689.96 C 410.081 1694.49 399.499 1701.68 390.028 1707.04 z"/>
</svg>