<svg xmlns="http://www.w3.org/2000/svg" viewBox="0 0 2048 2048" width="200" height="200">
<path fill="rgb(66,112,146)" d="M 1322.96 914.628 C 1329.52 919.166 1312.35 997.12 1339.46 1006.25 C 1359.25 1012.92 1363.45 1009 1381.07 1009.97 C 1473.96 1015.11 1461.93 1002.02 1461.11 915.102 C 1510.75 915.042 1561.33 915.583 1610.86 915.002 L 1610.87 1318.64 L 1610.98 1437.8 C 1610.99 1456.7 1611.45 1477.15 1610.36 1495.91 C 1608.95 1504.78 1602.63 1514.55 1596.82 1520.79 C 1580.25 1538.6 1559.73 1535.43 1537.26 1535.26 L 1486.92 1535.02 L 1309.81 1534.94 L 719.5 1535.03 L 547.318 1534.57 C 538.657 1534.57 530.394 1534.85 521.325 1534.77 C 492.53 1534.54 461.101 1541.6 444.073 1511.46 C 441.691 1507.25 438.747 1501.64 438.409 1496.82 C 437.018 1476.99 437.55 1456.72 437.552 1436.8 L 437.528 1322.59 L 437.064 915.078 C 486.915 914.869 537.051 915.987 586.885 914.911 C 586.417 930.092 586.195 945.582 586.547 960.533 C 586.882 974.746 585.383 989.994 594.951 1001.41 C 600.196 1007.67 614.435 1010.34 621.901 1010.19 C 648.792 1009.65 676.213 1011.75 702.893 1009.06 C 711.833 1006.74 721.947 997.48 722.957 987.824 C 725.391 964.545 724.154 938.697 724.162 915.111 C 922.964 914.959 1124.51 917.052 1322.96 914.628 z"/>
<path fill="rgb(230,153,76)" d="M 1009.27 983.5 C 1060.53 979.673 1113.98 991.85 1150.23 1030.35 C 1173.01 1054.55 1185.52 1083.88 1184.84 1117.27 C 1183.56 1180.14 1127.45 1215.69 1086.66 1254.77 C 1060.4 1279.88 1062.96 1295.48 1062.18 1329.82 L 982.605 1329.9 C 982.173 1285.22 982.582 1256.82 1011.3 1220.31 C 1019.65 1210.86 1028.67 1202.03 1038.29 1193.88 C 1057.33 1177.6 1094.42 1152.11 1099.02 1126.52 C 1111.08 1059.51 1030.2 1032.17 981.269 1063.18 C 956.474 1078.89 949.422 1104.32 943.862 1131.06 C 937.594 1129.53 925.514 1128.38 918.524 1127.36 C 900.144 1124.67 881.507 1122.67 863.173 1119.62 C 872.202 1036.32 927.444 990.385 1009.27 983.5 z"/>
<path fill="rgb(230,153,76)" d="M 982.262 1360.87 L 1068.89 1360.98 L 1069.1 1446.89 C 1040.54 1446.54 1011.15 1446.92 982.526 1446.94 L 982.262 1360.87 z"/>
<path fill="rgb(66,112,146)" d="M 871.058 512.579 C 875.533 512.401 880.011 512.287 884.489 512.237 C 949.011 511.654 1014.07 512.857 1078.75 512.851 L 1140.14 512.801 C 1158.15 512.74 1178.06 511.627 1195.51 515.207 C 1212.73 518.644 1228.52 527.15 1240.88 539.631 C 1270.85 569.603 1269.18 600.558 1269.21 639.319 L 1269.19 696.634 C 1270.84 696.528 1272.48 696.448 1274.13 696.394 C 1298.07 695.803 1324.73 696.42 1348.84 696.445 L 1489.82 696.432 L 1559.28 696.4 C 1572.77 696.383 1590.01 695.605 1602.71 697.596 C 1618.04 699.999 1634.61 717.433 1636.52 732.773 C 1638.24 742.349 1637.9 752.149 1637.83 761.901 C 1637.5 803.594 1638.52 845.249 1638.07 886.939 C 1616.29 886 1590.54 886.601 1568.49 886.621 C 1532.66 886.515 1496.83 886.693 1461 887.154 C 1461.21 856.621 1469.66 805.299 1424.33 810.784 C 1392.3 814.658 1326.24 795.595 1324.06 841.209 C 1323.38 855.323 1324.46 872.684 1324.5 886.927 C 1276.87 885.934 1223.49 887.28 1175.29 887.226 C 1124.64 887.922 1072.73 887.463 1021.99 887.466 L 723.952 887.12 C 724.203 868.309 727.966 832.102 715.017 819.66 C 707.169 812.12 700.341 810.701 689.522 810.798 C 663.282 811.061 636.135 808.96 610.094 811.986 C 602.42 812.878 589.861 823.74 588.459 831.415 C 585.294 848.746 586.788 869.033 586.986 886.838 C 564.211 885.983 537.436 886.607 514.239 886.576 C 479.462 886.31 444.683 886.433 409.909 886.945 C 410.651 842.574 409.364 797.41 409.955 752.982 C 409.922 736.196 412.255 721.715 424.778 709.497 C 441.865 692.826 462.856 696.557 485.062 696.633 L 551.967 696.839 C 627.677 696.318 703.389 696.331 779.099 696.88 C 778.057 680.575 778.573 661.749 778.49 645.209 C 778.302 607.53 774.968 576.274 801.45 545.576 C 820.236 523.799 843.012 514.636 871.058 512.579 z M 851.139 600.364 C 849.812 632.03 852.159 666.082 850.389 696.667 L 1075.32 696.452 C 1108.1 696.377 1143.76 695.492 1176.25 696.026 L 1197.99 695.983 C 1195.94 679.055 1197.21 645.322 1197.43 627.348 C 1198.05 577.57 1184.23 584.124 1139.83 584.572 C 1122.23 584.767 1104.63 584.83 1087.02 584.762 C 1017.07 584.751 945.828 585.418 875.969 584.367 C 862.672 585.633 857.86 588.534 851.139 600.364 z"/>
<path fill="rgb(66,112,146)" d="M 1352.07 839.004 L 1432.96 839.072 C 1432.49 878.915 1433.05 918.814 1432.9 958.66 C 1432.87 965.341 1433.8 975.476 1432.58 981.665 L 1430.79 982.59 C 1414.09 981.569 1368.55 981.951 1352.49 982.872 C 1352.52 963.916 1350.67 943.954 1351.39 925.237 C 1352.51 896.344 1352.87 867.943 1352.07 839.004 z"/>
<path fill="rgb(66,112,146)" d="M 615.19 838.981 C 640.677 839.886 670.456 839.423 696.024 838.953 C 694.605 885.632 696.937 936.069 694.956 981.25 C 692.523 983.006 691.379 982.468 687.83 982.742 C 663.565 982.393 639.296 982.439 615.032 982.88 C 615.742 966.953 615.057 946.908 615.023 930.701 L 615.19 838.981 z"/>
</svg>
