<svg xmlns="http://www.w3.org/2000/svg" viewBox="0 0 270 33"><g fill="none" stroke-width="2"><path stroke="#7a7a74" d="M11.95 4.09q-.47-1.4-1.25-2.34a1.13 1.13 0 0 0-.88-.42H6.24a1.19 1.18 21.2 0 0-.87.38q-.83.93-1.19 2.3"/><path stroke="#5e4d25" d="m4.18 4.01-.1-.02"/><path stroke="#7a7a74" d="m18.46 1.09.02.17"/><path stroke="#d5c294" d="M18.48 1.26q.71.54 1.47.54m-.03 25.91q-.27.24-.38.58"/><path stroke="#7a7a74" d="m19.54 28.29-.83.63m-1.45.25q-3.22.5-4.08-2.38-1.18-3.91-2.38-8.04a.21.21 0 0 0-.41.05q-.04 2.34-.13 8.45-.01 1.18-.8 1.67m-3.77 0q-1.4-.95-1.37-2.92.14-7.11-.18-11.3m-.04-.4q1.39-3.93.12-8.1"/><path stroke="#d5c294" d="m4.22 6.2-.04-2.19"/><path stroke="#7a7a74" d="m11.95 4.09 1.24 4.48a.3.29-50.7 0 0 .58-.06l.41-5.55"/><path stroke="#d5c294" d="m14.18 2.96.29-1.06"/><path stroke="#5e4d25" d="M4.22 6.2q-.06 0-.13.01m10.09-3.25-.25-.25"/><path stroke="#7a7a74" d="M17.85 1.16q-2.32.06-3.38.74"/><path stroke="#5e4d25" d="M14.47 1.9q.07.14-.37.14m5.81-.76-1.43-.02m1.44 26.95-.38.08"/><path stroke="#7a7a74" d="M57.06 4.51Q54.04.23 48.98.94q-.76.11-3.2.86m54.66-.75q-3.29-.57-6.68.72m61.21 4.02q-.95 9.69.12 19.19m-1.96 1.19q.88-6.3.69-17.38c-.11-6.73-4.54-8.37-10.3-7.62m25.4 3.36q-1.42-2.41-3.64-3.1-6.62-2.08-10.19 3.44"/><path stroke="#756432" d="M259.69 10.78q2.01-.06 3.62-1.2a1.2 1.2 0 0 0 .48-.75c.97-4.91-3.57-7.55-7.9-7.13a3.35 3.28-60.3 0 0-1.09.31q-3.93 1.92-3.95 6.52c-.01 5.02 2.5 6.2 5.04 9.36"/><path stroke="#756432" d="M255.89 17.89q3.3 1.98 2.45 5.7a.72.72 0 0 1-.62.56q-1.84.23-1.98-3.39a1.69 1.69 0 0 0-2.53-1.4l-.81.47a3.47 3.46-21.5 0 0-1.65 3.77q1.21 5.29 6.24 5.64 5.44.38 6.8-4.05 2.35-7.63-3.58-11.49-2.41-1.57-3.08-2.41-1.31-1.64-1.18-3.69a1.29 1.26-54.3 0 1 2.46-.43q.38 1-.32 1.91"/><path stroke="#756432" d="M258 9.5q1.27.55 1.55 1.2M204.6 7.18q1.55-.35 1.55.82c.01 5.44-.86 15.35 1.76 18.5q2.93 3.53 8.48 2.04 3.48-.94 3.65-4.29.1-1.87.33-11.73.11-4.47-.75-6.32-2.26-4.89-7.1-4.66a2.04 2.02-58.2 0 0-.71.17q-1.6.67-2.74.49a.74.74 0 0 0-.76.37q-.46.84-2.24.5a.64.63-7.6 0 1-.45-.34q-.37-.73-1.49-.79-3.51-.2-10.75-.01-1.42.04-1.51 2.9a1.76 1.76 0 0 0 1.76 1.82h.86a1.68 1.68 0 0 1 1.68 1.68V27.3a1.54 1.54 0 0 0 1.54 1.54h2.25a1.82 1.81 90 0 0 1.81-1.82V8.32a1.33 1.31-5 0 1 1.1-1.29q1.54-.26 1.73.15m31.576.934a6.2 6.2 0 0 0-6.179-6.221l-1.52-.006a6.2 6.2 0 0 0-6.221 6.179l-.052 14.62a6.2 6.2 0 0 0 6.179 6.221l1.52.006a6.2 6.2 0 0 0 6.221-6.179l.052-14.62m7.874 15.696a1.08 1.08 0 0 1-1.08-1.08V2.66a1.08 1.08 0 0 0-1.35-1.05l-2.58.66a1.08 1.08 0 0 0-.81 1.05v24.34a1.08 1.08 0 0 0 1.08 1.08h10.03a1.08 1.08 0 0 0 1.05-1.35l-.7-2.77a1.08 1.08 0 0 0-1.05-.81h-4.59"/><path stroke="#7a7a74" d="m57.01 4.81.2 5.68a.81.81 0 0 1-.43.75q-1.18.66-2.57.51"/><path stroke="#d5c294" d="M54.21 11.75q-.82-.21-1.44.09"/><path stroke="#7a7a74" d="M52.77 11.84q-1.34-.93-1.56-1.85"/><path stroke="#d5c294" d="M51.21 9.99q.25-.63-.05-1.25"/><path stroke="#7a7a74" d="M51.16 8.74q.24-.84.01-1.55a.67.66-13.1 0 0-.74-.45q-.75.13-1.23 1.25m-.25 3.73q-.23.65-.11 1.35a.51.51 0 0 0 .42.42q.59.1 1.05-.5"/><path stroke="#d5c294" d="M51.96 13.11q.3.2.75.16"/><path stroke="#7a7a74" d="m52.71 13.27 2.89.01a2.11 2.11 0 0 1 2.09 1.89q.51 4.92-.37 9.85m-.34.81q-1.93 2.18-3.63 3.08m0 0q-7.18 1.78-10.24-3.71m0 0q-1.26-4.17-.57-8.57a4.58 4.47-44.3 0 0 .03-1.16c-.57-5.12-.66-9.92 3.21-13.67m3.31 18.97q-.04 1.25.39 2.32a1.01 1.01 0 0 0 1.85.07q.15-.29-.12-.89"/><path stroke="#7a7a74" d="M51.21 22.27q.45-1.35-.03-2.64a.9.87-1 0 0-.57-.53q-.96-.29-1.53-2.34a.15.15 0 0 0-.28 0q-.31 1.17.12 2.34m51.52-18.05q2.6 1.04 4.61 3.05m.22 1.11q1.05 8.62.48 17.78-.06 1-.44 1.98m-.4 1.01q-.69.4-.89 1.26m-.77.74-2 .95m0 0q-2.81.62-5.65.12m-.55-.11-4.18-3.39m.17-.52q.01-.5-.14-.77a.39.39 0 0 0-.71.07l-.23.66m0 0q-1.87 3.71-4.73 3.76-3.88.06-7.78.14m-1.16.01-1.24-.91m0 0-.01-25.34a1.27 1.26 90 0 1 1.26-1.27q3.64 0 7.2.08c7.01.17 7.11 7.62 5.57 12.52"/><path stroke="#7a7a74" d="m89.17 15.11 1.06 6.68a.04.04 0 0 0 .04.03l.25-.02a.27.27 0 0 0 .25-.29q-.61-6.89.01-13.77.32-3.45 2.72-5.79m3.54 7.1a8.83 1.54 89.1 0 0 .11 11.87"/><path stroke="#7a7a74" d="M97.32 21.86a8.82 1.53 89 0 0 1.49 1.75 8.83 1.54 89.2 0 0 .51-14.14"/><path stroke="#d5c294" d="M99.32 9.47a9.48 1.73 89.9 0 0-.29-1.46"/><path stroke="#7a7a74" d="M99.03 8.01a8.82 1.53 88.9 0 0-.73-1.58 8.85 1.54 89 0 0-1.07 1.59"/><path stroke="#5e4d25" d="M99.32 9.47q-.17.04-.24.07"/><path stroke="#7a7a74" d="M83.01 7.98q.13-.51-.08-.83a.76.76 0 0 0-1.38.41q-.07 2.85-.19 4.23a.49.49 0 0 0 .74.47l.98-.56a1.06 1.06 0 0 0 .51-1.15l-.58-2.57m-.07 14.99q.12.07.23.13a.21.21 0 0 0 .3-.09q.95-2.15.03-4.53-.02-.07-.23-.19-.15-.09-.32-.11m-.72-.24q.07-.36-.44-.24a.54.53 83.1 0 0-.4.52v4.39a.53.53 0 0 0 .5.53q.89.05.31-.14m-40.38 2.01-.06-21.16a2.51 2.51 0 0 0-2.51-2.5h-2.7a1.08 1.08 0 0 0-1.08 1.05l-.26 10.63"/><path stroke="#5e4d25" d="m35.21 13.03-.08 2.18"/><path stroke="#7a7a74" d="M31.73 18.02q2.97-3.19.66-5.97"/><path stroke="#5e4d25" d="M34.21 6.93q-.09-.4.04-.47"/><path stroke="#7a7a74" d="M34.25 6.46q.74-1.64.12-4.19a1.15 1.14 83.3 0 0-1.11-.88q-5.26.01-10.76 0-.5 0-1.13.83"/><path stroke="#1a1b11" d="M21.37 2.22q-.08.23-.32.49"/><path stroke="#7a7a74" d="M64.95 2.15q-2.06-1.13-5-.74a1.02 1.02 0 0 0-.79.57q-.99 2.05-.81 3.28.61 4.31.36 8.07-.21 3.19-.18 6.87.03 3.44-.43 6.87"/><path stroke="#5e4d25" d="M52.71 13.27v-.2m1.52-1.12-.02-.2"/><path stroke="#7a7a74" d="m73.51 28.97.31-26.18a1.39 1.39 0 0 0-1.39-1.4h-3a1.63 1.63 0 0 0-1.63 1.63v8.38a.75.75 0 0 1-.55.72q-.5.13-1.02-.05m51.94-10.24-10.24-.48a.74.73-78.2 0 0-.71.47q-.86 2.25-.81 3.96.29 9.08.09 15.19a2.46 2.42 36.1 0 0 .16.97q.82 2.15-.11 3.93a1.99 1.96-78.7 0 0 1.91 2.92c1.51-.16 3.34.41 4.53-.8m30.4-26.83q-4.47 1.83-4.46 6.85.02 8.59.06 17.22m-3.75 3.7q2.35.39 2.44-2.37.26-8.3-.11-23.34a1.88 1.88 0 0 0-1.88-1.84h-2.58a1.93 1.93 0 0 0-1.93 1.93v7.95a.84.84 0 0 1-.84.84h-.46a.98.98 0 0 1-.98-.98V3.3a1.93 1.92 0 0 0-1.93-1.92h-2.55a1.93 1.93 0 0 0-1.93 1.88q-.29 10.57-.16 22.53.02 1.6.85 2.99m-1.32.14-.6-5.92m0-8.99.2-7.83m29.8 21.79-2.08.93m-.53.19-5.44-.03m0 0-2.37-1.19m-.21-.24q-.18-.3-.47-.5m0 0q-.34-1-.97-1.72m7.85-2.43q.12-.05.16-.48.55-7.39-.03-14.79m-.71-.7q-.01-.23-.11-.27a1.02.94-78.4 0 0-1.31.94q-.25 7.61-.12 14.64.03 1.38 1.59 1.08a.56.56 0 0 0 .34-.21q.07-.09.19-.21"/><path stroke="#919181" d="M169.29 5.24q1.12 9.73-.06 19.85-.06.54-.45.99"/><path stroke="#7a7a74" d="m168.78 26.08-.62.78m-1.24 1.17-1.71.91m-.63.18-5.35-.16m0 0q-2.56-1.12-3.97-3.43m7.91-2.83.16-14.94a1 1 0 0 0-.86-1l-.3-.04a.96.96 0 0 0-1.08.95q0 6.8-.18 14.42-.03 1.12 1 1.34.95.21.98-.45"/><path stroke="#756432" d="M180.96 28.94v-.21"/><path stroke="#919181" d="M180.96 28.73q3.6-1.48 4.04-4.75.68-5.07.23-15.51-.28-6.48-6.77-6.82-3.38-.17-6.33-.07a1.45 1.45 0 0 0-1.4 1.45l-.03 24.91"/><path stroke="#d5c294" d="M34.25 6.46q-.71.22-.8.46m-2.15-.03-2.28-.21"/><path stroke="#7a7a74" d="M29.02 6.68q-3.54 3.28.2 5.51"/><path stroke="#d5c294" d="M30.29 17.9q-.56-.31-1.33-.02"/><path stroke="#7a7a74" d="M28.96 17.88q-1.06-.22-.96.04m0 0q-.3.38-.35.83"/><path stroke="#d5c294" d="M27.65 18.75q-.25-.07-.35.59"/><path stroke="#7a7a74" d="M27.3 19.34q.59 1.7.25 3.42a.42.42 0 0 0 .13.4q.37.33.62-.03m.94-.05 4.81.06m.35.15q.48 1.93.29 4.39-.07.87-.12.92-.21.24-.88.31m-.45.05q-5.14.76-10.28.09"/><path stroke="#919181" d="m22.28 28.88-.61-.88a1.59 1.52 29.1 0 1-.27-.87l-.03-24.91"/><path stroke="#7a7a74" d="M41.9 27.46q-.64.97-1.7 1.45m-2.95.02q-2.51.25-1.63-7.03"/><path stroke="#d5c294" d="m35.62 21.9-.41-8.87"/><path stroke="#7a7a74" d="M68.69 28.91q-.91-.22-.83-1.66.29-5.12-.6-9.13a.89.86 12.4 0 0-.35-.53q-.86-.59-1.84.41m-.1 9.77q-.73.92-1.77 1.14m-1.17-.03q-2.32.25-3.93-1.46m60.23-25.37q1.54 1.24 2.61 2.93m-.06 9.72c-2.21 1.69-1.85 5.27-.12 7.21m-4.02 6.98c-1.68-.54-1.83-3.22-2.49-4.45m.05-.12q-.06-2.28-1.17-4.11a.17.17 0 0 0-.32.1l.2 3.48m-.05 1.19q-.28 1.53.03 3.01M113 8.86q-.36 1.1.03 1.94m-.19.75q.03 2.64 2.05.35 1.06-1.2.09-2.85m0 0q.32-1.16-.36-1.66-.31-.23-.78-.15-.6.1-.69.41m19.12 21.29q-2.19-3.38-.73-9.58a1.4 1.39-72.3 0 0-.82-1.61q-.66-.28-1.78.19-.49.91-.36 1.81.53 3.67.38 6.82c-.08 1.83-1 2.54-2.77 2.3m-1.09.08-1.92-.17"/><path stroke="#d5c294" d="M180.96 28.73q-1.3-.1-.84.26"/><path stroke="#919181" d="m180.12 28.99-7.75.1"/><path stroke="#7a7a74" d="m172.27 28.91-.23-.21"/><path stroke="#d5c294" d="M172.04 28.7q-.43-.31-.98-.24"/><path stroke="#7a7a74" d="M178.95 8.11q.17-.68-.77-1.32a.76.76 0 0 0-1.19.63v15.44a.52.52 0 0 0 .52.52h.29a1.43 1.43 0 0 0 1.42-1.27q.81-7.48-.11-13.27"/><path stroke="#756432" d="M214.76 8.12a1.45 1.45 0 0 0-1.46-1.44h-.08a1.45 1.45 0 0 0-1.44 1.46l.1 14.32a1.45 1.45 0 0 0 1.46 1.44h.08a1.45 1.45 0 0 0 1.44-1.46l-.1-14.32"/><path stroke="#877339" d="M230.845 8.41a1.88 1.88 0 0 0-1.87-1.89h-.12a1.88 1.88 0 0 0-1.89 1.87l-.07 13.54a1.88 1.88 0 0 0 1.87 1.89h.12a1.88 1.88 0 0 0 1.89-1.87l.07-13.54"/><path stroke="#5e4d25" d="M29.02 6.68q.19.17.38.35m21.76 1.71q-.04.02-.07.05m.12 1.2q-.06-.02-.13-.04m1.69 1.89q-.03.04-.06.07M35.62 21.9l-.53-3.77m-6.13-.25v.03m-1.66 1.43q.3-.27.35-.59m144.39 9.95-.75.07"/></g><g fill="#f1efe3"><path d="M57.06 4.51q-.02.15-.05.3l.2 5.68a.81.81 0 0 1-.43.75q-1.18.66-2.57.51-.82-.21-1.44.09-1.34-.93-1.56-1.85.25-.63-.05-1.25.24-.84.01-1.55a.67.66-13.1 0 0-.74-.45q-.75.13-1.23 1.25-.45 1.7-.25 3.73-.23.65-.11 1.35a.51.51 0 0 0 .42.42q.59.1 1.05-.5l1.65.12q.3.2.75.16l2.89.01a2.11 2.11 0 0 1 2.09 1.89q.51 4.92-.37 9.85-.41.36-.34.81-1.93 2.18-3.63 3.08-7.18 1.78-10.24-3.71-1.26-4.17-.57-8.57a4.58 4.47-44.3 0 0 .03-1.16c-.57-5.12-.66-9.92 3.21-13.67q2.44-.75 3.2-.86 5.06-.71 8.08 3.57M48.92 19.1q-.07.98.17 1.67-.04 1.25.39 2.32a1.01 1.01 0 0 0 1.85.07q.15-.29-.12-.89.45-1.35-.03-2.64a.9.87-1 0 0-.57-.53q-.96-.29-1.53-2.34a.15.15 0 0 0-.28 0q-.31 1.17.12 2.34m51.52-18.05q2.6 1.04 4.61 3.05-.3-.13.22 1.11 1.05 8.62.48 17.78-.06 1-.44 1.98l-.4 1.01q-.69.4-.89 1.26l-.77.74-2 .95q-2.81.62-5.65.12l-.55-.11-4.18-3.39q.26.26.17-.52.01-.5-.14-.77a.39.39 0 0 0-.71.07l-.23.66q-1.87 3.71-4.73 3.76-3.88.06-7.78.14l-1.16.01-1.24-.91-.01-25.34a1.27 1.26 90 0 1 1.26-1.27q3.64 0 7.2.08c7.01.17 7.11 7.62 5.57 12.52q-.39.33.1 1.13l1.06 6.68a.04.04 0 0 0 .04.03l.25-.02a.27.27 0 0 0 .25-.29q-.61-6.89.01-13.77.32-3.45 2.72-5.79.21-.08.26-.18 3.39-1.29 6.68-.72m-3.21 6.97a8.7 1.18-88.5 0 0-.19 1.03 8.83 1.54 89.1 0 0 .11 11.87 7.84 1.2 88.4 0 0 .17.94 8.82 1.53 89 0 0 1.49 1.75 8.83 1.54 89.2 0 0 .51-14.14 9.48 1.73 89.9 0 0-.29-1.46 8.82 1.53 88.9 0 0-.73-1.58 8.85 1.54 89 0 0-1.07 1.59m-14.22-.04q.13-.51-.08-.83a.76.76 0 0 0-1.38.41q-.07 2.85-.19 4.23a.49.49 0 0 0 .74.47l.98-.56a1.06 1.06 0 0 0 .51-1.15zM82.2 23l.74-.03q.12.07.23.13a.21.21 0 0 0 .3-.09q.95-2.15.03-4.53-.02-.07-.23-.19-.15-.09-.32-.11-.18-.29-.72-.24.07-.36-.44-.24a.54.53 83.1 0 0-.4.52v4.39a.53.53 0 0 0 .5.53q.89.05.31-.14M18.46 1.09l.02.17q.71.54 1.47.54l-.03 25.91q-.27.24-.38.58l-.83.63q-.89.03-1.45.25-3.22.5-4.08-2.38-1.18-3.91-2.38-8.04a.21.21 0 0 0-.41.05q-.04 2.34-.13 8.45-.01 1.18-.8 1.67H5.69q-1.4-.95-1.37-2.92.14-7.11-.18-11.3-.14.07-.04-.4 1.39-3.93.12-8.1l-.04-2.19q.36-1.37 1.19-2.3a1.19 1.18 21.2 0 1 .87-.38h3.58a1.13 1.13 0 0 1 .88.42q.78.94 1.25 2.34l1.24 4.48a.3.29-50.7 0 0 .58-.06l.41-5.55.29-1.06q1.06-.68 3.38-.74-.2-.16.61-.07m125.06.08c5.76-.75 10.19.89 10.3 7.62q.19 11.08-.69 17.38l-1.87 1.8-2.08.93q-.42.04-.53.19l-5.44-.03-2.37-1.19-.21-.24q-.18-.3-.47-.5-.34-1-.97-1.72l-.2-.18q-.04-8.63-.06-17.22-.01-5.02 4.46-6.85.06 0 .13.01m3.52 21.81q.12-.05.16-.48.55-7.39-.03-14.79-.17-.81-.71-.7-.01-.23-.11-.27a1.02.94-78.4 0 0-1.31.94q-.25 7.61-.12 14.64.03 1.38 1.59 1.08a.56.56 0 0 0 .34-.21q.07-.09.19-.21m21.88-18.45q.17.09.37.71 1.12 9.73-.06 19.85-.06.54-.45.99l-.62.78-1.24 1.17-1.71.91q-.45.04-.63.18l-5.35-.16q-2.56-1.12-3.97-3.43l-.17-.55q-1.07-9.5-.12-19.19.16-.44.12-.92 3.57-5.52 10.19-3.44 2.22.69 3.64 3.1m-6.03 18.45.28-.28.16-14.94a1 1 0 0 0-.86-1l-.3-.04a.96.96 0 0 0-1.08.95q0 6.8-.18 14.42-.03 1.12 1 1.34.95.21.98-.45M34.25 6.46q-.71.22-.8.46l-2.15-.03-2.28-.21q-3.54 3.28.2 5.51l3.17-.14q2.31 2.78-.66 5.97-.69-.18-1.44-.12-.56-.31-1.33-.02-1.06-.22-.96.04-.3.38-.35.83-.25-.07-.35.59.59 1.7.25 3.42a.42.42 0 0 0 .13.4q.37.33.62-.03l.94-.05 4.81.06q.18.08.35.15.48 1.93.29 4.39-.07.87-.12.92-.21.24-.88.31l-.45.05q-5.14.76-10.28.09-.34-.01-.68-.17l-.61-.88a1.59 1.52 29.1 0 1-.27-.87l-.03-24.91q.63-.83 1.13-.83 5.5.01 10.76 0a1.15 1.14 83.3 0 1 1.11.88q.62 2.55-.12 4.19"/><path d="m41.82 25.01.08 2.45q-.64.97-1.7 1.45l-2.95.02q-2.51.25-1.63-7.03l-.41-8.87.26-10.63a1.08 1.08 0 0 1 1.08-1.05h2.7a2.51 2.51 0 0 1 2.51 2.5zM64.95 2.15q-.08 4.73.12 9.11.03.57.32.73.31.17.84.08.52.18 1.02.05a.75.75 0 0 0 .55-.72V3.02a1.63 1.63 0 0 1 1.63-1.63h3a1.39 1.39 0 0 1 1.39 1.4l-.31 26.18-4.82-.06q-.91-.22-.83-1.66.29-5.12-.6-9.13a.89.86 12.4 0 0-.35-.53q-.86-.59-1.84.41l-.1 9.77q-.73.92-1.77 1.14l-1.17-.03q-2.32.25-3.93-1.46-.04-.16 0-.35.46-3.43.43-6.87-.03-3.68.18-6.87.25-3.76-.36-8.07-.18-1.23.81-3.28a1.02 1.02 0 0 1 .79-.57q2.94-.39 5 .74m53.22-.32.16.22q1.54 1.24 2.61 2.93-.06.49.52 1.2l-.2 7.83q-.27.22-.38.69c-2.21 1.69-1.85 5.27-.12 7.21l.5 1.09.6 5.92-5.12-.03c-1.68-.54-1.83-3.22-2.49-4.45q.03-.06.05-.12-.06-2.28-1.17-4.11a.17.17 0 0 0-.32.1l.2 3.48q-.14.59-.05 1.19-.28 1.53.03 3.01c-1.19 1.21-3.02.64-4.53.8a1.99 1.96-78.7 0 1-1.91-2.92q.93-1.78.11-3.93a2.46 2.42 36.1 0 1-.16-.97q.2-6.11-.09-15.19-.05-1.71.81-3.96a.74.73-78.2 0 1 .71-.47zm-5.02 5.82q-.33.86-.15 1.21-.36 1.1.03 1.94l-.19.75q.03 2.64 2.05.35 1.06-1.2.09-2.85.32-1.16-.36-1.66-.31-.23-.78-.15-.6.1-.69.41m22.09 21.28-2.97.01q-2.19-3.38-.73-9.58a1.4 1.39-72.3 0 0-.82-1.61q-.66-.28-1.78.19-.49.91-.36 1.81.53 3.67.38 6.82c-.08 1.83-1 2.54-2.77 2.3l-1.09.08-1.92-.17q-.83-1.39-.85-2.99-.13-11.96.16-22.53a1.93 1.93 0 0 1 1.93-1.88h2.55a1.93 1.92 0 0 1 1.93 1.92v7.82a.98.98 0 0 0 .98.98h.46a.84.84 0 0 0 .84-.84V3.31a1.93 1.93 0 0 1 1.93-1.93h2.58a1.88 1.88 0 0 1 1.88 1.84q.37 15.04.11 23.34-.09 2.76-2.44 2.37m45.72-.2q-1.3-.1-.84.26l-7.75.1-.1-.18-.23-.21q-.43-.31-.98-.24-.11-.43-.36-.52l.03-24.91a1.45 1.45 0 0 1 1.4-1.45q2.95-.1 6.33.07 6.49.34 6.77 6.82.45 10.44-.23 15.51-.44 3.27-4.04 4.75m-1.85-19.89q-.02-.41-.16-.73.17-.68-.77-1.32a.76.76 0 0 0-1.19.63v15.44a.52.52 0 0 0 .52.52h.29a1.43 1.43 0 0 0 1.42-1.27q.81-7.48-.11-13.27"/></g><path fill="#b89545" d="m19.91 1.28.04.52q-.76 0-1.47-.54zm184.69 5.9q-.19-.41-1.73-.15a1.33 1.31-5 0 0-1.1 1.29v18.7a1.82 1.81-90 0 1-1.81 1.82h-2.25a1.54 1.54 0 0 1-1.54-1.54V8.33a1.68 1.68 0 0 0-1.68-1.68h-.86a1.76 1.76 0 0 1-1.76-1.82q.09-2.86 1.51-2.9 7.24-.19 10.75.01 1.12.06 1.49.79a.64.63-7.6 0 0 .45.34q1.78.34 2.24-.5a.74.74 0 0 1 .76-.37q1.14.18 2.74-.49a2.04 2.02-58.2 0 1 .71-.17q4.84-.23 7.1 4.66.86 1.85.75 6.32-.23 9.86-.33 11.73-.17 3.35-3.65 4.29-5.55 1.49-8.48-2.04c-2.62-3.15-1.75-13.06-1.76-18.5q0-1.17-1.55-.82m10.16.94a1.45 1.45 0 0 0-1.46-1.44h-.08a1.45 1.45 0 0 0-1.44 1.46l.1 14.32a1.45 1.45 0 0 0 1.46 1.44h.08a1.45 1.45 0 0 0 1.44-1.46zm44.93 2.66-.14-.08q-.28-.65-1.55-1.2l.09-.42q.7-.91.32-1.91a1.29 1.26-54.3 0 0-2.46.43q-.13 2.05 1.18 3.69.67.84 3.08 2.41 5.93 3.86 3.58 11.49-1.36 4.43-6.8 4.05-5.03-.35-6.24-5.64a3.47 3.46-21.5 0 1 1.65-3.77l.81-.47a1.69 1.69 0 0 1 2.53 1.4q.14 3.62 1.98 3.39a.72.72 0 0 0 .62-.56q.85-3.72-2.45-5.7c-2.54-3.16-5.05-4.34-5.04-9.36q.02-4.6 3.95-6.52a3.35 3.28-60.3 0 1 1.09-.31c4.33-.42 8.87 2.22 7.9 7.13a1.2 1.2 0 0 1-.48.75q-1.61 1.14-3.62 1.2m-23.566 11.954a6.2 6.2 0 0 1-6.221 6.179l-1.52-.006a6.2 6.2 0 0 1-6.179-6.221l.052-14.62a6.2 6.2 0 0 1 6.221-6.179l1.52.006a6.2 6.2 0 0 1 6.178 6.221zM230.845 8.41a1.88 1.88 0 0 0-1.87-1.89h-.12a1.88 1.88 0 0 0-1.89 1.87l-.07 13.54a1.88 1.88 0 0 0 1.87 1.89h.12a1.88 1.88 0 0 0 1.89-1.87zm13.205 15.4h4.59a1.08 1.08 0 0 1 1.05.81l.7 2.77a1.08 1.08 0 0 1-1.05 1.35h-10.03a1.08 1.08 0 0 1-1.08-1.08V3.32a1.08 1.08 0 0 1 .81-1.05l2.58-.66a1.08 1.08 0 0 1 1.35 1.05v20.07a1.08 1.08 0 0 0 1.08 1.08M14.47 1.9l-.29 1.06-.25-.25q.13-.26.17-.67.44 0 .37-.14M4.18 4.01l.04 2.19q-.06 0-.13.01l-.01-2.22zm30.07 2.45q-.13.07-.04.47l-.76-.01q.09-.24.8-.46m-2.95.43-1.9.14q-.19-.18-.38-.35zm68.02 2.58q-.17.04-.24.07l-.05-1.53a9.48 1.73 89.9 0 1 .29 1.46m-48.16-.73q.3.62.05 1.25-.06-.02-.13-.04l.01-1.16q.03-.03.07-.05m3.05 3.01.02.2-1.52-.04q.03-.03.06-.07.62-.3 1.44-.09M35.62 21.9l-.53-3.77.04-2.92.08-2.18zm17.09-8.83v.2q-.45.04-.75-.16zM30.29 17.9l-1.33.01v-.03q.77-.29 1.33.02m-2.64.85q-.05.32-.35.59.1-.66.35-.59m-7.73 8.96v.5l-.38.08q.11-.34.38-.58m152.12.99-.75.07-.23-.31q.55-.07.98.24m8.92.03v.21q-.49.1-.84.05-.46-.36.84-.26"/><g fill="#31321e"><path d="M204.32 0q1.53.38 2.78 1.21a.88.87 49.3 0 0 .83.07L210.88 0h5.13q2.37 1.48 4 3.6a1.26 1.25-44.9 0 0 1.99 0q1.68-2.16 3.96-3.6h6.31l4.08 3.88a.42.41-74.4 0 0 .69-.39q-.45-2.16 1.42-3.49h3.6q3.26 1.19 2.8 3.74-1 5.52-.94 7.49.16 5.39.05 10.89a.81.79-82.2 0 0 .59.79q3.6.92 4.66-2.37a1.27 1.24 84.6 0 1 .57-.71l3.83-2.22a.26.25 53.6 0 0 .06-.4l-3.2-3.23a1.36 1.25 9 0 1-.19-.24q-2.12-3.59-1.05-8.03 1.03-4.28 5.78-5.71h5.08c3.84 2.45 6.55 5.57 4.27 10.07a1.39 1.38 5.9 0 1-.88.71q-1.85.48-3.8 0 2.01-.06 3.62-1.2a1.2 1.2 0 0 0 .48-.75c.97-4.91-3.57-7.55-7.9-7.13a3.35 3.28-60.3 0 0-1.09.31q-3.93 1.92-3.95 6.52c-.01 5.02 2.5 6.2 5.04 9.36q-.79.32-.71.69.11.46.55.3.2-.08.16-.99 3.3 1.98 2.45 5.7a.72.72 0 0 1-.62.56q-1.84.23-1.98-3.39a1.69 1.69 0 0 0-2.53-1.4l-.81.47a3.47 3.46-21.5 0 0-1.65 3.77q1.21 5.29 6.24 5.64 5.44.38 6.8-4.05 2.35-7.63-3.58-11.49-2.41-1.57-3.08-2.41-1.31-1.64-1.18-3.69a1.29 1.26-54.3 0 1 2.46-.43q.38 1-.32 1.91-.3-.9-.41-.92a.59.58-.6 0 0-.69.7q.24 1.1.76 1.04.21-.03.25-.4 1.27.55 1.55 1.2-1.12.43.3 1.71a2.01 1.96-13.1 0 0 .61.37c4.94 1.97 5.33 8.33 4.26 12.67-1.28 5.12-5.91 4.58-10.69 4.47a1.73 1.71 63.2 0 1-.98-.33l-1.37-1.02a.39.39 0 0 0-.57.1q-.24.37-1.77 1.16a1.36 1.3-57.6 0 1-.61.15h-10a1.23 1.22 71.3 0 1-.98-.49q-.94-1.21-.92-2.83a.32.32 0 0 0-.64-.08l-.09.34a1.2 1.18 81.5 0 1-.52.71q-3.19 2-5.31 2.31-4.06.58-7.08-1.29-.88-.55-1.38-2.16a.36.36 0 0 0-.61-.13q-2.22 2.45-5.04 3.57a.58.46-51.4 0 1-.22.05h-4.62a1.75 1.63 52.8 0 1-.57-.1q-6.25-2.14-5.84-8.88.45-7.49-.31-13.82 1.55-.35 1.55.82c.01 5.44-.86 15.35 1.76 18.5q2.93 3.53 8.48 2.04 3.48-.94 3.65-4.29.1-1.87.33-11.73.11-4.47-.75-6.32-2.26-4.89-7.1-4.66a2.04 2.02-58.2 0 0-.71.17q-1.6.67-2.74.49a.74.74 0 0 0-.76.37q-.46.84-2.24.5a.64.63-7.6 0 1-.45-.34q-.37-.73-1.49-.79-3.51-.2-10.75-.01-1.42.04-1.51 2.9a1.76 1.76 0 0 0 1.76 1.82h.86a1.68 1.68 0 0 1 1.68 1.68V27.3a1.54 1.54 0 0 0 1.54 1.54h2.25a1.82 1.81 90 0 0 1.81-1.82V8.32a1.33 1.31-5 0 1 1.1-1.29q1.54-.26 1.73.15-1.54.87-1.56 3.08-.09 13.89-.02 16.75a2.73 2.73 0 0 1-2.45 2.78l-2.65.32a2.6 2.6 0 0 1-2.9-2.58V9.28a1.33 1.33 0 0 0-1.33-1.33h-1.84a.74.74 0 0 1-.73-.61q-.93-5.28 1.37-7.34zm31.856 8.114a6.2 6.2 0 0 0-6.179-6.221l-1.52-.006a6.2 6.2 0 0 0-6.221 6.179l-.052 14.62a6.2 6.2 0 0 0 6.179 6.221l1.52.006a6.2 6.2 0 0 0 6.221-6.179zm7.874 15.696a1.08 1.08 0 0 1-1.08-1.08V2.66a1.08 1.08 0 0 0-1.35-1.05l-2.58.66a1.08 1.08 0 0 0-.81 1.05v24.34a1.08 1.08 0 0 0 1.08 1.08h10.03a1.08 1.08 0 0 0 1.05-1.35l-.7-2.77a1.08 1.08 0 0 0-1.05-.81zm13.48-2.66a.9.51-91.3 0 0-.49.912.9.51-91.3 0 0 .53.888.9.51-91.3 0 0 .49-.912.9.51-91.3 0 0-.53-.888m-76.57 7.79v-.21q3.6-1.48 4.04-4.75.68-5.07.23-15.51-.28-6.48-6.77-6.82-3.38-.17-6.33-.07a1.45 1.45 0 0 0-1.4 1.45l-.03 24.91q-.83.05-.72-1.43.05-.61-1.2-.43.39-.45.45-.99 1.18-10.12.06-19.85 1.08-.94.87-3.66a.51.51 0 0 1 .51-.56h10.53a.98.96-19 0 1 .76.36q.75.92 2.22.63a.6.6 0 0 1 .71.51q.06.46.73 1.47a2.29 2.26-62.2 0 1 .38 1.26v19.77a1.28 1.26 67.9 0 1-.37.9l-2.6 2.6a1.16 1.15-74.9 0 1-.52.3q-.72.22-1.55.12M21.37 2.22l.03 24.91a1.59 1.52 29.1 0 0 .27.87l.61.88q-1 .22-1.01-.43-.26-12.87-.22-25.74.24-.26.32-.49"/><path d="M214.86 22.44a1.45 1.45 0 0 1-1.44 1.46h-.08a1.45 1.45 0 0 1-1.46-1.44l-.1-14.32a1.45 1.45 0 0 1 1.44-1.46h.08a1.45 1.45 0 0 1 1.46 1.44zm-.922-13.87a.43.43 0 0 0-.43-.43h-.04a.43.43 0 0 0-.43.43l.024 13.94a.43.43 0 0 0 .43.43h.04a.43.43 0 0 0 .43-.43zM180.12 28.99q-3.89 2.22-7.75.1z"/></g><g fill="#030404"><path d="M51.87 0q4.47 1.49 5.19 4.51Q54.04.23 48.98.94q-.76.11-3.2.86L49.29 0zm47.52 0q.67.45 1.05 1.05-3.29-.57-6.68.72L96.78 0zm47.63 0q1.42.99 3.1 1.09a1.28 1.24 68.7 0 1 .81.37l2.75 2.75a1.32 1.3-67.9 0 1 .37.89q0 .21-.01.28a.48.48 0 0 0 .47.56q.25 0 .46-.15-.95 9.69.12 19.19-.96.23-1.96 1.19.88-6.3.69-17.38c-.11-6.73-4.54-8.37-10.3-7.62q.44-.64 1.25-1.17zm16.39 0q.99 1.16 2.59 1.08a1.13 1.11 65.4 0 1 .86.33l1.88 1.87a1.01.97 23 0 1 .28.66q0 .3-.1.59-1.42-2.41-3.64-3.1-6.62-2.08-10.19 3.44-.25-1.83 2.06-3.51a1.45 1.39-62.2 0 1 .84-.28q1.58-.03 2.71-1.08zM11.95 4.09q-.47-1.4-1.25-2.34a1.13 1.13 0 0 0-.88-.42H6.24a1.19 1.18 21.2 0 0-.87.38q-.83.93-1.19 2.3l-.1-.02-.03-2.31a.65.64-.9 0 1 .65-.66h6.63a.61.61 0 0 1 .61.61zm5.9-2.93q-2.32.06-3.38.74.07.14-.37.14-.24-.91.4-.96 1.61-.15 3.35.08m2.06.12-1.43-.02-.02-.17q.93-.2 1.45.19"/><path d="M45.78 1.8c-3.87 3.75-3.78 8.55-3.21 13.67a4.58 4.47-44.3 0 1-.03 1.16q-.69 4.4.57 8.57l-1.29-.19-.06-21.16a2.51 2.51 0 0 0-2.51-2.5h-2.7a1.08 1.08 0 0 0-1.08 1.05l-.26 10.63-.08 2.18q-.02-.64-.2-.99a.48.48 0 0 0-.89.3q.49 3-2.31 3.5 2.97-3.19.66-5.97 1.64.26 2.68-1.81.96-1.93-.03-3-.29-.31-.83-.31-.09-.4.04-.47.74-1.64.12-4.19a1.15 1.14 83.3 0 0-1.11-.88q-5.26.01-10.76 0-.5 0-1.13.83-.08.23-.32.49-.08-.62.02-1.15a.69.67 5.7 0 1 .67-.54h19.58a.7.7 0 0 1 .7.7v3.05a.13.12 0 0 0 .13.12h.36a.3.29-85.4 0 0 .29-.25q.45-2.54 2.98-2.84m19.17.35q-2.06-1.13-5-.74a1.02 1.02 0 0 0-.79.57q-.99 2.05-.81 3.28.61 4.31.36 8.07-.21 3.19-.18 6.87.03 3.44-.43 6.87.03-2.81-.78-2.05.88-4.93.37-9.85a2.11 2.11 0 0 0-2.09-1.89l-2.89-.01v-.2l5.07-.04a.33.33 0 0 0 .32-.33v-.35a.25.25 0 0 0-.24-.25l-3.63-.15-.02-.2q1.39.15 2.57-.51a.81.81 0 0 0 .43-.75l-.2-5.68q1.53.38.98-3.19a.54.53-4.2 0 1 .53-.61q3.11.01 6 .11.61.02.43 1.03m28.55-.2q-2.4 2.34-2.72 5.79-.62 6.88-.01 13.77a.27.27 0 0 1-.25.29l-.25.02a.04.04 0 0 1-.04-.03l-1.06-6.68q.27-.04.48-.13.28-.1.33-.35.04-.18.03-.3a.42.41 82.6 0 0-.47-.37q-.2.02-.47.02c1.54-4.9 1.44-12.35-5.57-12.52q-3.56-.08-7.2-.08a1.27 1.26-90 0 0-1.26 1.27l.01 25.34q-.2.03-.38.05a.88.86 12.9 0 0-.62.38q-.44.66-.54.55l.31-26.18a1.39 1.39 0 0 0-1.39-1.4h-3a1.63 1.63 0 0 0-1.63 1.63v8.38a.75.75 0 0 1-.55.72q-.5.13-1.02-.05.5.06.73-.2a.17.17 0 0 0 .05-.12V1.71a.64.63 88.1 0 1 .59-.64q.65-.06 5.48-.08.75 0 .81.23.06.26.17.39a.57.57 0 0 0 .81.04q.06-.05.17-.21a1.12 1.1 18.4 0 1 .88-.43h10.06a1.27 1.25 66.7 0 1 .88.36l3.49 3.49a.32.32 0 0 0 .54-.21q.08-2.38 2.61-2.7m11.55 2.15q-2.01-2.01-4.61-3.05 2.88-.53 4.61 3.05m13.12-2.27-10.24-.48a.74.73-78.2 0 0-.71.47q-.86 2.25-.81 3.96.29 9.08.09 15.19a2.46 2.42 36.1 0 0 .16.97q.82 2.15-.11 3.93a1.99 1.96-78.7 0 0 1.91 2.92c1.51-.16 3.34.41 4.53-.8q.24.4-.13.81a.56.54 20.9 0 1-.4.17h-5.71a.76.76 0 0 1-.76-.8q.17-3.26-.68-3.2.38-.98.44-1.98.57-9.16-.48-17.78 1.3-.64.71-3.63a.48.48 0 0 1 .47-.57q5.42.02 10.81-.02.55-.01.91.84m25.22-.67q-4.47 1.83-4.46 6.85.02 8.59.06 17.22-.47-.23-.75-.04-.27.18-.26.73.03 1.26.05 2.35a.67.67 0 0 1-.68.69l-2.11-.03q2.35.39 2.44-2.37.26-8.3-.11-23.34a1.88 1.88 0 0 0-1.88-1.84h-2.58a1.93 1.93 0 0 0-1.93 1.93v7.95a.84.84 0 0 1-.84.84h-.46a.98.98 0 0 1-.98-.98V3.3a1.93 1.92 0 0 0-1.93-1.92h-2.55a1.93 1.93 0 0 0-1.93 1.88q-.29 10.57-.16 22.53.02 1.6.85 2.99-.68.37-1.32.14l-.6-5.92q.34.2.59-.04.22-.21.22-.57-.05-4.08-.04-8.12a.39.39 0 0 0-.36-.39q-.22-.02-.41.13l.2-7.83q1.08-1.63.48-4.1a.88.87 83.2 0 1 .85-1.08h5.61a.62.62 0 0 1 .55.92q-.36.68 1.46 1.91a.39.39 0 0 0 .61-.32V1.64a.62.62 0 0 1 .62-.62h5.74a.64.64 0 0 1 .64.64v2.99a.38.38 0 0 0 .74.1q1.13-4.03 4.63-3.59"/><path d="M120.94 4.98q-1.07-1.69-2.61-2.93 2.84.01 2.61 2.93M13.93 2.71l.25.25-.41 5.55a.3.29-50.7 0 1-.58.06l-1.24-4.48q.97-.36 1.98-1.38M4.22 6.2q1.27 4.17-.12 8.1l-.01-8.09q.07-.01.13-.01m94.81 1.81-1.8.01a8.85 1.54 89 0 1 1.07-1.59 8.82 1.53 88.9 0 1 .73 1.58M29.02 6.68q.19.17.38.35-2.94 1.95-.18 5.16-3.74-2.23-.2-5.51m22.14 2.06q-.04.02-.07.05.08-1.16-1.89-.8.48-1.12 1.23-1.25a.67.66-13.1 0 1 .74.45q.23.71-.01 1.55m95.3-1.73q-.1.06-.26.15a.38.35-16.6 0 0-.18.31v14.98a.62.61-2.6 0 0 .67.61q.17-.01.35-.08-.12.12-.19.21a.56.56 0 0 1-.34.21q-1.56.3-1.59-1.08-.13-7.03.12-14.64a1.02.94-78.4 0 1 1.31-.94q.1.04.11.27m16.71 15.69-.14-14.32a.32.31 89 0 0-.31-.31h-.37a.34.34 0 0 0-.34.34V22.4a.6.6 0 0 0 .59.6q.14.01.29-.02-.03.66-.98.45-1.03-.22-1-1.34.18-7.62.18-14.42a.96.96 0 0 1 1.08-.95l.3.04a1 1 0 0 1 .86 1zm15.78-14.59q-.88-.26-.88.5-.02 6.56-.03 12.89a.41.41 0 0 0 .41.41h.26a.34.33-89.1 0 0 .33-.33l.07-12.74q.92 5.79.11 13.27a1.43 1.43 0 0 1-1.42 1.27h-.29a.52.52 0 0 1-.52-.52V7.42a.76.76 0 0 1 1.19-.63q.94.64.77 1.32m-95.94-.13-.35.04a.73.73 0 0 0-.65.73v1.81a.39.39 0 0 0 .39.39h.28a.32.32 0 0 0 .32-.32zl.58 2.57a1.06 1.06 0 0 1-.51 1.15l-.98.56a.49.49 0 0 1-.74-.47q.12-1.38.19-4.23a.76.76 0 0 1 1.38-.41q.21.32.08.83m31.97 1.07q-.82-.38-1.83-1.4.09-.31.69-.41.47-.08.78.15.68.5.36 1.66m32.06 13.93.13-15.27q.58 7.4.03 14.79-.04.43-.16.48m-49.89-2.06a8.83 1.54 89.1 0 1-.11-11.87q.34-.13.62-.06.35.09.35.44.03 5.59.01 11.1a.48.48 0 0 1-.4.47q-.24.04-.47-.08m17.83-11.87q.97 1.65-.09 2.85-2.02 2.29-2.05-.35.18.45.54.58a.56.56 0 0 0 .59-.92q-.24-.26-.94-.41-.39-.84-.03-1.94l1.35.87a.45.44-75.9 0 0 .68-.41q-.01-.12-.05-.27"/><path d="M99.32 9.47a8.83 1.54 89.2 0 1-.51 14.14 8.82 1.53 89 0 1-1.49-1.75l1.28 1.16a.28.27 21.1 0 0 .46-.2l.02-13.28q.07-.03.24-.07m-48.11.52q.22.92 1.56 1.85-.03.04-.06.07-.5.1-.95.07-.55-.04-.72-.48-.22-.59.04-1.55.07.02.13.04m-2.26 1.73q.85.45 1.36 1.27-.46.6-1.05.5a.51.51 0 0 1-.42-.42q-.12-.7.11-1.35M5.69 28.92q-.61.13-1.08.02a.68.67 6.8 0 1-.53-.67l.06-13.57q.32 4.19.18 11.3-.03 1.97 1.37 2.92M120.88 14.7q.39.86-.39 1.3a1.01 1.01 0 0 0-.51.88v2.33a.96.95 15.6 0 0 .47.82q1.01.58.31 1.88c-1.73-1.94-2.09-5.52.12-7.21m-69.67 7.57q-.08-3-2.29-3.17-.43-1.17-.12-2.34a.15.15 0 0 1 .28 0q.57 2.05 1.53 2.34a.9.87-1 0 1 .57.53q.48 1.29.03 2.64m17.48 6.64q-.59.13-1.13.02a.71.71 0 0 1-.56-.69v-9.52a.71.7 6.8 0 0-.54-.68q-.58-.14-1.39-.04.98-1 1.84-.41a.89.86 12.4 0 1 .35.53q.89 4.01.6 9.13-.08 1.44.83 1.66M28.96 17.88v.03l-.96.01q-.1-.26.96-.04m53.27.06q-.53 2.62-.03 5.06.58.19-.31.14a.53.53 0 0 1-.5-.53v-4.39a.54.53 83.1 0 1 .4-.52q.51-.12.44.24m50.04 11q-.8.33-1.46-.55a1.08 1.06 75.1 0 0-.71-.42q-.68-.1-1 .55a.76.74-75.2 0 1-.7.42l-2.21-.07c1.77.24 2.69-.47 2.77-2.3q.15-3.15-.38-6.82-.13-.9.36-1.81-.37 2.08 1.49 2.83a.47.46 11.1 0 0 .64-.43v-1.59a.75.75 0 0 0-.54-.72q-.69-.21-1.59-.09 1.12-.47 1.78-.19a1.4 1.39-72.3 0 1 .82 1.61q-1.46 6.2.73 9.58M28 17.92q-.31 2.92.3 5.21-.25.36-.62.03a.42.42 0 0 1-.13-.4q.34-1.72-.25-3.42.3-.27.35-.59.05-.45.35-.83m7.62 3.98q-.88 7.28 1.63 7.03l-3.56-.02q.67-.07.88-.31.05-.05.12-.92.19-2.46-.29-4.39 1.02-1.65.69-5.16zm47.32 1.07.01-4.79q.17.02.32.11.21.12.23.19.92 2.38-.03 4.53a.21.21 0 0 1-.3.09q-.11-.06-.23-.13m-65.68 6.2q-1.97 1.86-3.85-.14a1.36 1.36 0 0 1-.36-1.04q.08-.91-.71-1.21a.57.56-79.5 0 1-.36-.53v-1.83a.3.3 0 0 0-.3-.3h-.38a.27.27 0 0 0-.27.27v3.89a.73.72 86.4 0 1-.63.72q-.48.07-.94-.08.79-.49.8-1.67.09-6.11.13-8.45a.21.21 0 0 1 .41-.05q1.2 4.13 2.38 8.04.86 2.88 4.08 2.38m97.04-4.85q-.67-.49-1.29-.53l-.2-3.48a.17.17 0 0 1 .32-.1q1.11 1.83 1.17 4.11m-63.09-2.05q.27.6.12.89a1.01 1.01 0 0 1-1.85-.07q-.43-1.07-.39-2.32.91.35 1.03 1.87a.35.34 3.4 0 0 .28.31q.5.08.81-.68m-17.16.87-4.81-.06zm56.99 1.89q-.52.15-1.08-.04l.23-.66a.39.39 0 0 1 .71-.07q.15.27.14.77m25.7 3.86q-1.3.4-1.85-.55a.85.82-8.3 0 0-.53-.38q-.67-.14-1.37.03-.31-1.48-.03-3.01.87.41 1.29-.54c.66 1.23.81 3.91 2.49 4.45m-26.78-3.9.03 1.08a1.08 1.06 67.3 0 1-.31.78l-1.73 1.73a1.33 1.32-66.7 0 1-.96.39l-9.54-.08q3.9-.08 7.78-.14 2.86-.05 4.73-3.76m-36.61 3.92q-.29.77-.7.86-5.95 1.35-9.6-3.3-.36-.46.06-1.27 3.06 5.49 10.24 3.71m86.81-1.78q-.34.11-.66-.14-.82-.65-.31-1.58.63.72.97 1.72m-45.11 1.81q-2.83.27-4.18-3.39zm64.18.02h-1.18a1.4 1.4 0 0 1-.99-.41l-1.92-1.93a.5.46-71.4 0 1-.15-.33q-.03-.41.27-.76 1.41 2.31 3.97 3.43"/><path d="M56.98 25.83q-.61 1.66-2.22 2.92a1.13 1.09 22.1 0 1-.6.24q-.46.05-.81-.08 1.7-.9 3.63-3.08m47.93.15q.31.73-.89 1.26.2-.86.89-1.26m63.87.1q.25.27.09.54-.3.47-.71.24zm-28.15 1.55q-.7.12-.47-.5.29.2.47.5m-98.73-.17q.1.35.12.7.03.45-.21.67-.47.42-1.61.08 1.06-.48 1.7-1.45m20.13 1.42-3.36.05a.7.69-2.6 0 1-.71-.64q-.03-.36.14-.87 1.61 1.71 3.93 1.46m2.94-1.11-.01.51a.71.7-7.5 0 1-.53.68q-.56.14-1.23-.05 1.04-.22 1.77-1.14m11.32 1.13q-.53.16-.92-.04-.56-.28-.32-.87zm26.96-.92q-.35 1.29-2 .95zm39.96 1.08q-2.49.05-2.37-1.19zm8.05-1.09q-.36 1.41-2.08.93zm-131.72.32.38-.08q.04.24.01.44-.03.23-.27.31-.43.13-.95-.04zm147.38-.26q.24.45-.18.73-.62.41-1.53.18zm5.12.67.23.21q-.55.08-.98-.14zm-138.8.26q-.05.54-.51.87a.69.68-62.6 0 1-.4.13h-8.6a.63.61-21.9 0 1-.44-.18q-.3-.29-.33-.73 5.14.67 10.28-.09m68.01-.03q-.14.44-.42.73-.32.32-.76.31-1.71-.05-3.27.07a.99.98 73.1 0 1-.94-.51l-.26-.48q2.84.5 5.65-.12m23.85.02q-.5 1.87-1.88.65-.22-.19-.22-.39.01-.22.18-.43zm23.55.14q-2.66 2.05-5.44-.03zm15.93.03q-2.91 2.07-5.35-.16z"/></g><path fill="#55502d" d="M230.775 21.95a1.88 1.88 0 0 1-1.89 1.87h-.12a1.88 1.88 0 0 1-1.87-1.89l.07-13.54a1.88 1.88 0 0 1 1.89-1.87h.12a1.88 1.88 0 0 1 1.87 1.89zm-.722-13.336a.26.26 0 0 0-.26-.261l-1.52-.006a.26.26 0 0 0-.26.26l-.046 13.16a.26.26 0 0 0 .26.26l1.52.006a.26.26 0 0 0 .26-.26z"/></svg>