<svg xmlns="http://www.w3.org/2000/svg" viewBox="0 0 270 202"><g fill="none" stroke-width="2"><path stroke="#6f726d" d="M179.56 12.01c-7.28-1.19-14.39.07-16.07 8.34q-.31 1.49-.69 3.03m-1.95-3.45q1.82-1.72 2.18-3.64a1.29 1.28-74.4 0 0-.8-1.43q-12.5-4.83-24.98-8.8-3.56-1.13-7.73.81-.51.24-1.27-.16"/><path stroke="#828e8a" d="M160.54 19.94q0-.28-.3-.38-8.39-2.79-22.49-7.84-3.08-1.1-6.8.19-33.57 11.66-66.22 22.82c-1.76.6-3.65 1.35-3.64 3.38q.16 29.14.19 33.08a2.14 2.14 0 0 1-2.41 2.15l-.25-.04a2.87 2.85-86.7 0 1-2.5-2.82q-.14-16.45.09-32.48.03-2.22.67-4.29"/><path stroke="#898a7a" d="M56.88 33.71c2.21-2.96 5.65-3.65 8.92-4.93"/><path stroke="#6f726d" d="m65.8 28.78 50.93-18.04m0 0 11.52-4.03m51.31 5.3q.55.71 1.43.75m0 0q.22.4.76.54m1.03.68q.41.97 1.42 1.32m.45.77q1.82 3.77 2.02 8.05.02.41.54.66m0 0q.13.19.15.43"/><path stroke="#a2b0af" d="M187.36 25.21q.19.84.67.51"/><path stroke="#6f726d" d="M189.9 28.54c1.6 5.81 1.09 12.86-3.81 16.76q-3.73 2.97-8.38 3.36a.89.88-2.5 0 0-.81.88v6.18a.8.8 0 0 0 .8.8l16.86.05"/><path stroke="#6f726d" d="m195.63 56.74 4.99.1a2 1.86-88.1 0 1 1.81 2.08V59a1.99 1.99 0 0 1-1.99 1.96l-48-.1a1.7 1.69 90 0 1-1.69-1.7V40.54a3.51 3.49 20.4 0 0-1.23-2.66l-14.89-12.75a1.36 1.35-45.2 0 0-1.76.01l-15.53 13.31a.22.21-10.7 0 0-.07.1q-.15.42-.04.72"/><path stroke="#6f726d" d="M117.23 39.27q-.44.38-.44.8.13 9.23.13 19.04a1.85 1.85 0 0 1-1.85 1.85H96.7a1.76 1.75-90 0 1-1.75-1.76v-.45a2.07 2.07 0 0 1 2.07-2.07h14.42a.62.62 0 0 0 .62-.62V44.17a.54.53 80.1 0 0-.71-.51q-3.05 1.1-3.8-1.24c-.74-2.29 2.75-4.6 4.53-5.99a2.21 2.2 71.4 0 0 .86-1.75V24.56a1.64 1.64 0 0 1 1.32-1.61q3.99-.8 8.15-.28c.98.12 1.39.67 1.85 1.47m.06.7q-.2.25-.08.63a.23.22-29 0 0 .36.1l7.44-6.38a2.74 2.74 0 0 1 3.35-.17l3.31 2.3m0 0q.17.29.52.44m1.49 1.35q.16.31.52.43m.24.25 15.12 13.61"/><path stroke="#a2b0af" d="M156.59 37.4q.03.3.62.36"/><path stroke="#6f726d" d="M157.67 38.06q.63 1.07 1.53 1.76a.19.19 0 0 0 .29-.22l-.61-1.58m-.15-.76q-1-7.29 4.26-13.71M94.04 55.47c-.29-1.13.34-2.17 1.39-2.69 8.29-4.05 9.31-13.71 6.08-21.45q-1.09-2.59-3.25-1.81c-8.43 3.06-12.31 12.42-9.09 20.78m-1.22-.14Q87.05 49 86.77 47"/><path stroke="#3e484b" d="M139.48 43.99q.02.08.05.17"/><path stroke="#898a7a" d="M71.74 51.48q-1.79-1.67-2.93-4.01"/><path stroke="#6f726d" d="m68.81 47.47-1.18-6.43a1.7 1.7 0 0 1 1.49-2q10.8-1.21 16.88 6.44m0 0q.2 1.29.77 1.52m1.42 4.69q.19 1.77 1.4 2.95a.31.31 0 0 0 .52-.16q.15-.71-.17-1.49"/><path stroke="#a2b0af" d="M89.78 52.23q.02-.85-.56-1.44"/><path stroke="#6f726d" d="M89.22 50.79q-.31-.64-.05-.49"/><path stroke="#252216" d="M71.05 51.51q.37.09.69-.03"/><path stroke="#6f726d" d="M71.74 51.48q2.5 2.81 5.94 4.02c2.23.79 4.67.51 6.81.79a1.68 1.64-19.1 0 1 .93.44q2.15 2.01 2.55 4.08.74 3.9 1.37 4.82a1.09 1.06-12 0 0 .68.43q2.64.49 2.8-1.54.37-4.62 1-8.6"/><path stroke="#1e2626" d="M107.06 42.73q.73-.91-.01-1.52"/><path stroke="#252216" d="M68.81 47.47q-.28.6-.1 1.02"/><path stroke="#a2b0af" d="M138.52 43.98q.36.3 1.01.18"/><path stroke="#6f726d" d="M139.53 44.16q1.36.81 1.43 2.13.16 2.85.07 12.97a1.93 1.93 0 0 1-1.93 1.91h-.53a1.89 1.89 0 0 1-1.89-1.89V49.4a.59.59 0 0 0-.45-.57q-1.94-.46-4.05.07m-.99.82-.02 11.74m-2.41-17.33q-2.65.66-2.63 3.89.04 5.88.01 11.41a1.4 1.39-89 0 0 1.35 1.41l3.08.11"/><path stroke="#3e484b" d="M157.05 37.36q-.2.13-.46.04"/><path stroke="#1e2626" d="M63.78 63.24q.26-1.4-.57-2.36m52.28 38.26q1.32-4.98 0-10.13m8.98-26.24q2.88.45 5.83-.05"/><path stroke="#516468" d="m192.46 30.81.56-.17"/><path stroke="#828e8a" d="M193.02 30.64q6.1 2.16 12.21 4.35 2.63.95 2.63 3.78 0 13.03-.06 20.63a1.56 1.56 0 0 0 1.56 1.58h2.1a1.51 1.51 0 0 0 1.51-1.5q.07-14.74-.06-21.95-.1-5.11-4.53-6.87-7-2.77-16.13-5.45a1.25 1.24 3.2 0 0-1.58 1.41l.3 1.68m-1.07.24q-.56-.69-.94-1.73m-65.48 164.2q-.37.06-.68-.08-19.79-9.04-35.72-22.95a1.3 1.3 0 0 0-2.09.56l-.59 1.73a3.31 3.3-60.7 0 0 1.02 3.63q19.31 16.01 43.9 25.89 3.23 1.3 6.08 1.23c2.62-.07 6.46-2.2 9.33-3.28"/><path stroke="#1e2626" d="M144.73 197.74q.08.19.17.38"/><path stroke="#383e32" d="m55.97 34.38.91-.67"/><path stroke="#a2b0af" d="M193.02 30.64q-.46-.33-.98-.38"/><path stroke="#6f726d" d="M192.04 30.26q-.31-1.04-1.06-1.55"/><path stroke="#252216" d="M65.8 28.78h-1.23"/><path stroke="#3e484b" d="m187.71 25.28-.35-.07M89.22 50.79l.07.94"/><path stroke="#6f726d" d="m123.48 191.01 8.25 3.56a.46.46 0 0 0 .62-.28l4.76-15.06m0 0c4.73-5.02 9.36-6.17 16.46-7.29a1.05 1.03-27.5 0 1 .88.27q1.51 1.4.96 3.63-1.2 4.84-3.99 9.52m-3.39 2.86q-.82.09-1.33.76m-.14.01-3.48.97m-3.42-.05q.12-1.04-.26-2.12a.3.3 0 0 0-.57.02l-1.54 5.5m-.29.72q-.23.28-.01.48a.23.22-34 0 0 .23.04l8.33-3.51m0 0q.79-.1 1.55-.47 14.63-6.99 27.25-16.46a2.6 2.6 0 0 1 3.74.66l.01.03a2.92 2.92 0 0 1-.73 3.96q-16.55 11.92-32.64 18.98"/><path stroke="#383e32" d="M210.12 140.04q-.15-.7-.49-1.11"/><path stroke="#828e8a" d="M209.63 138.93q3.11-8.01 3.19-16.86a1.68 1.68 0 0 0-1.35-1.66l-1.76-.34a1.46 1.46 0 0 0-1.72 1.26l-.55 4.42"/><path stroke="#383e32" d="m207.44 125.75-.26-4.72m-2.07 15.2-.31-1.51"/><path stroke="#898a7a" d="M209.63 138.93q-2.21 8.9-7.85 14.25"/><path stroke="#a2b0af" d="m201.55 152.56-.1-7.15"/><path stroke="#828e8a" d="m201.45 145.41 3.66-9.18"/><path stroke="#898a7a" d="m205.11 136.23 2.33-10.48"/><path stroke="#516468" d="M201.45 145.41q.19-.26 0-.87"/><path stroke="#1e2626" d="m201.45 144.54-.04-1.33"/><path stroke="#516468" d="M201.05 149.31q.57-1.73.13-3.79"/><path stroke="#3e484b" d="M201.45 144.54h-.14"/><path stroke="#6f726d" d="M94.51 152.73q-1.3.07-2.17-.18a1.46 1.46 0 0 0-1.83 1.1q-2.54 11.55 6.62 17.87"/><path stroke="#3e484b" d="M97.13 171.52q.18.11.13.51m0 0q.35-.07.7.01"/><path stroke="#6f726d" d="M95.07 153.01q10.93 5.37 12.54 16.72.55 3.92-.34 6.42a.98.98 0 0 1-1.49.47q-.66-.48-.85-.74a5.54 4.52-1.1 0 0-2.05-1.61l-4.92-2.23"/><path stroke="#a2b0af" d="M97.96 172.04q-.26-.29-.83-.52"/><path stroke="#252216" d="M162.48 175.13q.79-.43.71.07"/><path stroke="#898a7a" d="M163.19 175.2q9.9-2.94 10.25-12.96.07-1.96-.6-3.79a1.18 1.06 11 0 0-.37-.49q-.74-.56-1.68-.25"/><path stroke="#252216" d="M170.79 157.71q-.66.22-1.27.05"/><path stroke="#6f726d" d="M170.79 157.71q-9.55 3.72-9.11 14.04.1 2.38 1.51 3.45m-32.33 13.71q.29-4.15-1.25-7.27c-2.18-4.45-7.17-6.35-11.96-6.43a1.62 1.61 88.1 0 0-1.64 1.76q.52 5.75 5 9.43c1.54 1.27 3.73 1.76 5.66 2.59"/><path stroke="#5b6f72" d="M55.78 78.15q-2.66-.9-3.39-3.78-.9-3.6-2.05-7.41"/><path stroke="#6c8284" d="M50.34 66.96q.07-1.22-.42-1.89a.5.49-43.7 0 0-.77-.01c-4.08 4.96-4.24 12.82-1.07 17.8 1.54 2.4 3.86 3.75 5.57 5.72q2.68 3.09 2.65 7.7-.13 23.82-.07 47.48c.02 8.42-8.57 11.02-7.36 20.2"/><path stroke="#5b6f72" d="M48.87 163.96q-.28 2.5 1.63 6.06 2.55 4.75 7.34 6.97a.42.41 39.1 0 0 .43-.04q.78-.54-.17-2.09"/><path stroke="#516468" d="m58.1 174.86-1.43-8.82a4.28 4.25-28.3 0 1 1.09-3.58c1.27-1.36 3.57-3.69 5.37-4.12q3.1-.74 7.49.76h.01q1.67.67 2.43 3 1.29 3.92 2.79 9.48a.61.61 0 0 0 .94.34q.6-.43 1.08-1.29 5.1-9.2-.34-17.3c-2.27-3.38-5.6-4.46-6.72-8.47q-.53-1.87-.51-4.27.14-20.14-.08-32.39c-.08-4.12.25-9.19.2-14.71-.05-5.17 2.49-8.32 5.53-12.27a3.48 3.4 74.1 0 0 .5-.92q3.71-10.35-4.23-17.38"/><path stroke="#5b6f72" d="M72.22 62.92q-1.19-1.42-2.96-2.08"/><path stroke="#6c8284" d="M69.26 60.84q-.76-.73-1.52-.71a.5.5 0 0 0-.48.61c.72 2.99 3.22 9.62 1.94 12.2q-1.53 3.1-5.95 5.45a2.27 2.23-61.1 0 1-.87.26q-3.38.29-6.6-.5"/><path stroke="#96afb4" d="M69.26 60.84q.02 2.94.74 5.75 1.17 4.51.95 5.41c-.98 3.86-3.15 5.18-6.49 7.52a3.05 2.98-66.5 0 1-1.25.51q-4.15.71-8.12-1.09a.35.35 0 0 1 .07-.66l.62-.13"/><path stroke="#7a9198" d="M72.22 62.92c3.63 7.06 3.42 13.65-.33 20.14q-2.15 3.72-2.87 6.01-1.23 3.9-2.01 8"/><path stroke="#5b6f72" d="M67.01 97.07c-1.24-5.15-7.25-3.93-7.28 1.18q-.14 22.65-.06 42.02.01 1.88 1.36 3.13 1.78 1.66 5.59-.19"/><path stroke="#7a9198" d="M66.62 143.21q3.69 4.96 7.88 11.09 3.85 5.63 2.22 12.68a.37.36-45.7 0 1-.71.01c-.78-3.05-1.6-6.45-3.69-8.25-3.95-3.39-10.83-2.48-14.52.91-4.48 4.1-3.2 10.76.3 15.21"/><path stroke="#96afb4" d="M48.87 163.96q1.86-1.56 2.13-4.93.08-1.13 3.68-6.06 2.63-3.6 3.32-10.24.54-5.26.33-44.17-.02-4.07-1.87-8.56a3.03 2.95 12.3 0 0-.58-.88q-1.51-1.55-4.33-4.07c-4.13-3.69-3.78-7.31-3.67-12.89q.04-2.1 2.46-5.2"/><path stroke="#516468" d="m66.62 143.21.39-46.14"/><path stroke="#5b6f72" d="M157.76 67.212a.86.86 0 0 0-.865-.855l-1.32.007a.86.86 0 0 0-.855.864l.08 15.44a.86.86 0 0 0 .865.855l1.32-.007a.86.86 0 0 0 .855-.864l-.08-15.44m71.61-.852h-1.86a.58.58 0 0 0-.58.59l.05 12.48a4.2 1 89.8 0 0 1.01 4.19h1.02a4.2 1 89.8 0 0 .99-4.21l-.05-12.48a.58.58 0 0 0-.58-.57"/><path stroke="#786c40" d="M103.02 79.42q6.4-3.98 10.28-3.03c4.57 1.11 5.01 5.33 5.66 9.14a.78.78 0 0 0 .77.65l8.46.01a.68.68 0 0 0 .68-.66c.12-4.82 1.83-9.41 7.66-9.07q1.24.07 3.65 2.22a2.02 1.88-13.3 0 0 .72.41q1.99.62 3.65-.01a.9.89 80.7 0 0 .58-.81l.3-9.54"/><path stroke="#847a56" d="M145.43 68.73q.11-.82-.2-1.4a1.04 1.03 78.6 0 0-.79-.53q-3.2-.37-5.27 1.4c-2.69 2.29-6.41 2.28-8.48-.57a2.17 2.15 73 0 0-1.67-.9q-8.48-.31-11.71.27-13.65 2.45-18.57 16.69a.27.27 0 0 0 .46.26l3.82-4.53"/><path stroke="#cba453" d="M145.43 68.73q-3.2-.97-5.38.83-3.05 2.52-5.94 1.61-2.21-.69-4.08-2.02a1.95 1.87-23.5 0 0-.92-.34q-9.04-.79-12.76-.02-9.36 1.93-13.33 10.63"/><path stroke="#516468" d="m159.67 80.78.17 1.78a1.35 1.35 0 0 0 1.34 1.22h63.02a.66.65 0 0 0 .66-.65V75.2"/><path stroke="#5b6f72" d="m224.86 75.2.27-7.95a.75.74-89.2 0 0-.74-.77h-22.86a.73.73 0 0 0-.72.85q.34 2.07-.23 4.51a2.34 2.32 70.1 0 1-.39.84q-1.33 1.82-3.7 1.81-7.67-.05-13.99-.04c-5.66 0-5.72-2.37-6-7.07a.93.93 0 0 0-.93-.88h-15.41a.58.57 0 0 0-.58.57l.09 13.71"/><path stroke="#7a9198" d="m224.86 75.2-.14 5.4a.6.59 88.4 0 1-.53.57q-3.28.35-5.6-.74"/><path stroke="#5b6f72" d="M218.59 80.43q3.13-3.46 1.65-7.38c-2.31-6.1-10.69-5.95-12.73-.05q-1.46 4.21 2.05 7.49"/><path stroke="#7a9198" d="M209.56 80.49q-4.17.63-5.34.63-30.57-.09-39.88-.09-2.24 0-4.67-.25"/><path stroke="#516468" d="M218.59 80.43q-5 3.59-9.03.06"/><path stroke="#91968d" d="M179.3 71.49q.94 1 3.54.83a.58.58 0 0 0 .55-.57l.1-3.94a.14.07 33.5 0 0-.05-.09l-.03-.03-.04-.04a.14.07 60.5 0 0-.08-.05l-3.94-.18a.58.58 0 0 0-.61.5q-.35 2.59.56 3.57"/><path stroke="#828e8a" d="M191.4 67.52h-5.34a.14.14 0 0 0-.14.14v.05a2.65 1.17 0 0 0 2.65 1.17h.32a2.65 1.17 0 0 0 2.65-1.17v-.05a.14.14 0 0 0-.14-.14"/><path stroke="#91968d" d="M198.08 71.55q.95-.97.66-3.54a.58.58 0 0 0-.59-.52l-3.91.07a.14.07-59 0 0-.08.05l-.03.03q-.03.03-.04.05a.14.07-32 0 0-.05.08l-.01 3.91a.58.58 0 0 0 .53.58q2.58.24 3.52-.71m-9.36.83q3.26.02 3.39-.01a.68.68 0 0 0 .56-.67l.01-2.54a.35.35 0 0 0-.64-.21q-.99 1.34-3.31 1.33t-3.29-1.36a.35.35 0 0 0-.65.21l-.01 2.54a.68.68 0 0 0 .56.67q.12.03 3.38.04"/><path stroke="#847a56" d="M106.69 121.59q.86-.75 1.3-1.56a.71.7 32.6 0 0-.21-.91l-2.61-1.91a2.26 2.07 1.9 0 1-.45-.44L79.53 82.71"/><path stroke="#786c40" d="M79.53 82.71q.05-.35-.48-.65a.47.46-56.5 0 0-.6.13l-4.37 6.01a.52.4 82.4 0 0-.08.14q-1.92 5.1-1.19 9.62a2.91 2.79-68.7 0 0 .5 1.21l24.11 33.69a.58.58 0 0 0 .93.01l8.34-11.28"/><path stroke="#cba453" d="M79.53 82.71q.98 6.05 5.3 10.96 3 3.42 5.47 7.08 4.47 6.65 5.21 7.43 1.75 1.85 3.78 4.98c1.87 2.88 4.83 5.72 7.4 8.43"/><path stroke="#5b6f72" d="M189.7 127.48q2.07-5.11.98-11.05a.82.44 54.9 0 1-.02-.17v-15.49a7.57 7.42 53.2 0 1 .26-1.96l.9-3.33a3.99 3.91-42.9 0 0 .08-1.71l-1.17-6.64a1.08 1.06-83.1 0 0-.6-.78q-.8-.37-1.48-.02"/><path stroke="#6c8284" d="M188.65 86.33q-.72-.21-1.23-.12a.88.88 0 0 0-.7.7l-1.29 6.65a2.86 2.84 43 0 0 .05 1.31l1.39 4.86a1.43 1.26-55.5 0 1 .04.33l.06 26.64a.59.58-87.3 0 0 .53.59l2.2.19"/><path stroke="#96afb4" d="M188.65 86.33q-1.79 5.04-1.23 8.79.24 1.6 1.87 6.19a3.04 2.94 35.9 0 1 .16.9l.25 25.27"/><path stroke="#888776" d="M121.39 89.07q-.69-.35-1.25-.06a.69.66 79.1 0 0-.36.55l-1.62 26.95a.58.57-85.9 0 0 .52.61q.91.09 1.64-.55"/><path stroke="#847a56" d="m120.32 116.57 8.49-1.89a.63.62 82.5 0 0 .49-.65l-1.33-24.11a.75.74-84.1 0 0-.55-.68q-2.88-.76-6.03-.17"/><path stroke="#dbbf8a" d="m120.32 116.57 1.07-27.5"/><path stroke="#5b6f72" d="m163.17 121.5 6.49 13.08"/><path stroke="#516468" d="m169.66 134.58 1.95 3.69a.62.62 0 0 0 .86.25l6.63-3.83a1.07 1.06-15.9 0 0 .54-.96l-.11-4.57"/><path stroke="#5b6f72" d="M179.53 129.16q1.93-1.45 4.5-1.82a.58.58 0 0 0 .5-.56l.33-18.28"/><path stroke="#6c8284" d="M184.86 108.5q.13-1.35-.09-2.01a.5.5 0 0 0-.74-.26q-10.26 6.54-20.65 12.87-.8.49-.82 1.09-.02.66.61 1.31"/><path stroke="#96afb4" d="m184.86 108.5-21.69 13"/><path stroke="#7a9198" d="m179.53 129.16-9.87 5.42"/><path stroke="#888776" d="M126.89 134.81q3.64-1.86 5.83-5.37a1 .98-80 0 1 .62-.44l5.9-1.34a1.11 1.1 65.2 0 1 1.13.42c3.38 4.57 8.31 8.57 14.61 7.26"/><path stroke="#91968d" d="m154.98 135.34 2.44-.26a.52.51 28.5 0 1 .29.97l-2.5 1.28"/><path stroke="#888776" d="m155.21 137.33-4.57.35a.17.17 0 0 0-.1.3l10.34 9.51a.88.87-47.6 0 0 1.23-.06l6.99-7.61a.55.55 0 0 0 .08-.64l-1.43-2.6"/><path stroke="#91968d" d="m167.75 136.58-7.48-14.91a.9.88 76.2 0 0-.79-.49q-6.15-.1-12.79-2.88-5-2.1-10.14.37-2.05.98-7.52 3.22a4.62 4.57 3.5 0 0-2.24 1.96l-5.61 9.71a.98.98 0 0 0 .62 1.45q3.02.71 5.09-.2"/><path stroke="#e8dbc1" d="M167.75 136.58q-1.85.69-3.51 1.73-2.39 1.49-3.49 1.62-3.14.39-5.54-2.6m-.23-1.99q-6.26-2.03-11.05-6.4a1.21.96 12 0 1-.14-.17l-1.88-3.1a.72.72 0 0 0-.78-.33l-7.59 1.71a3.76 3.76 0 0 0-2.23 1.49l-4.42 6.27"/><path stroke="#888776" d="M101.2 133.48q-.91.85-1.45 1.96a.97.96 40.7 0 0 .08.98l5.37 7.51a.51.51 0 0 0 .7.12l2.19-1.49"/><path stroke="#91968d" d="M108.09 142.56q5.36-1.27 7.19 3.34a.6.6 0 0 0 .76.35q6.75-2.35 8.12 4.47a.8.8 0 0 0 .67.64q5.05.73 4.89 6.03a1.3 1.28-70.1 0 0 .48 1.05c1.87 1.48 4.42 3.04 3.47 5.8q-.41 1.21-.58 2.38a.98.98 0 0 0 .38.9q2.13 1.64 4.6 1.31a2.03 1.91-15.2 0 0 1.64-2.68c-.76-1.72-4.48-4.85-8.06-8.22a1.3 1.3 0 0 1-.11-1.77l.07-.09a1.09 1.08 41.4 0 1 1.59-.1l8.83 8.48a3.62 3.61-39.6 0 0 4.48.42l.1-.06a2.3 2.29 50.4 0 0 .34-3.64L137 152a1.28 1.28 0 0 1-.24-1.59l.12-.22a1.1 1.09-53.6 0 1 1.69-.26l11.1 10.2a2.91 2.91 0 0 0 3.98-.04l.36-.34a2.46 2.46 0 0 0-.04-3.58l-11.94-10.97a1.01 1.01 0 0 1-.06-1.43l.34-.37a1.05 1.05 0 0 1 1.49-.06l12.29 11.29a2.69 2.69 0 0 0 3.94-.33l.1-.13a3.08 3.05-49.3 0 0-.29-4.18l-19.5-17.97"/><path stroke="#888776" d="m140.34 132.02-1.28-1.3a1.2 1.19 61.2 0 0-1.12-.33l-2.95.67a1.65 1.65 0 0 0-.97.62c-3.58 4.72-7.22 7.15-13.47 5.95"/><path stroke="#91968d" d="M120.55 137.63q-3.65-2.44-1.6-5.65 2.98-4.65 5.44-9.37 1.31-2.5 6.5-4.37a.23.22-48.1 0 0-.02-.43q-3.12-.71-5.81.1-8.24 2.5-9.33 2.81a1.62 1.4-49.1 0 1-.42.06h-3.85a1.27 1.27 0 0 0-1.01.5l-9.25 12.2"/><path stroke="#e8dbc1" d="M120.55 137.63q3.4 3.58 8.2 1.39 1.16-.52 4.28-3.38 3.3-3.02 7.31-3.62m-32.25 10.54q-2.44-5.43-6.89-9.08"/><path stroke="#786c40" d="M184.39 173.86q4.18 2.34 8.55.02 2.85-1.5 2.88-4.87.14-17.98-.2-24.15a3.08 3.06 32.8 0 0-.2-.91l-1.92-5a1.53 1.21-64.9 0 1-.08-.34q-.39-3.65 2.19-6.85a.99.98-60.5 0 0-.42-1.54q-2.49-.93-5.49-.36"/><path stroke="#847a56" d="m189.7 129.86-6.71-.12a1.41 1.41 0 0 0-1.2 2.18c2.25 3.41 3.26 5.36 1.24 9.43q-1.32 2.66-1.32 4.89-.03 12.46-.01 23.01.01 2.56 2.69 4.61"/><path stroke="#cba453" d="M189.7 129.86q1.27.38.82 2.16a1.04 1.03 12.5 0 1-1.2.76l-4.03-.78a.58.58 0 0 0-.6.87l.86 1.43a2.12 2.1 84.9 0 0 1.03.87c4.07 1.6 3.5 6.27 4.32 9.94"/><path stroke="#8b7646" d="m190.9 145.11-.01 24.65"/><path stroke="#cba453" d="M190.89 169.76q-1.81 3.12-6.5 4.1"/><path stroke="#7f6730" d="m190.89 169.76.59.09a.85.85 0 0 0 .97-.82q.18-11.7.02-23.67-.01-.76-.69-1.01-.56-.21-.88.76"/><path stroke="#91968d" d="M112.224 145.562a2.7 2.7 0 0 0-3.809-.273l-2.902 2.514a2.7 2.7 0 0 0-.273 3.809l.196.226a2.7 2.7 0 0 0 3.809.273l2.902-2.514a2.7 2.7 0 0 0 .273-3.809l-.196-.226m8.518 3.326a2.96 2.96 0 0 0-4.184-.146l-6.07 5.66a2.96 2.96 0 0 0-.146 4.184l.136.146a2.96 2.96 0 0 0 4.184.146l6.07-5.66a2.96 2.96 0 0 0 .146-4.184l-.136-.146m5.887 5.812a2.73 2.73 0 0 0-3.86-.093l-5.721 5.448a2.73 2.73 0 0 0-.094 3.86l.138.144a2.73 2.73 0 0 0 3.86.094l5.72-5.448a2.73 2.73 0 0 0 .094-3.86l-.138-.144m1.382 6.099-4.84 4.95a1.26 1.26 0 0 0 .03 1.79l.4.39a4.03 3.74-45.7 0 0 5.49-.27l.96-.99a4.03 3.74-45.7 0 0 .14-5.5l-.4-.39a1.26 1.26 0 0 0-1.78.02"/><path stroke="#6f726d" d="M167.71 42.09q.26.46.81.71"/><path stroke="#a2b0af" d="M168.52 42.8q.42.19.95.15"/><path stroke="#6f726d" d="M169.71 43.06q.57.65 1.27.45m.98.41q.36.18.47.09a.76.75 47.8 0 0 .05-1.13q-2.83-2.81-5.14-5.45a2.4 2.16 44.9 0 1-.16-2.95q1.13-1.37 3.54-.14m.57.47q.29 1.07.94 1.13a.41.4 2.6 0 0 .45-.4v-7.82a1.95 1.94-89.4 0 1 1.98-1.95h.42a2.12 2.11-87.8 0 1 2.07 2.24l-.26 4.21a.47.47 0 0 0 .82.34q1.93-2.19 3.88-1.82a1.84 1.76-63.1 0 1 .9 3q-4.44 4.99-5.19 5.99a1.3 1.21-26.9 0 0-.25.68l-.19 3.12a.61.6 13.6 0 0 .37.6q.65.28 1.11-.22m.62-.16q.93.02 1.48-.74"/><path stroke="#a2b0af" d="M180.44 43.01q.42-.01.78-.18"/><path stroke="#6f726d" d="M181.22 42.83c4.49-1.7 6.06-7.94 4.56-11.94-.53-1.4-1.33-2.11-2.33-3.23a4.99 4.98 23.2 0 1-1.27-3.16c-.44-11.8-15.65-10.75-14.68-.14.2 2.14-1.87 3.18-2.93 4.94q-3.87 6.42 1.58 12.02.55.57 1.07.5"/><path stroke="#3e484b" d="m181.22 42.83-.32-.14m-11.86-.03-.52.14"/><path stroke="#898a7a" d="M118.12 29.54q-.19.63-.2 1a.56.56 0 0 0 1.07.23q.67-1.61.3-3-.26-1-1.28-.86a.49.49 0 0 0-.4.64q.14.44.51.86"/><path stroke="#6f726d" d="M160.06 42.58q-.89 2.24-3.73 1.09a.56.56 0 0 0-.77.52v11.69a.87.87 0 0 0 .87.87h16.06a.18.17 90 0 0 .17-.18v-7.53a.37.37 0 0 0-.34-.37q-6.95-.49-11.41-6.21a.5.5 0 0 0-.85.12m-65.03-5.41q-3.09 2.65-3.11 6.77a.42.41-89.3 0 0 .4.42h.05a.5.49-84.1 0 0 .51-.42q.41-2.77 2.24-4.21a1.33 1.33 0 0 1 2.15.98q.13 2.68-1.15 5.23a.42.42 0 0 0 .56.56q.73-.36.85-1.5m.58-.75q1.1-1.54.85-3.47m.07-1.23-.5-3.87a1 1 0 0 0-1.6-.66q-.59.46-1 1.28"/><path stroke="#898a7a" d="M74.46 47.98q.25 1.28 1.76 1.77m.48.29q.9 1.24 2.39 1.58a.36.35 78.7 0 0 .36-.55q-.86-1.22-2.42-1.53m-.58-.53q-.5-1.08-1.46-1.56m.06-1.18q2.14-1.26 5.76.38a.15.15 0 0 0 .19-.22q-1.35-2.27-4.31-2.4"/><path stroke="#6f726d" d="M76.65 44.04q-1.9-1.14-3.89-.91a.33.33 0 0 0-.25.14q-.45.62.42 1.66m118.22-.4q-3.17 2.82-3.62 8.31a1.2 1.2 0 0 0 1.02 1.29q5.83.9 9.24-2.13 3.4-3.03 3.2-8.92a1.2 1.2 0 0 0-1.15-1.16q-5.51-.2-8.69 2.61"/><path stroke="#5b6f72" d="M169.79 75.34a3.43 3.43 0 0 0-3.43-3.43 3.43 3.43 0 0 0-3.43 3.43 3.43 3.43 0 0 0 3.43 3.43 3.43 3.43 0 0 0 3.43-3.43"/><path stroke="#888776" d="M215.37 71.364a1.57.86-.6 0 0-1.579-.844 1.57.86-.6 0 0-1.56.876 1.57.86-.6 0 0 1.578.844 1.57.86-.6 0 0 1.56-.876"/><path stroke="#91968d" d="m216.56 71.81.08 7.06a.13.13 0 0 0 .13.13h.07a3.5 2.02 89.4 0 0 1.98-3.52v-.32a3.5 2.02 89.4 0 0-2.06-3.48h-.07a.13.13 0 0 0-.13.13"/><path stroke="#91968d" d="m211.23 79.03-.12-7.22a.12.12 0 0 0-.13-.11h-.07a3.57 1.83 89 0 0-1.76 3.6v.32a3.57 1.83 89 0 0 1.89 3.54l.07-.01a.12.12 0 0 0 .12-.12"/><path stroke="#888776" d="M215.33 74.217a.87.87 0 0 0-.877-.862l-1.18.01a.87.87 0 0 0-.862.878l.019 2.18a.87.87 0 0 0 .877.862l1.18-.01a.87.87 0 0 0 .863-.878l-.02-2.18m-2.899 5.009a1.41.92-177.8 0 0 1.374.973 1.41.92-177.8 0 0 1.444-.865 1.41.92-177.8 0 0-1.374-.973 1.41.92-177.8 0 0-1.444.865"/><path stroke="#91968d" d="M168.11 75.41a1.68 1.68 0 0 0-1.68-1.68 1.68 1.68 0 0 0-1.68 1.68 1.68 1.68 0 0 0 1.68 1.68 1.68 1.68 0 0 0 1.68-1.68"/><path stroke="#786c40" d="M97.683 119.762a3.77 3.6-96.2 0 0-3.172 4.137 3.77 3.6-96.2 0 0 3.986 3.359 3.77 3.6-96.2 0 0 3.172-4.137 3.77 3.6-96.2 0 0-3.986-3.359"/><path stroke="#7f6730" d="M144.69 101.39c.01 1.18.38 1.96 1.48 2.39q1.54.59 1.05 2.18c-.68 2.21.05 3.75 2.4 3.99a1.43 1.41-52.1 0 0 .68-.09l1.06-.42a.78.78 0 0 1 .97.32l1.01 1.67a1.4 1.4 0 0 0 .77.61q3.61 1.18 4.59-2.22a.64.63-72.3 0 1 .81-.42l1.67.58a1.11 1.06 46.5 0 0 .56.03q3.76-.89 2.69-4.24a1.24 1.23 69.6 0 1 .69-1.51q2.3-1 2.29-3.01-.01-2-2.33-2.97a1.24 1.23-70.3 0 1-.7-1.51q1.03-3.36-2.74-4.2a1.11 1.06-47.2 0 0-.56.03l-1.67.6a.64.63 71.6 0 1-.81-.41q-1.02-3.39-4.62-2.16a1.4 1.4 0 0 0-.76.62l-.99 1.68a.78.78 0 0 1-.97.33l-1.06-.41a1.43 1.41 51.4 0 0-.68-.08c-2.35.27-3.06 1.82-2.35 4.02q.5 1.58-1.02 2.19c-1.1.44-1.46 1.22-1.46 2.41"/><path stroke="#847a56" d="M222.89 114.12c.16-3.13-.03-6.83.11-10.36.28-7.51-6.84-12.61-13.97-11.14q-6.18 1.28-8.39 7.55-.49 1.38-.44 4.72c.05 3.97-1.16 9.37 4.55 9.94q3.57.35 17.51-.09a.65.65 0 0 0 .63-.62"/><path stroke="#786c40" d="m221.6 94.37 2.99 4.92a.18.18 0 0 0 .25.06l.08-.05a2.69 1.31 58.7 0 0-.28-2.97l-.39-.64a2.69 1.31 58.7 0 0-2.51-1.61l-.08.04a.18.18 0 0 0-.06.25"/><path stroke="#847a56" d="M232.58 114.88q6.72-.03 6.82-.04a.54.53-87.1 0 0 .51-.46q.27-2 .02-3.13a1.24 1.24 0 0 0-2.38-.13l-.37 1.09a.47.47 0 0 1-.9-.02q-.29-1.04-.34-1.13a1.44 1.4 36.5 0 0-2.63.35q-.21 1.01-.75 1.01-.53 0-.75-1.01a1.44 1.4-37 0 0-2.63-.32q-.05.09-.33 1.13a.47.47 0 0 1-.9.03l-.38-1.09a1.24 1.24 0 0 0-2.38.16q-.24 1.13.05 3.12a.54.53 86.6 0 0 .51.46q.1.01 6.83-.02"/><path stroke="#7f6730" d="M158.95 99.745a3.76 3.49-25.6 0 0-4.898-1.522 3.76 3.49-25.6 0 0-1.883 4.772 3.76 3.49-25.6 0 0 4.899 1.522 3.76 3.49-25.6 0 0 1.883-4.772"/><path stroke="#847a56" d="M219.5 103.83a7.98 7.98 0 0 0-7.98-7.98 7.98 7.98 0 0 0-7.98 7.98 7.98 7.98 0 0 0 7.98 7.98 7.98 7.98 0 0 0 7.98-7.98"/><path stroke="#91968d" d="M65.56 97.72a2.15 2.15 0 0 0-2.15-2.15h-.06a2.15 2.15 0 0 0-2.15 2.15v42.6a2.15 2.15 0 0 0 2.15 2.15h.06a2.15 2.15 0 0 0 2.15-2.15v-42.6"/><path stroke="#847a56" d="M213.822 99.222a5.29 5.16-63.6 0 0-6.974 2.444 5.29 5.16-63.6 0 0 2.27 7.032 5.29 5.16-63.6 0 0 6.974-2.444 5.29 5.16-63.6 0 0-2.27-7.032"/><path stroke="#847a56" d="M214.2 103.83a2.7 2.7 0 0 0-2.7-2.7 2.7 2.7 0 0 0-2.7 2.7 2.7 2.7 0 0 0 2.7 2.7 2.7 2.7 0 0 0 2.7-2.7"/><path stroke="#91968d" d="M99.95 123.4a1.79 1.79 0 0 0-1.79-1.79 1.79 1.79 0 0 0-1.79 1.79 1.79 1.79 0 0 0 1.79 1.79 1.79 1.79 0 0 0 1.79-1.79"/><path stroke="#8b7646" d="M186.85 145.408a.93.93 0 0 0-.932-.928h-.04a.93.93 0 0 0-.928.932l.04 23.46a.93.93 0 0 0 .932.928h.04a.93.93 0 0 0 .929-.932l-.041-23.46"/><path stroke="#6f726d" d="M98.06 163.51q.61-.73 1.64-1.16a.47.47 0 0 0 .23-.66q-.48-.87-1.69-1.52"/><path stroke="#a2b0af" d="M98.24 160.17q-.16-.29-.67-.15"/><path stroke="#6f726d" d="M97.57 160.02q-.95-1.39-2.42-1.69a.48.48 0 0 0-.58.48q.05 6.91 6.23 9.75a.25.25 0 0 0 .3-.38l-3.09-3.98"/><path stroke="#3e484b" d="m98.24 160.17-.49.19"/></g><g fill="#d3dad1"><path d="M160.85 19.93q-.05.03-.31.01 0-.28-.3-.38-8.39-2.79-22.49-7.84-3.08-1.1-6.8.19-33.57 11.66-66.22 22.82c-1.76.6-3.65 1.35-3.64 3.38q.16 29.14.19 33.08a2.14 2.14 0 0 1-2.41 2.15l-.25-.04a2.87 2.85-86.7 0 1-2.5-2.82q-.14-16.45.09-32.48.03-2.22.67-4.29c2.21-2.96 5.65-3.65 8.92-4.93l50.93-18.04 11.52-4.03q.76.4 1.27.16 4.17-1.94 7.73-.81 12.48 3.97 24.98 8.8a1.29 1.28-74.4 0 1 .8 1.43q-.36 1.92-2.18 3.64"/><path d="M179.56 12.01q.55.71 1.43.75.22.4.76.54l1.03.68q.41.97 1.42 1.32l.45.77q1.82 3.77 2.02 8.05.02.41.54.66.13.19.15.43.19.84.67.51l.93 1.09q.38 1.04.94 1.73c1.6 5.81 1.09 12.86-3.81 16.76q-3.73 2.97-8.38 3.36a.89.88-2.5 0 0-.81.88v6.18a.8.8 0 0 0 .8.8l16.86.05q.04.36 1.07.17l4.99.1a2 1.86-88.1 0 1 1.81 2.08V59a1.99 1.99 0 0 1-1.99 1.96l-48-.1a1.7 1.69 90 0 1-1.69-1.7V40.54a3.51 3.49 20.4 0 0-1.23-2.66l-14.89-12.75a1.36 1.35-45.2 0 0-1.76.01l-15.53 13.31a.22.21-10.7 0 0-.07.1q-.15.42-.04.72-.44.38-.44.8.13 9.23.13 19.04a1.85 1.85 0 0 1-1.85 1.85H96.7a1.76 1.75-90 0 1-1.75-1.76v-.45a2.07 2.07 0 0 1 2.07-2.07h14.42a.62.62 0 0 0 .62-.62V44.17a.54.53 80.1 0 0-.71-.51q-3.05 1.1-3.8-1.24c-.74-2.29 2.75-4.6 4.53-5.99a2.21 2.2 71.4 0 0 .86-1.75V24.56a1.64 1.64 0 0 1 1.32-1.61q3.99-.8 8.15-.28c.98.12 1.39.67 1.85 1.47q-.07.31.06.7-.2.25-.08.63a.23.22-29 0 0 .36.1l7.44-6.38a2.74 2.74 0 0 1 3.35-.17l3.31 2.3q.17.29.52.44l1.49 1.35q.16.31.52.43l.24.25 15.12 13.61q.03.3.62.36.29.13.46.3.63 1.07 1.53 1.76a.19.19 0 0 0 .29-.22l-.61-1.58-.15-.76q-1-7.29 4.26-13.71l-.19-.17q.38-1.54.69-3.03c1.68-8.27 8.79-9.53 16.07-8.34m-12.34 29.81.49.27q.26.46.81.71.42.19.95.15.12.05.24.11.57.65 1.27.45l.98.41q.36.18.47.09a.76.75 47.8 0 0 .05-1.13q-2.83-2.81-5.14-5.45a2.4 2.16 44.9 0 1-.16-2.95q1.13-1.37 3.54-.14l.57.47q.29 1.07.94 1.13a.41.4 2.6 0 0 .45-.4v-7.82a1.95 1.94-89.4 0 1 1.98-1.95h.42a2.12 2.11-87.8 0 1 2.07 2.24l-.26 4.21a.47.47 0 0 0 .82.34q1.93-2.19 3.88-1.82a1.84 1.76-63.1 0 1 .9 3q-4.44 4.99-5.19 5.99a1.3 1.21-26.9 0 0-.25.68l-.19 3.12a.61.6 13.6 0 0 .37.6q.65.28 1.11-.22l.62-.16q.93.02 1.48-.74.42-.01.78-.18c4.49-1.7 6.06-7.94 4.56-11.94-.53-1.4-1.33-2.11-2.33-3.23a4.99 4.98 23.2 0 1-1.27-3.16c-.44-11.8-15.65-10.75-14.68-.14.2 2.14-1.87 3.18-2.93 4.94q-3.87 6.42 1.58 12.02.55.57 1.07.5m-49.1-13.41v1.13q-.19.63-.2 1a.56.56 0 0 0 1.07.23q.67-1.61.3-3-.26-1-1.28-.86a.49.49 0 0 0-.4.64q.14.44.51.86m41.94 14.17q-.89 2.24-3.73 1.09a.56.56 0 0 0-.77.52v11.69a.87.87 0 0 0 .87.87h16.06a.18.17 90 0 0 .17-.18v-7.53a.37.37 0 0 0-.34-.37q-6.95-.49-11.41-6.21a.5.5 0 0 0-.85.12m32.96-11.94q-.46-.33-.98-.38-.31-1.04-1.06-1.55l-.01-.41-.3-1.68a1.25 1.24 3.2 0 1 1.58-1.41q9.13 2.68 16.13 5.45 4.43 1.76 4.53 6.87.13 7.21.06 21.95a1.51 1.51 0 0 1-1.51 1.5h-2.1a1.56 1.56 0 0 1-1.56-1.58q.06-7.6.06-20.63 0-2.83-2.63-3.78-6.11-2.19-12.21-4.35"/><path d="M94.04 55.47q-.11.23-.22.45-.63 3.98-1 8.6-.16 2.03-2.8 1.54a1.09 1.06-12 0 1-.68-.43q-.63-.92-1.37-4.82-.4-2.07-2.55-4.08a1.68 1.64-19.1 0 0-.93-.44c-2.14-.28-4.58 0-6.81-.79q-3.44-1.21-5.94-4.02-1.79-1.67-2.93-4.01l-1.18-6.43a1.7 1.7 0 0 1 1.49-2q10.8-1.21 16.88 6.44.2 1.29.77 1.52.28 2 1.18 3.16-.03.88.24 1.53.19 1.77 1.4 2.95a.31.31 0 0 0 .52-.16q.15-.71-.17-1.49l-.16-.76q.02-.85-.56-1.44-.31-.64-.05-.49c-3.22-8.36.66-17.72 9.09-20.78q2.16-.78 3.25 1.81c3.23 7.74 2.21 17.4-6.08 21.45-1.05.52-1.68 1.56-1.39 2.69m1.89-19.17-.9.87q-3.09 2.65-3.11 6.77a.42.41-89.3 0 0 .4.42h.05a.5.49-84.1 0 0 .51-.42q.41-2.77 2.24-4.21a1.33 1.33 0 0 1 2.15.98q.13 2.68-1.15 5.23a.42.42 0 0 0 .56.56q.73-.36.85-1.5l.58-.75q1.1-1.54.85-3.47l.07-1.23-.5-3.87a1 1 0 0 0-1.6-.66q-.59.46-1 1.28m-23 8.63 1.53 3.05q.25 1.28 1.76 1.77l.48.29q.9 1.24 2.39 1.58a.36.35 78.7 0 0 .36-.55q-.86-1.22-2.42-1.53l-.58-.53q-.5-1.08-1.46-1.56l.06-1.18q2.14-1.26 5.76.38a.15.15 0 0 0 .19-.22q-1.35-2.27-4.31-2.4-.02 0-.04.01-1.9-1.14-3.89-.91a.33.33 0 0 0-.25.14q-.45.62.42 1.66M197.79 52q-3.41 3.03-9.24 2.13a1.2 1.2 0 0 1-1.02-1.29q.45-5.49 3.62-8.31 3.18-2.81 8.69-2.61a1.2 1.2 0 0 1 1.15 1.16q.2 5.89-3.2 8.92m-59.27-8.02q.36.3 1.01.18 1.36.81 1.43 2.13.16 2.85.07 12.97a1.93 1.93 0 0 1-1.93 1.91h-.53a1.89 1.89 0 0 1-1.89-1.89V49.4a.59.59 0 0 0-.45-.57q-1.94-.46-4.05.07-.37-.03-.7.08-.28.08-.32.29-.04.18.03.45l-.02 11.74q-.3-.26-.6-.51l-3.08-.11a1.4 1.39-89 0 1-1.35-1.41q.03-5.53-.01-11.41-.02-3.23 2.63-3.89zm52.88 23.54a.14.14 0 0 1 .14.14v.05a2.65 1.17 0 0 1-2.65 1.17h-.32a2.65 1.17 0 0 1-2.65-1.17v-.05a.14.14 0 0 1 .14-.14zm18.23 71.41q-2.21 8.9-7.85 14.25-.11-.31-.23-.62l-.1-7.15 3.66-9.18 2.33-10.48.55-4.42a1.46 1.46 0 0 1 1.72-1.26l1.76.34a1.68 1.68 0 0 1 1.35 1.66q-.08 8.85-3.19 16.86m-115.12 13.8.56.28q10.93 5.37 12.54 16.72.55 3.92-.34 6.42a.98.98 0 0 1-1.49.47q-.66-.48-.85-.74a5.54 4.52-1.1 0 0-2.05-1.61l-4.92-2.23q-.26-.29-.83-.52-9.16-6.32-6.62-17.87a1.46 1.46 0 0 1 1.83-1.1q.87.25 2.17.18m3.5 11.47q.08-.3.05-.69.61-.73 1.64-1.16a.47.47 0 0 0 .23-.66q-.48-.87-1.69-1.52-.16-.29-.67-.15-.95-1.39-2.42-1.69a.48.48 0 0 0-.58.48q.05 6.91 6.23 9.75a.25.25 0 0 0 .3-.38zm65.18 11q-1.41-1.07-1.51-3.45-.44-10.32 9.11-14.04.94-.31 1.68.25a1.18 1.06 11 0 1 .37.49q.67 1.83.6 3.79-.35 10.02-10.25 12.96"/><path d="m123.48 191.01 8.25 3.56a.46.46 0 0 0 .62-.28l4.76-15.06c4.73-5.02 9.36-6.17 16.46-7.29a1.05 1.03-27.5 0 1 .88.27q1.51 1.4.96 3.63-1.2 4.84-3.99 9.52l-3.39 2.86q-.82.09-1.33.76-.07 0-.14.01l-3.48.97q-1.64.27-3.42-.05.12-1.04-.26-2.12a.3.3 0 0 0-.57.02l-1.54 5.5q-.23.12-.29.72-.23.28-.01.48a.23.22-34 0 0 .23.04l8.33-3.51q.79-.1 1.55-.47 14.63-6.99 27.25-16.46a2.6 2.6 0 0 1 3.74.66l.01.03a2.92 2.92 0 0 1-.73 3.96q-16.55 11.92-32.64 18.98c-2.87 1.08-6.71 3.21-9.33 3.28q-2.85.07-6.08-1.23-24.59-9.88-43.9-25.89a3.31 3.3-60.7 0 1-1.02-3.63l.59-1.73a1.3 1.3 0 0 1 2.09-.56q15.93 13.91 35.72 22.95.31.14.68.08"/><path d="m130.86 188.91-4.19.08c-1.93-.83-4.12-1.32-5.66-2.59q-4.48-3.68-5-9.43a1.62 1.61 88.1 0 1 1.64-1.76c4.79.08 9.78 1.98 11.96 6.43q1.54 3.12 1.25 7.27"/></g><g fill="#314242"><path d="M160.54 19.94q-.77.16-1.47-.06-10.53-3.4-19.48-6.93c-2.41-.96-5.9-1.52-7.84-.77q-8.97 3.49-14.37 5.18-8.91 2.79-11.56 4.1a2.34 2.31-59.4 0 1-.84.22c-2.12.16-4.28 1.51-6.36 2.2q-9.67 3.21-16.29 5.72-3.19 1.2-9.53 3.23-5.64 1.8-9.52 3.4a2.11 2.11 0 0 0-1.3 1.95v34.24a.86.85 78.6 0 1-.52.79q-.28.11-.31.15a.36.35-89.1 0 0 .49.51q.02-.01.13-.24a.95.93 8.9 0 1 .75-.54c3.37-.33 2.94-4.39 1.81-6.44a1.73 1.69-63.9 0 1-.22-.67l-.33-2.74q.26-1.4-.57-2.36l-.01-3.77a1.28 1.28 0 0 1 1.15-1.28c9.95-1.02 15.31 6.65 17.42 15.84.5 2.19-.4 5.89 1.36 8.48q4.19 6.18 24.5 33 .22.28 2.35 2.32a1.76 1.72 72.2 0 0 .87.46q1.1.24 2.46.07a.81.81 0 0 0 .71-.73l1.47-16.13q1.32-4.98 0-10.13l-1.82-7.71a1.46 1.46 0 0 0-1.62-1.12c-4.55.62-8.42 4.71-11.47 7.57q-3.4 3.18-5.99-.67a2.54 2.52 33.2 0 1-.39-1.83c.8-4.45 1.86-6.46 4.55-10.61q5.15-7.97 14.55-10.87 2.1-.65 5.53-.7 2.87-.03 5.64-.3 2.88.45 5.83-.05 2.12.49 3.72 1.63a1.84 1.83-40.6 0 0 1.89.14q5.42-2.76 11.82-.93a1.38 1.34-8.2 0 1 .74.54q1.49 2.25 1.29 4.36c-.36 3.64 1.28 9.49-1.16 13.32a2.99 2.97-72.3 0 1-2.65 1.38l-6.73-.31a1.89 1.83-26.1 0 1-.98-.32q-1.29-.88-1.91-1.28a1.75 1.67 34.2 0 0-2.34.39q-.27.39-.39.92-2.18 9.65-1.11 18c.63 4.94.41 8.86.51 12.86a.61.61 0 0 0 .61.6h13.71a1.82 1.71-34.2 0 1 .56.09l7.84 2.7a4.8 4.79-51.1 0 0 4.04-.43l21.65-13.13a3.33 3.28-4.9 0 0 1.35-1.58q.7-1.72.04-3.54-1-2.7-.75-6.2a1.33 1.27-23.9 0 1 .31-.75q.9-1.05.65-2.88a.42.41 86 0 0-.41-.36l-25.2.07a.48.46-32 0 1-.19-.04l-4.88-1.67a1.84 1.84 0 0 1-1.23-1.65q-.43-9.98-.08-18.5.08-1.93 1.68-2.87a1.2 1.14-59.4 0 1 .53-.15q24.99-.3 52.02-.1 1.11.01 2.26-1.06a.52.51-41.2 0 0 .05-.7q0-.01-.18-.17a1.1 1.1 0 0 1-.33-.78V38.73a2.87 2.86 11.2 0 0-1.78-2.65l-12.81-5.27.56-.17q6.1 2.16 12.21 4.35 2.63.95 2.63 3.78 0 13.03-.06 20.63a1.56 1.56 0 0 0 1.56 1.58h2.1a1.51 1.51 0 0 0 1.51-1.5q.07-14.74-.06-21.95-.1-5.11-4.53-6.87-7-2.77-16.13-5.45a1.25 1.24 3.2 0 0-1.58 1.41l.3 1.68q-.81-.33-1.07.24-.56-.69-.94-1.73l.31.04a.49.48 10.4 0 0 .54-.37q.5-2.06 3.23-1.44 9.68 2.2 16.52 5.45c3.41 1.62 4.59 4.95 4.43 8.93q-.09 2.24-.01 20.9a.63.63 0 0 1-.32.55q-.37.23-.7.73a.32.32 0 0 0 .33.49q1.37-.28 1.69.58a.55.54-10 0 0 .51.35h16.5a.91.89-15 0 1 .78.44q1.17 2.03 1.17 2.79.08 9.61-.03 17.03a2.57 2.49 54.4 0 1-.11.74q-.98 3.16-4.34 3.94a.53.48-47.9 0 1-.1.01h-33.7a.78.78 0 0 0-.68 1.17l.74 1.3a1.7 1.68-60.8 0 1 .24.87c0 3.57.14 4.73-.56 7.92q-.47 2.16-.46 4.02.06 11.29 0 19.04c-.03 3.63 1.66 2.78 3.32 4.64q2.61 2.95 1.24 6.73a1.92 1.88 73.4 0 1-.29.55c-3.22 4.41 1.1 6.98.9 10.84l-.04 4.91q-.1 11.21-.06 18.54.01 1.55-.24 3.2a2.91 2.89 64.2 0 1-.33.96c-4.11 7.43-12.44 8.28-18.82 3.38a1.12.95-89.9 0 1-.28-.33l-2.21-4.25a1.94 1.84-59.8 0 1-.22-.93q.14-7.35.04-17.97c-.04-5.06.7-7.49 1.87-13.06a.19.19 0 0 0-.29-.2q-2.43 1.63-6.65 3.79-3.2 1.64-7.59 7.37a1.09 1.07 65.3 0 0-.23.64l-.13 3.62a1.62 1.58-28.9 0 1-.22.73q-1.67 2.72-4.81 3.91a1.72 1.7 8.3 0 0-.73.54c-2.63 3.38-4.49 3.98-7.27 5.4a2.08 2.06 1.5 0 0-.82.77c-.85 1.39-2.34 2.74-4.45 2.86-4.58.27-5.4 5.64-11.38 3.39q-.95-.36-3.5-.77a1.7 1.69 34.6 0 0-1.16.21q-2.98 1.71-6.76 1.06a1.29 1.28 70.4 0 1-.65-.31l-3.51-3a2.68 2.64-22.9 0 0-1.58-.63l-1.38-.09a1.64 1.63 72.6 0 1-1.21-.64q-2.75-3.61-7.01-5.43a2.1 2.06-3.4 0 1-1-.87q-.71-1.2-2.31-3.6c-1.96-2.93-4.38-4.25-5.29-7.86a1.18 1.15-38.9 0 1 .1-.83q1.51-2.98-.72-6.14-18.23-25.87-24.44-34.46a.26.26 0 0 0-.47.12c-.66 6.45-.44 15.5-.42 30.43 0 5.34 4.61 7.68 7.19 11.78 2.91 4.63 3.06 9.27 2.94 14.69a.8.79-83.3 0 0 .62.79c.91.21 1.74-.15 2.76.47 1.6.97 2.75 2.9 4.53 3.85q1.47.78 3.19 2.71a4.43 4.12-2.1 0 0 .87.75c4.9 3.18 9.44 6.39 14.76 9.34q6.36 3.53 12.68 7.12-.37.06-.68-.08-19.79-9.04-35.72-22.95a1.3 1.3 0 0 0-2.09.56l-.59 1.73a3.31 3.3-60.7 0 0 1.02 3.63q19.31 16.01 43.9 25.89 3.23 1.3 6.08 1.23c2.62-.07 6.46-2.2 9.33-3.28q.08.19.17.38-1.83.61-2.94 1.83a1.36 1.31 14.4 0 1-.69.39l-6.4 1.45a1.16 1.16 0 0 1-.52 0q-4.19-.92-4.56-1.07-9.9-4.01-20.13-9.38-3.24-1.7-5.35-3.26c-2.17-1.6-5.01-2.8-7.13-4.43q-1.55-1.19-8.77-6.06-.02-.02-.52-.67-.34-.45-.56-.58-2.39-1.49-4.36-4.17a.55.54 52.9 0 1 .1-.74q1.04-.86.79-2.17a.2.2 0 0 0-.37-.05q-.35.71-2.46 4.7c-1.66 3.13-3.91 3.62-6.91 3.02a2.54 2.52-.7 0 1-1.98-1.92l-2.11-9.32a3.74 3.73 74 0 0-4.88-2.71l-.89.3a4.91 4.91 0 0 0-3.18 5.65c.6 2.86 2.29 7.31 1.8 11.24a.82.81-89.9 0 1-.7.71q-3.52.47-6.32-.12a2.9 2.84-23.2 0 1-.95-.37q-15.1-9.2-8.73-26.37a5.34 5.26 78.3 0 1 1.24-1.92q2.2-2.17 3.39-4.59a1.48 1.4 60.6 0 0 .15-.6q.06-1.26.7-2.08a1.82 1.77-26.7 0 0 .38-1.1l-.01-28.29a.43.43 0 0 1 .44-.43q.05.01.45-.27.18-.11.03-.44-.04-.1-.42-.32a.98.97-75 0 1-.48-.84V96.21a6.37 6.36 20.9 0 0-2.13-4.75q-4.82-4.29-7.39-9.4a4.15 4.13 30 0 1-.44-1.63c-.21-4.19-.8-6.51.01-10.01 1.14-4.95 3.85-11.53 9.97-10.41a1.1 1.09-7.4 0 1 .8.61q1.29 2.72 1.19 5.78a.38.38 0 0 0 .38.39h.26a.2.2 0 0 0 .2-.19q.3-12.29.07-29.35-.02-1.62 1-2.87l.91-.67q-.64 2.07-.67 4.29-.23 16.03-.09 32.48a2.87 2.85-86.7 0 0 2.5 2.82l.25.04a2.14 2.14 0 0 0 2.41-2.15q-.03-3.94-.19-33.08c-.01-2.03 1.88-2.78 3.64-3.38q32.65-11.16 66.22-22.82 3.72-1.29 6.8-.19 14.1 5.05 22.49 7.84.3.1.3.38M55.78 78.15q-2.66-.9-3.39-3.78-.9-3.6-2.05-7.41.07-1.22-.42-1.89a.5.49-43.7 0 0-.77-.01c-4.08 4.96-4.24 12.82-1.07 17.8 1.54 2.4 3.86 3.75 5.57 5.72q2.68 3.09 2.65 7.7-.13 23.82-.07 47.48c.02 8.42-8.57 11.02-7.36 20.2q-.28 2.5 1.63 6.06 2.55 4.75 7.34 6.97a.42.41 39.1 0 0 .43-.04q.78-.54-.17-2.09l-1.43-8.82a4.28 4.25-28.3 0 1 1.09-3.58c1.27-1.36 3.57-3.69 5.37-4.12q3.1-.74 7.49.76h.01q1.67.67 2.43 3 1.29 3.92 2.79 9.48a.61.61 0 0 0 .94.34q.6-.43 1.08-1.29 5.1-9.2-.34-17.3c-2.27-3.38-5.6-4.46-6.72-8.47q-.53-1.87-.51-4.27.14-20.14-.08-32.39c-.08-4.12.25-9.19.2-14.71-.05-5.17 2.49-8.32 5.53-12.27a3.48 3.4 74.1 0 0 .5-.92q3.71-10.35-4.23-17.38-1.19-1.42-2.96-2.08-.76-.73-1.52-.71a.5.5 0 0 0-.48.61c.72 2.99 3.22 9.62 1.94 12.2q-1.53 3.1-5.95 5.45a2.27 2.23-61.1 0 1-.87.26q-3.38.29-6.6-.5m101.98-10.938a.86.86 0 0 0-.865-.855l-1.32.007a.86.86 0 0 0-.855.864l.08 15.44a.86.86 0 0 0 .865.855l1.32-.007a.86.86 0 0 0 .855-.864zm71.61-.852h-1.86a.58.58 0 0 0-.58.59l.05 12.48a4.2 1 89.8 0 0 1.01 4.19h1.02a4.2 1 89.8 0 0 .99-4.21l-.05-12.48a.58.58 0 0 0-.58-.57M103.02 79.42q6.4-3.98 10.28-3.03c4.57 1.11 5.01 5.33 5.66 9.14a.78.78 0 0 0 .77.65l8.46.01a.68.68 0 0 0 .68-.66c.12-4.82 1.83-9.41 7.66-9.07q1.24.07 3.65 2.22a2.02 1.88-13.3 0 0 .72.41q1.99.62 3.65-.01a.9.89 80.7 0 0 .58-.81l.3-9.54q.11-.82-.2-1.4a1.04 1.03 78.6 0 0-.79-.53q-3.2-.37-5.27 1.4c-2.69 2.29-6.41 2.28-8.48-.57a2.17 2.15 73 0 0-1.67-.9q-8.48-.31-11.71.27-13.65 2.45-18.57 16.69a.27.27 0 0 0 .46.26zm56.65 1.36.17 1.78a1.35 1.35 0 0 0 1.34 1.22h63.02a.66.65 0 0 0 .66-.65V75.2l.27-7.95a.75.74-89.2 0 0-.74-.77h-22.86a.73.73 0 0 0-.72.85q.34 2.07-.23 4.51a2.34 2.32 70.1 0 1-.39.84q-1.33 1.82-3.7 1.81-7.67-.05-13.99-.04c-5.66 0-5.72-2.37-6-7.07a.93.93 0 0 0-.93-.88h-15.41a.58.57 0 0 0-.58.57zm19.63-9.29q.94 1 3.54.83a.58.58 0 0 0 .55-.57l.1-3.94a.14.07 33.5 0 0-.05-.09l-.03-.03-.04-.04a.14.07 60.5 0 0-.08-.05l-3.94-.18a.58.58 0 0 0-.61.5q-.35 2.59.56 3.57m12.1-3.97h-5.34a.14.14 0 0 0-.14.14v.05a2.65 1.17 0 0 0 2.65 1.17h.32a2.65 1.17 0 0 0 2.65-1.17v-.05a.14.14 0 0 0-.14-.14m6.68 4.03q.95-.97.66-3.54a.58.58 0 0 0-.59-.52l-3.91.07a.14.07-59 0 0-.08.05l-.03.03q-.03.03-.04.05a.14.07-32 0 0-.05.08l-.01 3.91a.58.58 0 0 0 .53.58q2.58.24 3.52-.71m-9.36.83q3.26.02 3.39-.01a.68.68 0 0 0 .56-.67l.01-2.54a.35.35 0 0 0-.64-.21q-.99 1.34-3.31 1.33t-3.29-1.36a.35.35 0 0 0-.65.21l-.01 2.54a.68.68 0 0 0 .56.67q.12.03 3.38.04m-82.03 49.21q.86-.75 1.3-1.56a.71.7 32.6 0 0-.21-.91l-2.61-1.91a2.26 2.07 1.9 0 1-.45-.44L79.53 82.71q.05-.35-.48-.65a.47.46-56.5 0 0-.6.13l-4.37 6.01a.52.4 82.4 0 0-.08.14q-1.92 5.1-1.19 9.62a2.91 2.79-68.7 0 0 .5 1.21l24.11 33.69a.58.58 0 0 0 .93.01zm83.01 5.89q2.07-5.11.98-11.05a.82.44 54.9 0 1-.02-.17v-15.49a7.57 7.42 53.2 0 1 .26-1.96l.9-3.33a3.99 3.91-42.9 0 0 .08-1.71l-1.17-6.64a1.08 1.06-83.1 0 0-.6-.78q-.8-.37-1.48-.02-.72-.21-1.23-.12a.88.88 0 0 0-.7.7l-1.29 6.65a2.86 2.84 43 0 0 .05 1.31l1.39 4.86a1.43 1.26-55.5 0 1 .04.33l.06 26.64a.59.58-87.3 0 0 .53.59zm-68.31-38.41q-.69-.35-1.25-.06a.69.66 79.1 0 0-.36.55l-1.62 26.95a.58.57-85.9 0 0 .52.61q.91.09 1.64-.55l8.49-1.89a.63.62 82.5 0 0 .49-.65l-1.33-24.11a.75.74-84.1 0 0-.55-.68q-2.88-.76-6.03-.17m41.78 32.43 6.49 13.08 1.95 3.69a.62.62 0 0 0 .86.25l6.63-3.83a1.07 1.06-15.9 0 0 .54-.96l-.11-4.57q1.93-1.45 4.5-1.82a.58.58 0 0 0 .5-.56l.33-18.28q.13-1.35-.09-2.01a.5.5 0 0 0-.74-.26q-10.26 6.54-20.65 12.87-.8.49-.82 1.09-.02.66.61 1.31m-36.28 13.31q3.64-1.86 5.83-5.37a1 .98-80 0 1 .62-.44l5.9-1.34a1.11 1.1 65.2 0 1 1.13.42c3.38 4.57 8.31 8.57 14.61 7.26l2.44-.26a.52.51 28.5 0 1 .29.97l-2.5 1.28-4.57.35a.17.17 0 0 0-.1.3l10.34 9.51a.88.87-47.6 0 0 1.23-.06l6.99-7.61a.55.55 0 0 0 .08-.64l-1.43-2.6-7.48-14.91a.9.88 76.2 0 0-.79-.49q-6.15-.1-12.79-2.88-5-2.1-10.14.37-2.05.98-7.52 3.22a4.62 4.57 3.5 0 0-2.24 1.96l-5.61 9.71a.98.98 0 0 0 .62 1.45q3.02.71 5.09-.2m-25.69-1.33q-.91.85-1.45 1.96a.97.96 40.7 0 0 .08.98l5.37 7.51a.51.51 0 0 0 .7.12l2.19-1.49q5.36-1.27 7.19 3.34a.6.6 0 0 0 .76.35q6.75-2.35 8.12 4.47a.8.8 0 0 0 .67.64q5.05.73 4.89 6.03a1.3 1.28-70.1 0 0 .48 1.05c1.87 1.48 4.42 3.04 3.47 5.8q-.41 1.21-.58 2.38a.98.98 0 0 0 .38.9q2.13 1.64 4.6 1.31a2.03 1.91-15.2 0 0 1.64-2.68c-.76-1.72-4.48-4.85-8.06-8.22a1.3 1.3 0 0 1-.11-1.77l.07-.09a1.09 1.08 41.4 0 1 1.59-.1l8.83 8.48a3.62 3.61-39.6 0 0 4.48.42l.1-.06a2.3 2.29 50.4 0 0 .34-3.64L137 152a1.28 1.28 0 0 1-.24-1.59l.12-.22a1.1 1.09-53.6 0 1 1.69-.26l11.1 10.2a2.91 2.91 0 0 0 3.98-.04l.36-.34a2.46 2.46 0 0 0-.04-3.58l-11.94-10.97a1.01 1.01 0 0 1-.06-1.43l.34-.37a1.05 1.05 0 0 1 1.49-.06l12.29 11.29a2.69 2.69 0 0 0 3.94-.33l.1-.13a3.08 3.05-49.3 0 0-.29-4.18l-19.5-17.97-1.28-1.3a1.2 1.19 61.2 0 0-1.12-.33l-2.95.67a1.65 1.65 0 0 0-.97.62c-3.58 4.72-7.22 7.15-13.47 5.95q-3.65-2.44-1.6-5.65 2.98-4.65 5.44-9.37 1.31-2.5 6.5-4.37a.23.22-48.1 0 0-.02-.43q-3.12-.71-5.81.1-8.24 2.5-9.33 2.81a1.62 1.4-49.1 0 1-.42.06h-3.85a1.27 1.27 0 0 0-1.01.5zm83.19 40.38q4.18 2.34 8.55.02 2.85-1.5 2.88-4.87.14-17.98-.2-24.15a3.08 3.06 32.8 0 0-.2-.91l-1.92-5a1.53 1.21-64.9 0 1-.08-.34q-.39-3.65 2.19-6.85a.99.98-60.5 0 0-.42-1.54q-2.49-.93-5.49-.36l-6.71-.12a1.41 1.41 0 0 0-1.2 2.18c2.25 3.41 3.26 5.36 1.24 9.43q-1.32 2.66-1.32 4.89-.03 12.46-.01 23.01.01 2.56 2.69 4.61m-72.166-28.298a2.7 2.7 0 0 0-3.809-.273l-2.902 2.514a2.7 2.7 0 0 0-.273 3.809l.196.226a2.7 2.7 0 0 0 3.809.273l2.902-2.514a2.7 2.7 0 0 0 .273-3.809zm8.518 3.326a2.96 2.96 0 0 0-4.184-.146l-6.07 5.66a2.96 2.96 0 0 0-.146 4.184l.136.146a2.96 2.96 0 0 0 4.184.146l6.07-5.66a2.96 2.96 0 0 0 .146-4.184zm5.886 5.813a2.73 2.73 0 0 0-3.86-.094l-5.72 5.448a2.73 2.73 0 0 0-.094 3.86l.138.144a2.73 2.73 0 0 0 3.86.094l5.72-5.448a2.73 2.73 0 0 0 .094-3.86zm1.382 6.099-4.84 4.95a1.26 1.26 0 0 0 .03 1.79l.4.39a4.03 3.74-45.7 0 0 5.49-.27l.96-.99a4.03 3.74-45.7 0 0 .14-5.5l-.4-.39a1.26 1.26 0 0 0-1.78.02"/><path d="M107.06 42.73q-.16-.77-.01-1.52.74.61.01 1.52m111.53 37.7q-5 3.59-9.03.06-3.51-3.28-2.05-7.49c2.04-5.9 10.42-6.05 12.73.05q1.48 3.92-1.65 7.38m-3.22-9.066a1.57.86-.6 0 0-1.579-.844 1.57.86-.6 0 0-1.56.876 1.57.86-.6 0 0 1.578.844 1.57.86-.6 0 0 1.56-.876m1.19.446.08 7.06a.13.13 0 0 0 .13.13h.07a3.5 2.02 89.4 0 0 1.98-3.52v-.32a3.5 2.02 89.4 0 0-2.06-3.48h-.07a.13.13 0 0 0-.13.13m-5.33 7.22-.12-7.22a.12.12 0 0 0-.13-.11h-.07a3.57 1.83 89 0 0-1.76 3.6v.32a3.57 1.83 89 0 0 1.89 3.54l.07-.01a.12.12 0 0 0 .12-.12m4.1-4.813a.87.87 0 0 0-.877-.862l-1.18.01a.87.87 0 0 0-.862.878l.019 2.18a.87.87 0 0 0 .877.862l1.18-.01a.87.87 0 0 0 .863-.878zm-2.899 5.009a1.41.92-177.8 0 0 1.374.973 1.41.92-177.8 0 0 1.444-.865 1.41.92-177.8 0 0-1.374-.973 1.41.92-177.8 0 0-1.444.865m-42.64-3.886a3.43 3.43 0 0 1-3.43 3.43 3.43 3.43 0 0 1-3.43-3.43 3.43 3.43 0 0 1 3.43-3.43 3.43 3.43 0 0 1 3.43 3.43m-1.68.07a1.68 1.68 0 0 0-1.68-1.68 1.68 1.68 0 0 0-1.68 1.68 1.68 1.68 0 0 0 1.68 1.68 1.68 1.68 0 0 0 1.68-1.68m42.01 64.63q-.15-.7-.49-1.11 3.11-8.01 3.19-16.86a1.68 1.68 0 0 0-1.35-1.66l-1.76-.34a1.46 1.46 0 0 0-1.72 1.26l-.55 4.42-.26-4.72q.3-.68.35-1.3a.55.55 0 0 0-.52-.6q-4.56-.23-8.34-2.9a3.86 3.84 17.9 0 1-1.63-3.16q.01-7.62-.1-10.34-.2-5.16 2.82-8.6 2.16-2.45 3.4-3.5a2.36 2.33 13.8 0 1 .72-.43c4.02-1.6 9.5-1.78 13.91-.41q3.28 1.02 4.52 1.12c4.37.36 6.1 3.29 6.79 7.22q.24 1.36-1.72 4.52-.62.99-.32 3.59a.74.74 0 0 0 .64.64q2.6.29 5.73-.38a1.44 1.28 37 0 1 .37-.03l7.37.68a1.89 1.87 85.1 0 1 1.64 1.39l.74 2.77a.77.7-53.8 0 1 .03.27l-.79 8.81a.73.72-85.6 0 1-.77.67q-2.22-.12-3.66-1.11c-2.78-1.9-7.3-1.05-10.65-.68a4.4 3.98-10.4 0 1-.62.02l-13.55-.41a.31.31 0 0 0-.23.54q.97.93.46 4.74-1.27 9.54-3.65 15.88m12.77-25.92c.16-3.13-.03-6.83.11-10.36.28-7.51-6.84-12.61-13.97-11.14q-6.18 1.28-8.39 7.55-.49 1.38-.44 4.72c.05 3.97-1.16 9.37 4.55 9.94q3.57.35 17.51-.09a.65.65 0 0 0 .63-.62m-1.29-19.75 2.99 4.92a.18.18 0 0 0 .25.06l.08-.05a2.69 1.31 58.7 0 0-.28-2.97l-.39-.64a2.69 1.31 58.7 0 0-2.51-1.61l-.08.04a.18.18 0 0 0-.06.25m10.98 20.51q6.72-.03 6.82-.04a.54.53-87.1 0 0 .51-.46q.27-2 .02-3.13a1.24 1.24 0 0 0-2.38-.13l-.37 1.09a.47.47 0 0 1-.9-.02q-.29-1.04-.34-1.13a1.44 1.4 36.5 0 0-2.63.35q-.21 1.01-.75 1.01-.53 0-.75-1.01a1.44 1.4-37 0 0-2.63-.32q-.05.09-.33 1.13a.47.47 0 0 1-.9.03l-.38-1.09a1.24 1.24 0 0 0-2.38.16q-.24 1.13.05 3.12a.54.53 86.6 0 0 .51.46q.1.01 6.83-.02M67.01 97.07l-.39 46.14q-3.81 1.85-5.59.19-1.35-1.25-1.36-3.13-.08-19.37.06-42.02c.03-5.11 6.04-6.33 7.28-1.18m-1.45.65a2.15 2.15 0 0 0-2.15-2.15h-.06a2.15 2.15 0 0 0-2.15 2.15v42.6a2.15 2.15 0 0 0 2.15 2.15h.06a2.15 2.15 0 0 0 2.15-2.15z"/><path d="M219.5 103.83a7.98 7.98 0 0 1-7.98 7.98 7.98 7.98 0 0 1-7.98-7.98 7.98 7.98 0 0 1 7.98-7.98 7.98 7.98 0 0 1 7.98 7.98m-5.678-4.608a5.29 5.16-63.6 0 0-6.974 2.444 5.29 5.16-63.6 0 0 2.27 7.032 5.29 5.16-63.6 0 0 6.974-2.444 5.29 5.16-63.6 0 0-2.27-7.032"/><circle cx="211.5" cy="103.83" r="2.7"/><path d="M97.683 119.762a3.77 3.6-96.2 0 1 3.986 3.36 3.77 3.6-96.2 0 1-3.172 4.136 3.77 3.6-96.2 0 1-3.986-3.36 3.77 3.6-96.2 0 1 3.172-4.136m2.267 3.638a1.79 1.79 0 0 0-1.79-1.79 1.79 1.79 0 0 0-1.79 1.79 1.79 1.79 0 0 0 1.79 1.79 1.79 1.79 0 0 0 1.79-1.79m105.16 12.83-3.66 9.18q.19-.26 0-.87l-.04-1.33q2.37-3.96 3.39-8.49zm-3.93 9.29q.44 2.06-.13 3.79z"/></g><path fill="#bf953d" d="m145.43 68.73-.3 9.54a.9.89 80.7 0 1-.58.81q-1.66.63-3.65.01a2.02 1.88-13.3 0 1-.72-.41q-2.41-2.15-3.65-2.22c-5.83-.34-7.54 4.25-7.66 9.07a.68.68 0 0 1-.68.66l-8.46-.01a.78.78 0 0 1-.77-.65c-.65-3.81-1.09-8.03-5.66-9.14q-3.88-.95-10.28 3.03 3.97-8.7 13.33-10.63 3.72-.77 12.76.02a1.95 1.87-23.5 0 1 .92.34q1.87 1.33 4.08 2.02 2.89.91 5.94-1.61 2.18-1.8 5.38-.83m-65.9 13.98q.98 6.05 5.3 10.96 3 3.42 5.47 7.08 4.47 6.65 5.21 7.43 1.75 1.85 3.78 4.98c1.87 2.88 4.83 5.72 7.4 8.43l-8.34 11.28a.58.58 0 0 1-.93-.01L73.31 99.17a2.91 2.79-68.7 0 1-.5-1.21q-.73-4.52 1.19-9.62a.52.4 82.4 0 1 .08-.14l4.37-6.01a.47.46-56.5 0 1 .6-.13q.53.3.48.65m18.153 37.052a3.77 3.6-96.2 0 0-3.172 4.137 3.77 3.6-96.2 0 0 3.986 3.359 3.77 3.6-96.2 0 0 3.172-4.137 3.77 3.6-96.2 0 0-3.986-3.359m69.727-18.512q.01 2.01-2.29 3.01a1.24 1.23 69.6 0 0-.69 1.51q1.07 3.35-2.69 4.24a1.11 1.06 46.5 0 1-.56-.03l-1.67-.58a.64.63-72.3 0 0-.81.42q-.98 3.4-4.59 2.22a1.4 1.4 0 0 1-.77-.61l-1.01-1.67a.78.78 0 0 0-.97-.32l-1.06.42a1.43 1.41-52.1 0 1-.68.09c-2.35-.24-3.08-1.78-2.4-3.99q.49-1.59-1.05-2.18c-1.1-.43-1.47-1.21-1.48-2.39 0-1.19.36-1.97 1.46-2.41q1.52-.61 1.02-2.19c-.71-2.2 0-3.75 2.35-4.02a1.43 1.41 51.4 0 1 .68.08l1.06.41a.78.78 0 0 0 .97-.33l.99-1.68a1.4 1.4 0 0 1 .76-.62q3.6-1.23 4.62 2.16a.64.63 71.6 0 0 .81.41l1.67-.6a1.11 1.06-47.2 0 1 .56-.03q3.77.84 2.74 4.2a1.24 1.23-70.3 0 0 .7 1.51q2.32.97 2.33 2.97m-8.46-1.505a3.76 3.49-25.6 0 0-4.898-1.522 3.76 3.49-25.6 0 0-1.883 4.772 3.76 3.49-25.6 0 0 4.899 1.522 3.76 3.49-25.6 0 0 1.883-4.772M221.6 94.37a.18.18 0 0 1 .06-.25l.08-.04a2.69 1.31 58.7 0 1 2.51 1.61l.39.64a2.69 1.31 58.7 0 1 .28 2.97l-.08.05a.18.18 0 0 1-.25-.06zm-37.21 79.49q4.69-.98 6.5-4.1l.59.09a.85.85 0 0 0 .97-.82q.18-11.7.02-23.67-.01-.76-.69-1.01-.56-.21-.88.76c-.82-3.67-.25-8.34-4.32-9.94a2.12 2.1 84.9 0 1-1.03-.87l-.86-1.43a.58.58 0 0 1 .6-.87l4.03.78a1.04 1.03 12.5 0 0 1.2-.76q.45-1.78-.82-2.16 3-.57 5.49.36a.99.98-60.5 0 1 .42 1.54q-2.58 3.2-2.19 6.85a1.53 1.21-64.9 0 0 .08.34l1.92 5a3.08 3.06 32.8 0 1 .2.91q.34 6.17.2 24.15-.03 3.37-2.88 4.87-4.37 2.32-8.55-.02"/><g fill="#849ba2"><path d="M72.22 62.92c3.63 7.06 3.42 13.65-.33 20.14q-2.15 3.72-2.87 6.01-1.23 3.9-2.01 8c-1.24-5.15-7.25-3.93-7.28 1.18q-.14 22.65-.06 42.02.01 1.88 1.36 3.13 1.78 1.66 5.59-.19 3.69 4.96 7.88 11.09 3.85 5.63 2.22 12.68a.37.36-45.7 0 1-.71.01c-.78-3.05-1.6-6.45-3.69-8.25-3.95-3.39-10.83-2.48-14.52.91-4.48 4.1-3.2 10.76.3 15.21q.95 1.55.17 2.09a.42.41 39.1 0 1-.43.04q-4.79-2.22-7.34-6.97-1.91-3.56-1.63-6.06 1.86-1.56 2.13-4.93.08-1.13 3.68-6.06 2.63-3.6 3.32-10.24.54-5.26.33-44.17-.02-4.07-1.87-8.56a3.03 2.95 12.3 0 0-.58-.88q-1.51-1.55-4.33-4.07c-4.13-3.69-3.78-7.31-3.67-12.89q.04-2.1 2.46-5.2 1.15 3.81 2.05 7.41.73 2.88 3.39 3.78l-.62.13a.35.35 0 0 0-.07.66q3.97 1.8 8.12 1.09a3.05 2.98-66.5 0 0 1.25-.51c3.34-2.34 5.51-3.66 6.49-7.52q.22-.9-.95-5.41-.72-2.81-.74-5.75 1.77.66 2.96 2.08"/><rect width="3.04" height="17.16" x="-1.52" y="-8.58" rx=".86" transform="rotate(-.3 14390.593 -29809.743)"/><path d="M229.37 66.36a.58.58 0 0 1 .58.57l.05 12.48a4.2 1 89.8 0 1-.99 4.21h-1.02a4.2 1 89.8 0 1-1.01-4.19l-.05-12.48a.58.58 0 0 1 .58-.59z"/><path d="m224.86 75.2-.14 5.4a.6.59 88.4 0 1-.53.57q-3.28.35-5.6-.74 3.13-3.46 1.65-7.38c-2.31-6.1-10.69-5.95-12.73-.05q-1.46 4.21 2.05 7.49-4.17.63-5.34.63-30.57-.09-39.88-.09-2.24 0-4.67-.25l-.09-13.71a.58.57 0 0 1 .58-.57h15.41a.93.93 0 0 1 .93.88c.28 4.7.34 7.07 6 7.07q6.32-.01 13.99.04 2.37.01 3.7-1.81a2.34 2.32 70.1 0 0 .39-.84q.57-2.44.23-4.51a.73.73 0 0 1 .72-.85h22.86a.75.74-89.2 0 1 .74.77zm-55.07.14a3.43 3.43 0 0 0-3.43-3.43 3.43 3.43 0 0 0-3.43 3.43 3.43 3.43 0 0 0 3.43 3.43 3.43 3.43 0 0 0 3.43-3.43m19.91 52.14-.25-25.27a3.04 2.94 35.9 0 0-.16-.9q-1.63-4.59-1.87-6.19-.56-3.75 1.23-8.79.68-.35 1.48.02a1.08 1.06-83.1 0 1 .6.78l1.17 6.64a3.99 3.91-42.9 0 1-.08 1.71l-.9 3.33a7.57 7.42 53.2 0 0-.26 1.96v15.49a.82.44 54.9 0 0 .02.17q1.09 5.94-.98 11.05m-10.17 1.68-9.87 5.42-6.49-13.08 21.69-13-.33 18.28a.58.58 0 0 1-.5.56q-2.57.37-4.5 1.82"/></g><g fill="#f1e9d8"><path d="m183.41 67.69.03.03a.14.07 33.5 0 1 .05.09l-.1 3.94a.58.58 0 0 1-.55.57q-2.6.17-3.54-.83-.91-.98-.56-3.57a.58.58 0 0 1 .61-.5l3.94.18a.14.07 60.5 0 1 .08.05zm14.67 3.86q-.94.95-3.52.71a.58.58 0 0 1-.53-.58l.01-3.91a.14.07-32 0 1 .05-.08q.01-.02.04-.05l.03-.03a.14.07-59 0 1 .08-.05l3.91-.07a.58.58 0 0 1 .59.52q.29 2.57-.66 3.54m-9.35-1.27q2.32.01 3.31-1.33a.35.35 0 0 1 .64.21l-.01 2.54a.68.68 0 0 1-.56.67q-.13.03-3.39.01-3.26-.01-3.38-.04a.68.68 0 0 1-.56-.67l.01-2.54a.35.35 0 0 1 .65-.21q.97 1.35 3.29 1.36m27.83 1.53a.13.13 0 0 1 .13-.13h.07a3.5 2.02 89.4 0 1 2.06 3.48v.32a3.5 2.02 89.4 0 1-1.98 3.52h-.07a.13.13 0 0 1-.13-.13zm-5.33 7.22a.12.12 0 0 1-.12.12l-.07.01a3.57 1.83 89 0 1-1.89-3.54v-.32a3.57 1.83 89 0 1 1.76-3.6h.07a.12.12 0 0 1 .13.11z"/><circle cx="166.43" cy="75.41" r="1.68"/><rect width="4.36" height="46.9" x="61.2" y="95.57" rx="2.15"/><path d="M167.75 136.58q-1.85.69-3.51 1.73-2.39 1.49-3.49 1.62-3.14.39-5.54-2.6l2.5-1.28a.52.51 28.5 0 0-.29-.97l-2.44.26q-6.26-2.03-11.05-6.4a1.21.96 12 0 1-.14-.17l-1.88-3.1a.72.72 0 0 0-.78-.33l-7.59 1.71a3.76 3.76 0 0 0-2.23 1.49l-4.42 6.27q-2.07.91-5.09.2a.98.98 0 0 1-.62-1.45l5.61-9.71a4.62 4.57 3.5 0 1 2.24-1.96q5.47-2.24 7.52-3.22 5.14-2.47 10.14-.37 6.64 2.78 12.79 2.88a.9.88 76.2 0 1 .79.49z"/><path d="M120.55 137.63q3.4 3.58 8.2 1.39 1.16-.52 4.28-3.38 3.3-3.02 7.31-3.62l19.5 17.97a3.08 3.05-49.3 0 1 .29 4.18l-.1.13a2.69 2.69 0 0 1-3.94.33l-12.29-11.29a1.05 1.05 0 0 0-1.49.06l-.34.37a1.01 1.01 0 0 0 .06 1.43l11.94 10.97a2.46 2.46 0 0 1 .04 3.58l-.36.34a2.91 2.91 0 0 1-3.98.04l-11.1-10.2a1.1 1.09-53.6 0 0-1.69.26l-.12.22A1.28 1.28 0 0 0 137 152l9.95 9.17a2.3 2.29 50.4 0 1-.34 3.64l-.1.06a3.62 3.61-39.6 0 1-4.48-.42l-8.83-8.48a1.09 1.08 41.4 0 0-1.59.1l-.07.09a1.3 1.3 0 0 0 .11 1.77c3.58 3.37 7.3 6.5 8.06 8.22a2.03 1.91-15.2 0 1-1.64 2.68q-2.47.33-4.6-1.31a.98.98 0 0 1-.38-.9q.17-1.17.58-2.38c.95-2.76-1.6-4.32-3.47-5.8a1.3 1.28-70.1 0 1-.48-1.05q.16-5.3-4.89-6.03a.8.8 0 0 1-.67-.64q-1.37-6.82-8.12-4.47a.6.6 0 0 1-.76-.35q-1.83-4.61-7.19-3.34-2.44-5.43-6.89-9.08l9.25-12.2a1.27 1.27 0 0 1 1.01-.5h3.85a1.62 1.4-49.1 0 0 .42-.06q1.09-.31 9.33-2.81 2.69-.81 5.81-.1a.23.22-48.1 0 1 .02.43q-5.19 1.87-6.5 4.37-2.46 4.72-5.44 9.37-2.05 3.21 1.6 5.65"/><circle cx="98.16" cy="123.4" r="1.79"/><rect width="9.24" height="5.7" x="-4.62" y="-2.85" rx="2.7" transform="rotate(-40.9 253.803 -71.578)"/><rect width="14.22" height="6.12" x="-7.11" y="-3.06" rx="2.96" transform="rotate(-43 253.04 -69.842)"/><rect width="13.36" height="5.66" x="-6.68" y="-2.83" rx="2.73" transform="rotate(-43.6 260.17 -72.646)"/><path d="M128.01 160.8a1.26 1.26 0 0 1 1.78-.02l.4.39a4.03 3.74-45.7 0 1-.14 5.5l-.96.99a4.03 3.74-45.7 0 1-5.49.27l-.4-.39a1.26 1.26 0 0 1-.03-1.79z"/></g><g fill="#0b0a09" fill-opacity=".996"><path d="M179.56 12.01c-7.28-1.19-14.39.07-16.07 8.34q-.31 1.49-.69 3.03-.88-1.33.13-3.68a.42.41-9.5 0 0-.66-.47q-.55.5-1.42.7 1.82-1.72 2.18-3.64a1.29 1.28-74.4 0 0-.8-1.43q-12.5-4.83-24.98-8.8-3.56-1.13-7.73.81-.51.24-1.27-.16c3.69-2.01 6.88-2.17 11-.67q6.2 2.26 14.05 4.87 6.9 2.3 9.5 3.4.78.33.96.81.18.52.63.57a.76.75 21.8 0 0 .69-.29q3.33-4.42 10.42-4.42 2.85 0 4.06 1.03m-15.76 5.28q-.16-.16-.45-.08-.31.08-.23.39.04.2.4.2a.34.3-19.5 0 0 .28-.51M128.25 6.71l-11.52 4.03q5.52-2.7 11.52-4.03m-11.52 4.03L65.8 28.78h-1.23z"/><path d="M180.99 12.76q-.88-.04-1.43-.75.98.01 1.43.75m.76.54q-.54-.14-.76-.54.52.1.76.54m2.45 2q-1.01-.35-1.42-1.32.92.32 1.42 1.32m-2.98 27.53-.32-.14 2.99-2.7a2.56 2.54-13.3 0 0 .76-1.22q.86-3.06 1.14-4.48a4.77 4.76 25.2 0 0-1.65-4.57q-2.83-2.34-2.68-6.83a2.39 2.36 37.5 0 0-.12-.86q-1.54-4.73-6.58-5.52a2.82 2.79 42.5 0 0-1.05.04c-5.53 1.32-5.32 4.89-5.9 9.48a2 2 0 0 1-.54 1.14q-6.59 6.97-.05 14.65-.52.07-1.07-.5-5.45-5.6-1.58-12.02c1.06-1.76 3.13-2.8 2.93-4.94-.97-10.61 14.24-11.66 14.68.14a4.99 4.98 23.2 0 0 1.27 3.16c1 1.12 1.8 1.83 2.33 3.23 1.5 4-.07 10.24-4.56 11.94m5.99-18.05q-.52-.25-.54-.66-.2-4.28-2.02-8.05.41-.18.78.13.37.32.43.74.14 1.11.51 1.77a5.49 3.41-73.2 0 1 .58 2.15zm-48.51-3.46-3.31-2.3a2.74 2.74 0 0 0-3.35.17l-7.44 6.38a.23.22-29 0 1-.36-.1q-.12-.38.08-.63l8.22-6.54a2.44 2.44 0 0 1 3.23.16zm.52.44q-.35-.15-.52-.44.32.12.52.44"/><path d="M124.26 24.14c-.46-.8-.87-1.35-1.85-1.47q-4.16-.52-8.15.28a1.64 1.64 0 0 0-1.32 1.61v10.12a2.21 2.2 71.4 0 1-.86 1.75c-1.78 1.39-5.27 3.7-4.53 5.99q.75 2.34 3.8 1.24a.54.53 80.1 0 1 .71.51v11.89a.62.62 0 0 1-.62.62H97.02a2.07 2.07 0 0 0-2.07 2.07v.45a1.76 1.75-90 0 0 1.75 1.76h18.37a1.85 1.85 0 0 0 1.85-1.85q0-9.81-.13-19.04 0-.42.44-.8l.43.81a2.86 2.8-59.6 0 1 .33 1.33v17.81a1.2 1.18-18.8 0 1-.48.95l-1.93 1.45a1.72 1.7-62.5 0 1-1.05.34q-.54.03-17.47.11-1.45.01-1.98-.48-.66-.61-1.46.28a.78.76 53.8 0 0-.12.83q.82 1.82-.88 3.78a1.33 1.32 15.4 0 1-.78.44q-2.15.33-3.19-.69a1.67 1.66 21.4 0 1-.5-1.14q-.16-4.36-2.33-7.25a2.29 2.28-19.4 0 0-1.93-.92q-8.18.33-12.84-5.41.37.09.69-.03 2.5 2.81 5.94 4.02c2.23.79 4.67.51 6.81.79a1.68 1.64-19.1 0 1 .93.44q2.15 2.01 2.55 4.08.74 3.9 1.37 4.82a1.09 1.06-12 0 0 .68.43q2.64.49 2.8-1.54.37-4.62 1-8.6l16.58.01a.65.64-89.6 0 0 .65-.65v-8.6a1.73 1.73 0 0 0-1.36-1.69q-2.46-.54-2.63-2.26.73-.91-.01-1.52l.2-1.19a.87.86-15.8 0 1 .3-.53l3.26-2.8a3.55 3.53 69.1 0 0 1.23-2.77q-.11-4.85-.12-8.95-.01-2.75 2.88-2.87 3.74-.16 8.1-.06a1.92 1.72 2.1 0 1 1.89 1.82q0 .1-.53.28m16.97-.6q-.36-.12-.52-.43.33.11.52.43m21.76.01q-5.26 6.42-4.26 13.71-1.24-2.35-.88-4.99.72-5.27 5.14-8.72m-5.94 13.81q-.2.13-.46.04l-15.12-13.61z"/><path d="M195.63 56.74q3.24-1.48 6.39-.14a1.14 1.12-87.7 0 1 .63.69q.48 1.49.18 2.86a2.42 2.42 0 0 1-2.36 1.9q-36.63.12-47.94 0a2.37 2.36 86.8 0 1-2.32-2.08l-.52-4.4a.16.16 0 0 1 0-.08q.69-3.89.17-8.29c-.36-3.11-.22-4.83-.2-7.37a1.41 1.39-66.7 0 0-.37-.95q-2.56-2.84-5.69-4.94a6.45 6.25-3 0 1-1.17-1.02q-3.38-3.75-7.92-6.7a1.85 1.85 0 0 0-2.22.15l-15.06 12.9q-.11-.3.04-.72a.22.21-10.7 0 1 .07-.1l15.53-13.31a1.36 1.35-45.2 0 1 1.76-.01l14.89 12.75a3.51 3.49 20.4 0 1 1.23 2.66v18.62a1.7 1.69 90 0 0 1.69 1.7l48 .1a1.99 1.99 0 0 0 1.99-1.96v-.08a2 1.86-88.1 0 0-1.81-2.08zm-7.92-31.46-.35-.07q-.02-.24-.15-.43.33.21.5.5m-9.37 18.63q-.46.5-1.11.22a.61.6 13.6 0 1-.37-.6l.19-3.12a1.3 1.21-26.9 0 1 .25-.68q.75-1 5.19-5.99a1.84 1.76-63.1 0 0-.9-3q-1.95-.37-3.88 1.82a.47.47 0 0 1-.82-.34l.26-4.21a2.12 2.11-87.8 0 0-2.07-2.24h-.42a1.95 1.94-89.4 0 0-1.98 1.95v7.82a.41.4 2.6 0 1-.45.4q-.65-.06-.94-1.13.27.18.5.06a.32.31 78.8 0 0 .19-.29q-.04-3.63.03-7.13a2.52 2.43-89.1 0 1 2.45-2.46q1.39 0 2.96 1.25a1.35 1.33 17.8 0 1 .5.95l.17 3.19a.51.5-23.2 0 0 .85.34c1.5-1.4 2.88-.33 4.32.3a1.48 1.47-56.8 0 1 .49 2.35l-5.35 5.82a1.3 1.23 74.9 0 0-.29.54q-.59 2.27.23 4.18"/><path d="M190.98 28.71q.75.51 1.06 1.55-.52-.17-.87.1a.47.45-19.7 0 0-.18.36v8.38a2.37 2.34-31 0 1-.29 1.13q-2.18 3.97-4.65 5.73c-2.36 1.68-4.02 3.27-7.17 3.06a.84.84 0 0 0-.9.84v5.28a.92.92 0 0 0 .89.92l15.69.51-16.86-.05a.8.8 0 0 1-.8-.8v-6.18a.89.88-2.5 0 1 .81-.88q4.65-.39 8.38-3.36c4.9-3.9 5.41-10.95 3.81-16.76q.8.56 1.08.17M94.04 55.47c-.29-1.13.34-2.17 1.39-2.69 8.29-4.05 9.31-13.71 6.08-21.45q-1.09-2.59-3.25-1.81c-8.43 3.06-12.31 12.42-9.09 20.78q-.73-.21-1.22-.14-.9-1.16-1.18-3.16.71 1.37 1.26.51a.42.41 46.9 0 0 .01-.41l-.75-1.44a4.75 4.55 26.4 0 1-.42-1.17q-.07-.35 1.03-4.44 2.39-8.88 11.56-11.2a2.01 2-17.7 0 1 2.37 1.22l2.11 5.51a1.94 1.77-57.4 0 1 .13.74q-.14 6.63-1.08 9.19-.55 1.5-2.41 4.35-.74 1.14-3.21 2.69-1.95 1.23-3.33 2.92m76.68-21.13q-2.41-1.23-3.54.14a2.4 2.16 44.9 0 0 .16 2.95q2.31 2.64 5.14 5.45a.76.75 47.8 0 1-.05 1.13q-.11.09-.47-.09l-.01-.34a.9.9 0 0 0-.36-.72q-3.6-2.75-5.48-6.62a1.43 1.42-51.1 0 1-.1-.98c.64-2.54 3.08-3.33 4.71-.92"/><path d="m99.03 39.55-.76-.6a.93.92 21.1 0 1-.35-.78q.05-.66 0-1.37-.04-.69-.8-.75-.53-.04-1.19.25.41-.82 1-1.28a1 1 0 0 1 1.6.66zm-4-2.38q-.16.64-.07 1.13a.88.87 84.9 0 0 .86.72h1.17a.96.96 0 0 1 .93.73q.28 1.13 1.04 1.03.25 1.93-.85 3.47-.35-.67-1.17.34a.31.31 0 0 0 .33.49q.06-.01.26-.08-.12 1.14-.85 1.5a.42.42 0 0 1-.56-.56q1.28-2.55 1.15-5.23a1.33 1.33 0 0 0-2.15-.98q-1.83 1.44-2.24 4.21a.5.49-84.1 0 1-.51.42h-.05a.42.41-89.3 0 1-.4-.42q.02-4.12 3.11-6.77M86 45.48q-6.08-7.65-16.88-6.44a1.7 1.7 0 0 0-1.49 2l1.18 6.43q-.28.6-.1 1.02l-.8-.73a1.01.97 19.5 0 1-.3-.6l-.88-6.64a.91.91 0 0 1 .25-.74c3.37-3.47 11.47-.93 15.02 1.13q2.8 1.63 4 4.57m72.88-7.46.61 1.58a.19.19 0 0 1-.29.22q-.9-.69-1.53-1.76.72.12 1.21-.04m29.24 17.03a1.25 1.24 87.5 0 1-1.24-1.14q-.35-4.44 2.87-9.02a3.78 3.73 89.6 0 1 .75-.77q3.81-2.87 9.76-3a1.59 1.59 0 0 1 1.63 1.45q.42 4.51-2.21 9.09a.63.51-5.7 0 1-.2.2l-4.92 2.98a1.4 1.4 0 0 1-.74.21zm3.03-10.52q-3.17 2.82-3.62 8.31a1.2 1.2 0 0 0 1.02 1.29q5.83.9 9.24-2.13 3.4-3.03 3.2-8.92a1.2 1.2 0 0 0-1.15-1.16q-5.51-.2-8.69 2.61m-30.24-2.07q4.46 5.72 11.41 6.21a.37.37 0 0 1 .34.37v7.53a.18.17 90 0 1-.17.18h-16.06a.87.87 0 0 1-.87-.87V44.19a.56.56 0 0 1 .77-.52q2.84 1.15 3.73-1.09a.5.5 0 0 1 .85-.12m11.1 7.4a.89.89 0 0 0-.89-.89h-1.76a1.81 1.77 57.6 0 1-.8-.19l-5.83-2.96a.68.67 86 0 1-.26-.23l-1.48-2.06a.65.65 0 0 0-1.06.01q-1.18 1.73-3.22 1.39a.6.6 0 0 0-.7.59v9.59a.91.9 90 0 0 .9.91h14.32a.79.78-90 0 0 .78-.79zm-2.97-7.2-.52.14q-.55-.25-.81-.71.84-.04 1.33.57"/><path d="M76.65 44.04q-3.6-.3-3.72.89-.87-1.04-.42-1.66a.33.33 0 0 1 .25-.14q1.99-.23 3.89.91m94.33-.53q-.7.2-1.27-.45.91-.27 1.27.45m9.46-.5q-.55.76-1.48.74.52-.67 1.48-.74m-51.68 1.12q-2.65.66-2.63 3.89.04 5.88.01 11.41a1.4 1.39-89 0 0 1.35 1.41l3.08.11q-.77.97-.27 1.77-2.95.5-5.83.05l1.74-.91a.51.51 0 0 0 .15-.79l-1.07-1.25a.8.77 24.5 0 1-.19-.48q-.28-8.43.13-12.59.34-3.41 3.53-2.62m3.42 4.77q2.11-.53 4.05-.07a.59.59 0 0 1 .45.57v9.88a1.89 1.89 0 0 0 1.89 1.89h.53a1.93 1.93 0 0 0 1.93-1.91q.09-10.12-.07-12.97-.07-1.32-1.43-2.13-.03-.09-.05-.17 2.44-.45 2.46 2.08.05 6.77.08 12.9a3.05 3.04 88.8 0 1-2.93 3.06l-.46.04a2.48 2.48 0 0 1-2.64-2.47v-9.9a.63.62-88.6 0 0-.59-.63zM86.77 47q-.57-.23-.77-1.52.85.71.77 1.52m44.4 14.46.02-11.74q.62.09.71.79.71 5.56-.73 10.95M89.22 50.79l.07.94q-.55-.68-.12-1.43-.26-.15.05.49m.72 2.2q.32.78.17 1.49a.31.31 0 0 1-.52.16q-1.21-1.18-1.4-2.95 1.1 1.21 1.75 1.3m-26.73 7.89q.83.96.57 2.36-.94-.88-.57-2.36m52.28 38.26q-.94-5.08 0-10.13 1.32 5.15 0 10.13m85.92 44.07.04 1.33h-.14zm-106.9 9.52q-1.3.07-2.17-.18a1.46 1.46 0 0 0-1.83 1.1q-2.54 11.55 6.62 17.87.18.11.13.51-2.61-1.29-4.09-2.96-5.93-6.68-3.51-15.7a1.49 1.47-12.9 0 1 .5-.78q1.78-1.41 4.35.14"/><path d="M97.26 172.03q.35-.07.7.01l4.92 2.23a5.54 4.52-1.1 0 1 2.05 1.61q.19.26.85.74a.98.98 0 0 0 1.49-.47q.89-2.5.34-6.42-1.61-11.35-12.54-16.72 3.9 1.15 7.2 3.84c1.43 1.18 1.46 2.54 2.63 3.56q.51.44 1.03 1.46 2.42 4.73 2.9 7.45.64 3.62-.72 6.79-.58 1.35-2.28 1.17-.92-.09-1.07.22a.13.13 0 0 1-.25-.06l.05-.84a.55.52 17.7 0 0-.27-.49zm72.26-14.27q.61.17 1.27-.05-9.55 3.72-9.11 14.04.1 2.38 1.51 3.45.08-.5-.71-.07-.95.07-1.09-.53-2.16-9.32 4.86-15.33 1.41-1.21 3.27-1.51"/><path d="M97.57 160.02q-1.23-.22-2.03-.74a.46.46 0 0 0-.66.59q.97 1.87 1.22 3.42a1.96 1.77 85.2 0 0 1.76 1.65q.18 0 .15-.74l3.09 3.98a.25.25 0 0 1-.3.38q-6.18-2.84-6.23-9.75a.48.48 0 0 1 .58-.48q1.47.3 2.42 1.69"/><path d="M98.24 160.17q1.21.65 1.69 1.52a.47.47 0 0 1-.23.66q-1.03.43-1.64 1.16-.12-.8.4-1.66a.68.68 0 0 0-.09-.83l-.62-.66zm53.18 25.19q2.79-4.68 3.99-9.52.55-2.23-.96-3.63a1.05 1.03-27.5 0 0-.88-.27c-7.1 1.12-11.73 2.27-16.46 7.29 1.17-3.46 5.35-5 9.15-6.79a2.17 2.06 26 0 1 .57-.18l6.05-1.04a2.48 2.47-12.1 0 1 2.81 1.81q.83 3.19-.32 6.34-1.35 3.7-3.95 5.99m-6.52 12.76q-.09-.19-.17-.38 16.09-7.06 32.64-18.98a2.92 2.92 0 0 0 .73-3.96l-.01-.03a2.6 2.6 0 0 0-3.74-.66q-12.62 9.47-27.25 16.46-.76.37-1.55.47.38-.69 1.04-.94 3-1.11 4.33-2.44a2.62 2.59 14.8 0 1 1.22-.7q.97-.25 2.79-1.29 11.21-6.34 20.41-12.96a1.89 1.89 0 0 1 2.74.59l1.32 2.29a2.48 2.48 0 0 1-.75 3.29q-12.69 8.75-20.6 13.16-5.19 2.9-13.15 6.08m-14.04-9.21q.29-4.15-1.25-7.27c-2.18-4.45-7.17-6.35-11.96-6.43a1.62 1.61 88.1 0 0-1.64 1.76q.52 5.75 5 9.43c1.54 1.27 3.73 1.76 5.66 2.59q-3.04.02-5.75-1.83c-3.11-2.13-4.66-6.04-5.95-9.78a1.85 1.85 0 0 1 1.73-2.45c1.38-.01 4.77-.06 6.67.6q5.53 1.92 7.72 7.43 2 5.01-.23 5.95"/><path d="m137.11 179.23-4.76 15.06a.46.46 0 0 1-.62.28l-8.25-3.56q2.51.01 4.62 1.68a1.58 1.58 0 0 0 1.16.34q1.71-.16 2.31.9a.25.25 0 0 0 .47-.13v-1.87a1.16 1.1 57.4 0 1 .08-.42q1.58-4.15 3.04-9.58.45-1.7 1.95-2.7m2.55 10.68-2.37 3.4 1.54-5.5a.3.3 0 0 1 .57-.02q.38 1.08.26 2.12m8.37-1.69q-.22.64-1.33.76.51-.67 1.33-.76m-1.47.77q-1.39 1.5-3.48.97zm-1.01 2.05-8.33 3.51a.23.22-34 0 1-.23-.04q-.22-.2.01-.48 1.52-.88 3.3-1.12a1.89 1.87 21.8 0 0 .88-.37q1.96-1.48 4.37-1.5"/></g><g fill="#d6b269"><path d="M145.43 68.73q-3.2-.97-5.38.83-3.05 2.52-5.94 1.61-2.21-.69-4.08-2.02a1.95 1.87-23.5 0 0-.92-.34q-9.04-.79-12.76-.02-9.36 1.93-13.33 10.63l-3.82 4.53a.27.27 0 0 1-.46-.26q4.92-14.24 18.57-16.69 3.23-.58 11.71-.27a2.17 2.15 73 0 1 1.67.9c2.07 2.85 5.79 2.86 8.48.57q2.07-1.77 5.27-1.4a1.04 1.03 78.6 0 1 .79.53q.31.58.2 1.4m-65.9 13.98 25.19 34.06a2.26 2.07 1.9 0 0 .45.44l2.61 1.91a.71.7 32.6 0 1 .21.91q-.44.81-1.3 1.56c-2.57-2.71-5.53-5.55-7.4-8.43q-2.03-3.13-3.78-4.98-.74-.78-5.21-7.43-2.47-3.66-5.47-7.08-4.32-4.91-5.3-10.96m40.79 33.86 1.07-27.5q3.15-.59 6.03.17a.75.74-84.1 0 1 .55.68l1.33 24.11a.63.62 82.5 0 1-.49.65zm101.94-1.83q-13.94.44-17.51.09c-5.71-.57-4.5-5.97-4.55-9.94q-.05-3.34.44-4.72 2.21-6.27 8.39-7.55c7.13-1.47 14.25 3.63 13.97 11.14-.14 3.53.05 7.23-.11 10.36a.65.65 0 0 1-.63.62m-2.76-10.91a7.98 7.98 0 0 0-7.98-7.98 7.98 7.98 0 0 0-7.98 7.98 7.98 7.98 0 0 0 7.98 7.98 7.98 7.98 0 0 0 7.98-7.98"/><path d="M213.822 99.222a5.29 5.16-63.6 0 1 2.27 7.032 5.29 5.16-63.6 0 1-6.974 2.444 5.29 5.16-63.6 0 1-2.27-7.032 5.29 5.16-63.6 0 1 6.974-2.444m.378 4.608a2.7 2.7 0 0 0-2.7-2.7 2.7 2.7 0 0 0-2.7 2.7 2.7 2.7 0 0 0 2.7 2.7 2.7 2.7 0 0 0 2.7-2.7m18.36 8.59q.54 0 .75-1.01a1.44 1.4 36.5 0 1 2.63-.35q.05.09.34 1.13a.47.47 0 0 0 .9.02l.37-1.09a1.24 1.24 0 0 1 2.38.13q.25 1.13-.02 3.13a.54.53-87.1 0 1-.51.46q-.1.01-6.82.04-6.73.03-6.83.02a.54.53 86.6 0 1-.51-.46q-.29-1.99-.05-3.12a1.24 1.24 0 0 1 2.38-.16l.38 1.09a.47.47 0 0 0 .9-.03q.28-1.04.33-1.13a1.44 1.4-37 0 1 2.63.32q.22 1.01.75 1.01m-42.86 17.44q1.27.38.82 2.16a1.04 1.03 12.5 0 1-1.2.76l-4.03-.78a.58.58 0 0 0-.6.87l.86 1.43a2.12 2.1 84.9 0 0 1.03.87c4.07 1.6 3.5 6.27 4.32 9.94l-.01 24.65q-1.81 3.12-6.5 4.1-2.68-2.05-2.69-4.61-.02-10.55.01-23.01 0-2.23 1.32-4.89c2.02-4.07 1.01-6.02-1.24-9.43a1.41 1.41 0 0 1 1.2-2.18zm-2.85 15.548a.93.93 0 0 0-.932-.928h-.04a.93.93 0 0 0-.928.932l.04 23.46a.93.93 0 0 0 .932.928h.04a.93.93 0 0 0 .929-.932z"/></g><g fill="#3f3922"><path d="M118.12 29.54q.21.23.44.12.18-.09.22-.38.2-1.47-.66-.87-.37-.42-.51-.86a.49.49 0 0 1 .4-.64q1.02-.14 1.28.86.37 1.39-.3 3a.56.56 0 0 1-1.07-.23q.01-.37.2-1m-53.55-.76h1.23c-3.27 1.28-6.71 1.97-8.92 4.93l-.91.67c.8-3.45 5.52-5.1 8.6-5.6m10.48 17.49q-.15-.51.01-.87.14-.32.72-.39 1.17-.16.91-.98 2.96.13 4.31 2.4a.15.15 0 0 1-.19.22q-3.62-1.64-5.76-.38m-3.31 5.21q-.32.12-.69.03-1.56-1.11-2.34-3.02-.18-.42.1-1.02 1.14 2.34 2.93 4.01m4.71-2.47q-.22-.1-.31.12-.14.35.08.62-1.51-.49-1.76-1.77.5-.01.53-.53.96.48 1.46 1.56m.25 1.03q.09-.31.33-.5 1.56.31 2.42 1.53a.36.35 78.7 0 1-.36.55q-1.49-.34-2.39-1.58m88.79 55.89q1.64 3.05-2.42 4.91a.86.84-57.9 0 1-.38.09l-2.37.11a1.41 1.4-75.9 0 0-1.16.7l-.22.38a1.37 1.36 8.6 0 1-.89.65q-1.04.23-1.13.26a5.48 3.95-24.6 0 1-5.41-1.07q-.64-.82-2.25-.91c-2.35-.13-2.59-.79-3.83-2.16q-.56-.61.01-1.86c.98-2.11-1.37-2.77-1.92-4.02q-1.27-2.85 1.65-5.25a.84.83 70.7 0 0 .31-.65v-3.67a1.2 1.2 0 0 1 .33-.83q2.48-2.65 5.52-1.13a.35.34-71.4 0 0 .5-.25c.6-3.34 6.38-2.9 7.56.2a.39.39 0 0 0 .62.16q.01-.02.09-.22a.59.57 6.2 0 1 .49-.38q2.78-.35 4.4 1.29c1.19 1.21.98 2.94 1.17 4.73a1.02 1.01-77.8 0 0 .5.78l.67.39a1.15 1.13-79.2 0 1 .57.86c.27 2.31.67 5.32-2.11 6.17a.51.5-22.6 0 0-.3.72m-20.8-4.54c.01 1.18.38 1.96 1.48 2.39q1.54.59 1.05 2.18c-.68 2.21.05 3.75 2.4 3.99a1.43 1.41-52.1 0 0 .68-.09l1.06-.42a.78.78 0 0 1 .97.32l1.01 1.67a1.4 1.4 0 0 0 .77.61q3.61 1.18 4.59-2.22a.64.63-72.3 0 1 .81-.42l1.67.58a1.11 1.06 46.5 0 0 .56.03q3.76-.89 2.69-4.24a1.24 1.23 69.6 0 1 .69-1.51q2.3-1 2.29-3.01-.01-2-2.33-2.97a1.24 1.23-70.3 0 1-.7-1.51q1.03-3.36-2.74-4.2a1.11 1.06-47.2 0 0-.56.03l-1.67.6a.64.63 71.6 0 1-.81-.41q-1.02-3.39-4.62-2.16a1.4 1.4 0 0 0-.76.62l-.99 1.68a.78.78 0 0 1-.97.33l-1.06-.41a1.43 1.41 51.4 0 0-.68-.08c-2.35.27-3.06 1.82-2.35 4.02q.5 1.58-1.02 2.19c-1.1.44-1.46 1.22-1.46 2.41"/><path d="M158.95 99.745a3.76 3.49-25.6 0 1-1.882 4.772 3.76 3.49-25.6 0 1-4.899-1.522 3.76 3.49-25.6 0 1 1.883-4.772 3.76 3.49-25.6 0 1 4.899 1.522m-.592.954a2.81 2.55-15.5 0 0-3.39-1.706 2.81 2.55-15.5 0 0-2.026 3.208 2.81 2.55-15.5 0 0 3.39 1.706 2.81 2.55-15.5 0 0 2.026-3.208m48.821 20.331.26 4.72-2.33 10.48-.31-1.51q2.25-6.74 2.38-13.69m2.45 17.9q.34.41.49 1.11-1.39 5.55-5.02 10.81-1.76 2.56-3.32 2.33 5.64-5.35 7.85-14.25m-18.74 30.83.01-24.65q.32-.97.88-.76.68.25.69 1.01.16 11.97-.02 23.67a.85.85 0 0 1-.97.82z"/><rect width="1.9" height="25.32" x="-.95" y="-12.66" rx=".93" transform="rotate(-.1 90127.525 -106445.716)"/><path d="M162.48 175.13q.79-.43.71.07 9.9-2.94 10.25-12.96.07-1.96-.6-3.79a1.18 1.06 11 0 0-.37-.49q-.74-.56-1.68-.25-.66.22-1.27.05 1.55-.92 3.26-1.02a.98.97 85.3 0 1 1.02.87c.28 2.66.77 7.45-.63 10.37-2.1 4.35-5.64 7.72-10.69 7.15"/></g><path fill="#a7c2c6" d="M69.26 60.84q.02 2.94.74 5.75 1.17 4.51.95 5.41c-.98 3.86-3.15 5.18-6.49 7.52a3.05 2.98-66.5 0 1-1.25.51q-4.15.71-8.12-1.09a.35.35 0 0 1 .07-.66l.62-.13q3.22.79 6.6.5a2.27 2.23-61.1 0 0 .87-.26q4.42-2.35 5.95-5.45c1.28-2.58-1.22-9.21-1.94-12.2a.5.5 0 0 1 .48-.61q.76-.02 1.52.71m-18.92 6.12q-2.42 3.1-2.46 5.2c-.11 5.58-.46 9.2 3.67 12.89q2.82 2.52 4.33 4.07a3.03 2.95 12.3 0 1 .58.88q1.85 4.49 1.87 8.56.21 38.91-.33 44.17-.69 6.64-3.32 10.24-3.6 4.93-3.68 6.06-.27 3.37-2.13 4.93c-1.21-9.18 7.38-11.78 7.36-20.2q-.06-23.66.07-47.48.03-4.61-2.65-7.7c-1.71-1.97-4.03-3.32-5.57-5.72-3.17-4.98-3.01-12.84 1.07-17.8a.5.49-43.7 0 1 .77.01q.49.67.42 1.89m138.31 19.37q-1.79 5.04-1.23 8.79.24 1.6 1.87 6.19a3.04 2.94 35.9 0 1 .16.9l.25 25.27-2.2-.19a.59.58-87.3 0 1-.53-.59l-.06-26.64a1.43 1.26-55.5 0 0-.04-.33l-1.39-4.86a2.86 2.84 43 0 1-.05-1.31l1.29-6.65a.88.88 0 0 1 .7-.7q.51-.09 1.23.12m-3.79 22.17-21.69 13q-.63-.65-.61-1.31.02-.6.82-1.09 10.39-6.33 20.65-12.87a.5.5 0 0 1 .74.26q.22.66.09 2.01"/><path fill="#70868d" d="M187.71 25.28q.21.18.32.44-.48.33-.67-.51zm5.31 5.36-.56.17q-.29-.23-.42-.55.52.05.98.38m-35.97 6.72q-.16.08.16.4-.59-.06-.62-.36.26.09.46-.04m11.99 5.3.43.29q-.53.04-.95-.15zm11.86.03.32.14q-.36.17-.78.18.44-.16.46-.32m-41.42 1.3q.02.08.05.17-.65.12-1.01-.18zm-49.7 8.24q-.31-.19-.49-.5l-.07-.94q.58.59.56 1.44M58.1 174.86c-3.5-4.45-4.78-11.11-.3-15.21 3.69-3.39 10.57-4.3 14.52-.91 2.09 1.8 2.91 5.2 3.69 8.25a.37.36-45.7 0 0 .71-.01q1.63-7.05-2.22-12.68-4.19-6.13-7.88-11.09l.39-46.14q.78-4.1 2.01-8 .72-2.29 2.87-6.01c3.75-6.49 3.96-13.08.33-20.14q7.94 7.03 4.23 17.38a3.48 3.4 74.1 0 1-.5.92c-3.04 3.95-5.58 7.1-5.53 12.27.05 5.52-.28 10.59-.2 14.71q.22 12.25.08 32.39-.02 2.4.51 4.27c1.12 4.01 4.45 5.09 6.72 8.47q5.44 8.1.34 17.3-.48.86-1.08 1.29a.61.61 0 0 1-.94-.34q-1.5-5.56-2.79-9.48-.76-2.33-2.43-3h-.01q-4.39-1.5-7.49-.76c-1.8.43-4.1 2.76-5.37 4.12a4.28 4.25-28.3 0 0-1.09 3.58zm101.57-94.08q2.43.25 4.67.25 9.31 0 39.88.09 1.17 0 5.34-.63 4.03 3.53 9.03-.06 2.32 1.09 5.6.74a.6.59 88.4 0 0 .53-.57l.14-5.4v7.93a.66.65 0 0 1-.66.65h-63.02a1.35 1.35 0 0 1-1.34-1.22zm19.86 48.38.11 4.57a1.07 1.06-15.9 0 1-.54.96l-6.63 3.83a.62.62 0 0 1-.86-.25l-1.95-3.69zm21.92 15.38q.19.61 0 .87l.1 7.15q-.79-1.56-.5-3.25.57-1.73.13-3.79l.13-.98zM98.24 160.17l-.49.19-.18-.34q.51-.14.67.15m-.28 11.87q-.35-.08-.7-.01.05-.4-.13-.51.57.23.83.52"/><g fill="#dfccaa"><ellipse rx="1.57" ry=".86" transform="rotate(-.6 6923.126 -20380.52)"/><rect width="2.92" height="3.92" x="-1.46" y="-1.96" rx=".87" transform="rotate(-.5 8737.921 -24471.027)"/><ellipse rx="1.41" ry=".92" transform="rotate(182.2 107.681 37.587)"/><path d="m121.39 89.07-1.07 27.5q-.73.64-1.64.55a.58.57-85.9 0 1-.52-.61l1.62-26.95a.69.66 79.1 0 1 .36-.55q.56-.29 1.25.06m33.59 46.27c-6.3 1.31-11.23-2.69-14.61-7.26a1.11 1.1 65.2 0 0-1.13-.42l-5.9 1.34a1 .98-80 0 0-.62.44q-2.19 3.51-5.83 5.37l4.42-6.27a3.76 3.76 0 0 1 2.23-1.49l7.59-1.71a.72.72 0 0 1 .78.33l1.88 3.1a1.21.96 12 0 0 .14.17q4.79 4.37 11.05 6.4"/><path d="M140.34 132.02q-4.01.6-7.31 3.62-3.12 2.86-4.28 3.38-4.8 2.19-8.2-1.39c6.25 1.2 9.89-1.23 13.47-5.95a1.65 1.65 0 0 1 .97-.62l2.95-.67a1.2 1.19 61.2 0 1 1.12.33zm-39.14 1.46q4.45 3.65 6.89 9.08l-2.19 1.49a.51.51 0 0 1-.7-.12l-5.37-7.51a.97.96 40.7 0 1-.08-.98q.54-1.11 1.45-1.96m66.55 3.1 1.43 2.6a.55.55 0 0 1-.08.64l-6.99 7.61a.88.87-47.6 0 1-1.23.06l-10.34-9.51a.17.17 0 0 1 .1-.3l4.57-.35q2.4 2.99 5.54 2.6 1.1-.13 3.49-1.62 1.66-1.04 3.51-1.73"/></g></svg>